<mxfile host="app.diagrams.net" modified="2023-03-24T21:30:06.100Z" agent="Mozilla/5.0 (X11; Linux x86_64) AppleWebKit/537.36 (KHTML, like Gecko) Chrome/111.0.0.0 Safari/537.36" etag="hNkPHnvg1MXrr1UzYy11" version="21.1.1" type="github">
  <diagram name="Page-1" id="PTh6ZFvXNoL-9yE4HP0J">
    <mxGraphModel dx="1434" dy="1766" grid="1" gridSize="10" guides="1" tooltips="1" connect="1" arrows="1" fold="1" page="1" pageScale="1" pageWidth="850" pageHeight="1100" math="0" shadow="0">
      <root>
        <mxCell id="0" />
        <mxCell id="1" parent="0" />
        <mxCell id="7bl6Vf3JTjFMhsMhAHnB-19" value="&lt;span style=&quot;font-family: Söhne, ui-sans-serif, system-ui, -apple-system, &amp;quot;Segoe UI&amp;quot;, Roboto, Ubuntu, Cantarell, &amp;quot;Noto Sans&amp;quot;, sans-serif, &amp;quot;Helvetica Neue&amp;quot;, Arial, &amp;quot;Apple Color Emoji&amp;quot;, &amp;quot;Segoe UI Emoji&amp;quot;, &amp;quot;Segoe UI Symbol&amp;quot;, &amp;quot;Noto Color Emoji&amp;quot;; font-size: 16px; font-style: normal; font-variant-ligatures: normal; font-variant-caps: normal; letter-spacing: normal; orphans: 2; text-align: left; text-indent: 0px; text-transform: none; widows: 2; word-spacing: 0px; -webkit-text-stroke-width: 0px; text-decoration-thickness: initial; text-decoration-style: initial; text-decoration-color: initial; float: none; display: inline !important;&quot;&gt;&lt;b&gt;2. Parse the response using the BeutifulSoup to extract the relevant data&lt;/b&gt;&lt;/span&gt;" style="text;whiteSpace=wrap;html=1;fontColor=#5AA9E6;labelBackgroundColor=none;rounded=1;" parent="1" vertex="1">
          <mxGeometry x="170" y="60" width="530" height="40" as="geometry" />
        </mxCell>
        <mxCell id="1IcF2C1W_d4IgtXrjlez-9" style="edgeStyle=orthogonalEdgeStyle;rounded=1;orthogonalLoop=1;jettySize=auto;html=1;exitX=1;exitY=0.5;exitDx=0;exitDy=0;entryX=1;entryY=0.5;entryDx=0;entryDy=0;labelBackgroundColor=none;strokeColor=#FF6392;fontColor=default;" parent="1" source="1IcF2C1W_d4IgtXrjlez-1" target="1IcF2C1W_d4IgtXrjlez-2" edge="1">
          <mxGeometry relative="1" as="geometry">
            <Array as="points">
              <mxPoint x="710" y="34" />
              <mxPoint x="710" y="120" />
            </Array>
          </mxGeometry>
        </mxCell>
        <mxCell id="7bl6Vf3JTjFMhsMhAHnB-20" value="&lt;span style=&quot;font-family: Söhne, ui-sans-serif, system-ui, -apple-system, &amp;quot;Segoe UI&amp;quot;, Roboto, Ubuntu, Cantarell, &amp;quot;Noto Sans&amp;quot;, sans-serif, &amp;quot;Helvetica Neue&amp;quot;, Arial, &amp;quot;Apple Color Emoji&amp;quot;, &amp;quot;Segoe UI Emoji&amp;quot;, &amp;quot;Segoe UI Symbol&amp;quot;, &amp;quot;Noto Color Emoji&amp;quot;; font-size: 16px;&quot;&gt;&lt;b&gt;1. Use the requests library to send a GET request to the endpoint.&lt;/b&gt;&lt;/span&gt;" style="text;whiteSpace=wrap;html=1;fontColor=#5AA9E6;labelBackgroundColor=none;rounded=1;" parent="1" vertex="1">
          <mxGeometry x="170" y="-6" width="510" height="80" as="geometry" />
        </mxCell>
        <mxCell id="7bl6Vf3JTjFMhsMhAHnB-23" value="&lt;span style=&quot;orphans: 2; text-align: left; text-indent: 0px; widows: 2; text-decoration-thickness: initial; text-decoration-style: initial; text-decoration-color: initial; float: none; display: inline !important; -webkit-text-stroke-width: 0px; word-spacing: 0px; text-transform: none; letter-spacing: normal; font-variant-caps: normal; font-variant-ligatures: normal; font-style: normal; font-size: 16px; font-family: Söhne, ui-sans-serif, system-ui, -apple-system, &amp;quot;Segoe UI&amp;quot;, Roboto, Ubuntu, Cantarell, &amp;quot;Noto Sans&amp;quot;, sans-serif, &amp;quot;Helvetica Neue&amp;quot;, Arial, &amp;quot;Apple Color Emoji&amp;quot;, &amp;quot;Segoe UI Emoji&amp;quot;, &amp;quot;Segoe UI Symbol&amp;quot;, &amp;quot;Noto Color Emoji&amp;quot;;&quot;&gt;&lt;b&gt;3. &lt;/b&gt;&lt;/span&gt;&lt;font face=&quot;Söhne, ui-sans-serif, system-ui, -apple-system, Segoe UI, Roboto, Ubuntu, Cantarell, Noto Sans, sans-serif, Helvetica Neue, Arial, Apple Color Emoji, Segoe UI Emoji, Segoe UI Symbol, Noto Color Emoji&quot;&gt;&lt;span style=&quot;font-size: 16px;&quot;&gt;&lt;b&gt;Extract all column/variable names from the HTML table header&lt;/b&gt;&lt;/span&gt;&lt;/font&gt;" style="text;whiteSpace=wrap;html=1;fontColor=#5AA9E6;labelBackgroundColor=none;rounded=1;" parent="1" vertex="1">
          <mxGeometry x="170" y="140" width="530" height="40" as="geometry" />
        </mxCell>
        <mxCell id="7bl6Vf3JTjFMhsMhAHnB-24" value="&lt;span style=&quot;font-family: Söhne, ui-sans-serif, system-ui, -apple-system, &amp;quot;Segoe UI&amp;quot;, Roboto, Ubuntu, Cantarell, &amp;quot;Noto Sans&amp;quot;, sans-serif, &amp;quot;Helvetica Neue&amp;quot;, Arial, &amp;quot;Apple Color Emoji&amp;quot;, &amp;quot;Segoe UI Emoji&amp;quot;, &amp;quot;Segoe UI Symbol&amp;quot;, &amp;quot;Noto Color Emoji&amp;quot;; font-size: 16px; font-style: normal; font-variant-ligatures: normal; font-variant-caps: normal; letter-spacing: normal; orphans: 2; text-align: left; text-indent: 0px; text-transform: none; widows: 2; word-spacing: 0px; -webkit-text-stroke-width: 0px; text-decoration-thickness: initial; text-decoration-style: initial; text-decoration-color: initial; float: none; display: inline !important;&quot;&gt;&lt;b&gt;4.&amp;nbsp;&lt;/b&gt;&lt;/span&gt;&lt;font face=&quot;Söhne, ui-sans-serif, system-ui, -apple-system, Segoe UI, Roboto, Ubuntu, Cantarell, Noto Sans, sans-serif, Helvetica Neue, Arial, Apple Color Emoji, Segoe UI Emoji, Segoe UI Symbol, Noto Color Emoji&quot;&gt;&lt;span style=&quot;font-size: 16px;&quot;&gt;&lt;b&gt;Create an empty dictionary with keys from the extracted column names in the previous task&lt;/b&gt;&lt;/span&gt;&lt;/font&gt;" style="text;whiteSpace=wrap;html=1;fontColor=#5AA9E6;labelBackgroundColor=none;labelBorderColor=none;rounded=1;" parent="1" vertex="1">
          <mxGeometry x="170" y="296" width="550" height="40" as="geometry" />
        </mxCell>
        <mxCell id="7bl6Vf3JTjFMhsMhAHnB-25" value="&lt;span style=&quot;font-family: Söhne, ui-sans-serif, system-ui, -apple-system, &amp;quot;Segoe UI&amp;quot;, Roboto, Ubuntu, Cantarell, &amp;quot;Noto Sans&amp;quot;, sans-serif, &amp;quot;Helvetica Neue&amp;quot;, Arial, &amp;quot;Apple Color Emoji&amp;quot;, &amp;quot;Segoe UI Emoji&amp;quot;, &amp;quot;Segoe UI Symbol&amp;quot;, &amp;quot;Noto Color Emoji&amp;quot;; font-size: 16px; font-style: normal; font-variant-ligatures: normal; font-variant-caps: normal; letter-spacing: normal; orphans: 2; text-align: left; text-indent: 0px; text-transform: none; widows: 2; word-spacing: 0px; -webkit-text-stroke-width: 0px; text-decoration-thickness: initial; text-decoration-style: initial; text-decoration-color: initial; float: none; display: inline !important;&quot;&gt;&lt;b&gt;5. Create dataframe and download it as CSV file&lt;/b&gt;&lt;/span&gt;" style="text;whiteSpace=wrap;html=1;fontColor=#5AA9E6;labelBackgroundColor=none;rounded=1;" parent="1" vertex="1">
          <mxGeometry x="170" y="740" width="636.75" height="40" as="geometry" />
        </mxCell>
        <mxCell id="1IcF2C1W_d4IgtXrjlez-1" value="" style="shape=image;verticalLabelPosition=bottom;labelBackgroundColor=none;verticalAlign=top;aspect=fixed;imageAspect=0;image=data:image/png,iVBORw0KGgoAAAANSUhEUgAAAdEAAAAVCAYAAAAZzdSNAAAABHNCSVQICAgIfAhkiAAAABl0RVh0U29mdHdhcmUAZ25vbWUtc2NyZWVuc2hvdO8Dvz4AAAAtdEVYdENyZWF0aW9uIFRpbWUARnJpIDI0IE1hciAyMDIzIDAzOjQ4OjE0IFBNIEVTVOTTPDgAAAygSURBVHic7Zx/bBNnmsc/1JBho9o02gm0Z5orbtklgHBaS7GMlNQ6QkdHiG8xiRaaEw2wITRiIdvSRCgk4iA0Gwgn4iIocG3Y1eayVYOrK4RVNmHFJT24VNoWo0LotTU9ur6Feu4CdhsxAcP9YUMM5MckDQ3Q9yNZsmbe93m/88x4nvd55h2P+/bbb28gEAgEAoFg2Dwy1gIEgvuBT/9wnLn1X3NlrIXcybEyHDkeuiJjLaSPQEMxyjwnjvTZKNW+fttcOXWKua9/zqf3kW6B4F4ggqjgu6M1U5Kex75zYy2kP1Qal9kobgoP3OTyV/y6FV7KmczE4Zo/UYlTqcU3omChQ9t0N6+tep6phpHYvzeY83fTcvQYNYo8YJuJc57hJb7k153a96hMIPj+EUFU8IPny44v+feUJ1kycEwYO8x23DlWjGOtY9gksiTjUVqOfsWXYy1FILiHDDuIBurzsRXuo3lXMXk5Cso8hfz9XdGd4S4aN+WjZNiwpTvJe/UAvrhJdth3gLKfO3GkO3BkKOS96sV/a6eXYpuLkooS8vPzcOW4WFnXjnqrt4b/vUryFQc2mw3nohL2nejb21XnwlZYy77SleQvUnAuKGafL24WHAnQtm0lrgwHNocDZ85KPB3x4gbXPhjXu8fRc/GRfj7juP49+JWL7dQWKjjSbThzy6gtdWFb4yUMfVniZzcbqzSusLGyoc93gWMeSnKd2Gw2HAtWUtsSiDPe53eHw4Fjnovi+lgJL+LDk6+guLbT0eOn/hcKiqLgWufllgW1E88aF06HDYfDgZK/leaLOp0CqMc8rFzgiB73Bg+VuTaKD/Wd18G0t29xoSi5eE5rdNbloigKSk4lbbed1x5aPv6GGbMnM+muwQfRfu4AxQsUlA3NqBcOsm5B9NhX3jxnBGirLiZPcWBLt+FQ8in7rY+bQw+pLeClJEdBcdqYPUA5V/vMy9ZCF850G7YMhbxSL349GbGOa4JIO5UZCpXvNFK5zIVrgYJzQSVt3Trsx5g0azJp57+mRR26rUDwoDJ+JJ20jw7SmrWH3x2yIBEmcB5ApXnjy+ztLaDuvQasxgDNFStY9/pUDlVnYSTAwW1v4M/4HcfeSUXSVLo+CmKKN3zNT1dCOU0Ndow9PmrzV1NlOcTOHBl8b1BS3UXmrj/SkJ6Av6mMFaVVmN/bSXYsg9A+8WN85y0aUsD/Zh55dV7cby9FBrQODxUtMhubTpA9BcLnffgjCbGBh9I+GOMI/NOPOHW0n11ShDn/ofGkdC/9quLdUsbhpI00dWQj/4+XsuXNMFvnmKc9vLyhjbRNb3NcsdD7kYfV60rYZ3mXVdOB7mZqq08ys+6PNDiM0O2n81zsgAxW1ja0sFZrpiTjADP/5V1WTbvdvu83lTRGCmg6thSzpKGePkkw4S4Z/aN6qazwYnylieOLZNSmMvIPwUyd2jMr3icTlcZlCh2uJnbn9nMmr4bw/XUCM564+yQNqn1aAbuPFETLuZtM1B1Zj/W2kqsG5iw27q/BmmIkfHofJb9Yh2d6C+UOaWhtZjc7D7mjz0R39OOb7jYqC7ejLtlJ0y478ngV35GTOh2rF5XW9wPU1L3PZhm0iwHCicPoPulRZiR+g++/r4Msil6Ch5MRXdnS32RTlGshetsxYk4xwsVWvB+YcK8rwCoDkpnsl7IxfdBK/GOR0EU//osaSDKpjlRuq6CNNzPfZY8GrUQr2c5kOto60YCuY+0EbEspSjcCEpZFy1mY2EHrib60QrJlsTAl+t1iTcUY8PPFzZm5QULqUQn4/YQjYEyxYp0Wu3Hq1N4/N5hc2IvtjX4+O68xWWcAHbFfw520fWhiYX42ZgmkaW6WztNflzz5rpfg3CJeU6LjGp9bzovP+Wk9drNGIAEhgn4/gTCQZMH+nFm3/QQkev8vQNd5FQ0JeZad1CR9fcMn2ug0LmS5y4yEhHnRcuZPGY52HVy9yqWrBib1Exy+i3awkLXMjTUlGhyNs9xkzw5z5rPRScvUo420GRezvtCOLAEGGWtOFpZRfnZqzy8iM3Y5SVPM0bF0M4FJEyNc0sTqIsHDy4gyUaZOvXuhgxrgL9cCfPGKQvOtjRqaIQ2tB5DMLK2qIbSnkbIXKwlEzNhz17N5TWZfIDWYMMWlpqYkI3SHCANBNUiCLPdlhQYZWYaPu0Nwc6tkitsvwbU+W1LGWurW7GXvrpep/yyEacZ8iirKcU+XdGgf3B0Tplzn0f7S1fE3mDB419sZiV97glyOyMhxN/fk5GTQVTINo6phwn/eTu4CT9/mHiMmS2z2kJRN+Y4Ae/+1ihW7/ITkNBav2cx6RV8gTV1VQ3lkL/Wv5FB2UcLiLGBjRQFWHQ/5QuplkGXkmz4xGEmWiZWKdWjXw4QJPDYhwuWe0dUOYXwN2/G818kX3VE92iWNqen6pQ1GSA3C49kk39MFRzJTH/8uT2OvcvmKgcek+2hVlEAwyowsiPaHbEaW0lj427dYOkAiJE3LYu22LNYC6kce1q3eyoGMTNZbYw0iQYJBIFYSVC+okGRCApIfS6b3c5UwsZAZUVFVSE4y9TNSvwKx5pezO78cegI0b1pB5T83M3+PG6MO7QMzjkDVxFEp5/Yvewht45OZZFBRu4FYFh4MBuNFABpXbiUDGtq3N78bkWUj8oIaWirsA0owZ6xic8YqIExXQxkrqjykO2vI1HNcxlTcpTtxl4J2sZ3a1b9iW9N8GpbHBWHtEUKnx3F1/A1Mc67fmniY5EmgqoQiYDYAkTDBS8PT3nfUAzDBhPWJq/zbXzWYdccB6dE+gHWtYzvr9qsU7W/irelGQKWxUMHbX9sh1d+NSU6GC36CEfomGboZ7Jq4g0FsSwbQrg3yUtDlbzjb8yP+4W9FKVfw8DJ6V/eU+SxO/4ID27x0xRYfhAM+2lpuLqZQ6Wxpxx+blRsTJ4JBIiH+vnVNpbXBi18DLdBMfUsIuzNa3k3NysT850b2fhgmutilnsMhO5kOfTNl7Ww7bb4AWgSQJCQJEhIlndoH4wY/LuzFtrOfT+3wyrn9MpQ2o50sW4jWhmYCGmjnvDQejSsZjjdjMQfx+dSYH5pp/bzvtp22aCGmox48JwLRm7mm4u9opv18rEG3j7ajXagaQAImKQEpwYQUP/0aL2NKDHLmv+72VqCjmc7z0e1SwiQkA0xMvMMpXxn4eIXEfxZO4H/jKn9GRxb27sMcOBJAQyPwfj2tF/r2D6k9agVTEvyl68wAwSoR5dlHOfvJ11weifYkGVO3nzMX7ugcDqEZLcyMlXO1014O++5UMJS2gZGdbjLCB6nd3xk9N5EwXUfa9S0sGuKa0MtUi5nwJ510DdD18umvOTv1CQZ5E0YgeOAZvUwUGXf1HrQdtZS4tqJqCRhlC2l5pUTzBI3AB3uprPoVqgYJxhlkrqlh+Yw4E1Iq9pR2ypSt+DWZtNwaahbFfoHWX7KzNERFxQvY1F6MKXbc2zbj1vsDDZ2lsbqSikCYXoMRc9pCtmzMjpV/h9I+OImzrpE4S7ejhslQ2mTcm7bg37Cd3IxKpJQsFjos3Ir+hlReXLeYzi25uLxPM/UnVp5+Rrq1elayrmfPJg/bd+TjPB/1jSVtPgUbsqMNIkFONnio2hggHEnAmGLnxaoi7PEZisFOwRo7ZdUv4KiWMM0u4u1dSzEDoXOt1FZV4e/uJUGSmTmvnPKf6TxpspvN1X7KqnOZ+7qExekmc3oHIb3ao63IWvFLmjeW4XSCJNl5ramG7Li511MZT/H8n77i9+qTFMVJ06V9xmLW5nRStcTBXoOEeckeGlanIs1by2snKihdlIf8uImJU+zMnCFx+9KfgbV1bnNR2RJC6w0TDsHLL3hh/NMU7HqLgumAnE3Nmxq1O7aS83aAXknG4iiiRtHh1yGuCb2YF5VSdKKUf5z7G0iwU35kN+5bjxV6+H3HNzw//1meGqZdgeBBYtx987d/YS/F8w6S3tRAQcpYi3mw8b+ZR94nSzm2y/0Avl84CJEuPD9bgfrqCTY7R9f0p384zvLgM/xp2Qj+cEFwF1dOneLvDidSX/YMPxWPRAUPMaOYiQoEo4//w3aYnoklCdTjXtou2SmyDt1vuPz07+dyfPTN/mCZOGcOx+eMtQqB4N4jgqjgvib84V5KXy0jBEjys7hf30y27tdMfoBE/LTtP8yZa/3vnphsZ+nP7Q9XhUIgGEPun3KuQCAQCAQPGGLtuUAgEAgEI0QEUYFAIBAIRogIogKBQCAQjBARRAUCgUAgGCEiiAoEAoFAMEJEEBUIBAKBYIT8P2nInZCOflMSAAAAAElFTkSuQmCC;imageBorder=default;fillColor=#FFE45E;strokeColor=#FF6392;fontColor=#5AA9E6;rounded=1;" parent="1" vertex="1">
          <mxGeometry x="193" y="23.5" width="465" height="21" as="geometry" />
        </mxCell>
        <mxCell id="1IcF2C1W_d4IgtXrjlez-10" style="edgeStyle=orthogonalEdgeStyle;rounded=1;orthogonalLoop=1;jettySize=auto;html=1;exitX=1;exitY=0.75;exitDx=0;exitDy=0;entryX=1;entryY=0.5;entryDx=0;entryDy=0;labelBackgroundColor=none;strokeColor=#FF6392;fontColor=default;" parent="1" source="1IcF2C1W_d4IgtXrjlez-2" target="1IcF2C1W_d4IgtXrjlez-3" edge="1">
          <mxGeometry relative="1" as="geometry">
            <Array as="points">
              <mxPoint x="720" y="125" />
              <mxPoint x="720" y="180" />
            </Array>
          </mxGeometry>
        </mxCell>
        <mxCell id="1IcF2C1W_d4IgtXrjlez-2" value="" style="shape=image;verticalLabelPosition=bottom;labelBackgroundColor=none;verticalAlign=top;aspect=fixed;imageAspect=0;image=data:image/png,iVBORw0KGgoAAAANSUhEUgAAAa8AAAAUCAYAAAA6EbIDAAAABHNCSVQICAgIfAhkiAAAABl0RVh0U29mdHdhcmUAZ25vbWUtc2NyZWVuc2hvdO8Dvz4AAAAtdEVYdENyZWF0aW9uIFRpbWUARnJpIDI0IE1hciAyMDIzIDAzOjQ4OjU1IFBNIEVTVHWVbaoAABLnSURBVHic7Zx/UBRnmsc/YXCakPQYNs2a7LAkjkkO0BI2U8fUpAoyd2B6C3R2QajVkDIG4y/OFS4qlKVQnuJ6ILkNxNNIbtVYh+5WCKmKwTrieMdCne6YInFSIq6aMWGZW81MFqWzxCYMe3/MiKj8GJBofvSnaqqA7vfp7/v20+/zPk+/wz1//etf/4aGhoaGhsa3iLC7LUBDQ0NDQ2O8aMHrG4qrUsZW2jLiceWDWgoyrJiTzVhXNeALwaanrgA5zYY1eRbyNtfkiZ1sei9SsP4Yuy/dbSEa32WUajvH1zgY+DqMt9dwUrbxfoqZ/82p5cuv4xrfYq5+9BFP/eo8f/RP3Mb3L3j5WyizzmLWrOAn2Ubumlqcocz+k4XaSFFyLrUXRj7FmL6a1fMSRjjq491du7mSVUfbiTaO78hGCuGyxrydNB1tpkIe6WwF1/4S8mQr5kQz1rRclmxpxBOC7cnEdfiP/OGJx3h+2h2+sMYI+Di4yExBvfL1mD9ehk2uwnUbE9moXKjlpK2Mzydi/3gZTrmKK+NtO3M1SU3NmIst38NJNsgo4x4x+zGe5xP+1alO2Pz3dFwF0ivbOOU6RdvhajJ79lK0pZGv6dGcENKTmWQnjxBk/F68F/XEPG6a1Gv63i5hxRsKcysPceyDY7y3dyPZJoGJu9cEuHqR3a0D/Mz2QyLu5HU1NDTuIJEsSLmfpqN/4pMJWhg5ePk9OCqXYE+xYrZasc1bQk3rkOnd56S20I4t2Yw5RSZvSwPua7Pctczi3ODJHMw3s6QumN4oDRSY7RSVFpGXl4t9np0l1S0hlb7w34N6KYzeWz73oPaOs/c6EKRE5toS6DvXgTu4QlAvNFK11I412Yw5xU7BjqHaPDi2FZArB0t2ch4l+13XA9/xMmxpW3FeW234HRQl26k5A/hd1OTJyPbttPa62fuijCzL2AsbBrMbtakMuyxjs87CekvZ0EdDsR05YyUHOxUcm4LtixsD+sYa9zH42HUazNlkJ0oIOgExNpHMvHQGQ+SgT5gxJ1uxr6zCMZiWBVbnS353/VruHXbMaxqDwc/Dvl+YyV1TRkFeHrlZMrmFtbhuWjFcPftn/kv3ILbYYQS2VyFbi9h3qIolOXZk2Ya86vrYeZprKMqxYTabsWYsoappSM44qj+PrU1xHaTkFzasyYGMtKRuyD1XGylKtlNSvZWCRbnINhu5m4ZmrCrut8vIk61YrVasaXYK9g4t2yo495aQm2bFbLZiyyuj4dx4lgwqnqOBvl/TV7TXNbjouB3tLVvsyHIONe0qzuocZFlGnleGY9DA6No7qu2Yl1ZRW7yEvCwZW0YBta7g8Qv7KMiQkdc34rv4FoUZAX9e8nrHOPp+m6hu/rw+F2eymeNyAV1DtJ3KkGlb30j/xbc4myHTJst8FNQ2cLSE4xl5nMqy4cwo4pOXC2izmmlb08jVSZA10FyCM20JZ4uXcDIvl7Z5eZw/fN2jBlz7OL3IjtNq5niyjbaVVXg7h1pQuLTKzAcvN9BVnMcHGTLvp9lxnwge9jn5dFWwvdVKW95WvEPK9AMXGnEvtQfGJcXO6R0t9A01315Fm7WIrkNVnMqx0ybbeH9Vw7j6PnXmD0nq/IymCVa9wkc6oLbWUNoksbH+OJnTQOl04fbrg0d9NGwq4oCwjj2t2ZgUJ1X/VEDRa/G8Uxgf2pX73XToN1BfZ0HsdVGVt4Jy0yFemTdGAezMFI7lhdM7TCoa+aLKPxSOM79XPbQcP40+PhuTDlBa2LqinI+fqaB+RyrGyy1sXVFC2UOH2JkjASoY09n4egWJsSJKey1FLxZS83gTG6zC6NfSJbK6ronVaiNFKftI+I83WTb9xlMEeTPvyIF3XoW3pIIS2ZXvkO3voObn+XjWNFFhG193R2NGYgJU7mZrHcxPsZAYK95w3L2/mJLmGVTU/4Z0yYNjUz4l6yXe2b8YY0hXUHF3xbB5/2biBQXH+hwKK+No2pLKtZH7tPMLrkwzEqcbwURvKw1tm9lVtxajAL5ODwKgttewcr2DpE17OCab6PughhWFRdSa3mTZ42P58xjaelvY/lINvuf28N4L8RC859tjm9icElTud9PRu4G6/RsQux0UZZWz70QmG5KB7kaqtp0kofo96qwidLtxXrjuK+79Kyj6bTTr/v09suOgo66ElYWvMuPttSSO4VIA6okq8jeeJLW8juY0I4LSgeNYcKq5Te2ppe+Qio+Di2Ra7fXszLnZJ8bWrp5yI/7uN9TFgvu1XHKrG8jesxBp+mJ2Hl4cWPBtMlB9eC2JI93320FK4cdr+rhvGNsDJ37PVzt28ffl0L0lj7PVDUh7FhIxfTGzgtqcmww8cXgtU29u70/AWFdN7yqZrksVmA9nctbewOeXMjFOQsl74NLHDNjqScqQGDhXy0f5xXTNqiMmFgb8BgzPV/CYNR69zoO3PJ/zm4yIexbeULFQDznwV7/Gk4ki9Hr4MrjAV94o46J/MbObF3KvoHK1/SSDj4PSwvkV5fQ+U0HijlT0l1twryjh7EOHmJUzZH7ubeWzts0k1K0lQoC+Ts+N2dAo4w7A1PuJi/wC16cDII2/CDhyC52A0OvD43aj+EGMTSRxetAbFSeOEwbmLsrGJACSheW5FjyOI3SEGjvCjcyxWxABIhPJtEXT6nCOXaKK7Wf2K32YX731M9se6qtXldYtNqwpVqxPyWz9dA5bijMRAaW1gcb+uawuSsUoANNSWZxlwnm0JbhaNZG+KHtwYhdnZpM5S+H0uTv50uzrQcr6NXWlKahHayjMsWJOy6OsriPYbw8t/3MGU+5y0qcBOiPp+fMxtR/hSMgvxQTifppJvAAgkp5hgVYHJ4f4zFWlH6ZMYepIJsLjWLg0M3BvACnWiAicfLMB71PLWSebEADxyRd49kk3R5rdgRNH8+extLU5ONKXyvPPxiMC4sznWZii0nLUOaS9kdRr/hyVhCVWwX3BN2gbevC63XgUIMqE5clguPd38O7bZ0hYtJHsOBEQiV+wgNTeIxxpD2VMVVrr30VN/yVr04yBRYAYT7qcGPj5trWPQojaBXM6c4OZtCkxHtHj5uOv6/3WcIjxPDgvcdgydJh5Pj9KlgjTSTyYZiHM40YNUVvYNBP3RkpEGkWmmEyEG2KIeMDLV92TIzssykJ0WiBYhD2eSfT0M/ylNXBfwp/MJiYtHn0kIBiJzkol3N3BlzdpD7M9z48TgwuOSCP3DsYegYG/eOjt9DGAQMRMC/dFBY70tzbwef9cHilKJUKAsGmpxGSZUI7elH2FxzFtaSYRwcdIH2u8MRsaZdwDTGFqhJ/LoQ74TYyYeQkpq6letZvdO1ay91wPhrg5LC/dQPbjAvR4ueKXkKKG6JRE9IoPLxBS7qUzYDBc/9UQJUJ3Dwow6mIz8m/caxoY9pywqFC/siZgKapnc5oAigfnf5ZTuroW44FlGHxe1MtOyuYNKdn5VcTYHnoAEQVX3XZq3nbycXcg1KqXVWKSQ7z0NxoBU8ZqKjJWg1/B3bybkvUr2W5qYnNyDz3dEP3AkJsmSUSj0HMZQky9mCoOaf8DA4LSha8fCK7OIsRw6PyKKzC80+tjiH7o5j8q+HwKStt2cjJqrv+5V8RgCtyjUf15DG3qZR99oonowadFIHqaAaVTQSXorzoDhqGJXDjQH/w5KpMNL3vYfaCc/B1ueqQk5q/azFrZCHjx+VRO7slDrrveXPVD6l9HHMYb+u719RGdHDPsM3Hb2kclRO2CgcF8TSeEaPsOEWm4PgkKAmH9hL77MDy4+tdBmA5AT1g4DExWYI6MJnxQnIFwA3zl8wISA50OOqv38vkpDwP9gF+hT02/RfsUY/SwGYq4rIJH/bvxvDSPs5cE7rUtZkbpYkQR+n1eBi47OT+v5Xpbv0pYbA83dE0fQ8Qtz+J4+IorV3U8IEws3R4xeIFEYt4GduZtgF4PjZvyKfu3RubsykY0RDNV58PXDQRXVIpPoU80Eg0EHgmVq4M9VVFvfhD9XrxeIFg28130QZRh9MAFcGYKzkkoG+pFCUkSQJLIzM/kgL2BI+eW8YIUjTj9aXbVL2O47RBq63YKX/ex/PV6fvO4CPg4uFSm4VrOqBPAPyR/7O2h746tMkMYd0DQgdo/RnVaJ2JKW0jm4wc5cs4H1sBiw3s5EMIB8PnwIpL8QLDNTZOe0ntrHu31eQfbq14vPaIBcYgXPhJ7P1P/+wvO+GHaCD6tv+UvIpIkImVU0FRqGaFDo/jzGNqEByT0ihdvP8TrAFS8vh70UeLY/hrEmLKMzSnLAIWOuhLyy2tItlWQGh6NJImkrHiHV+TRrN1Db3sYX6pwb5yfyMjrfY+W9Hg9XaiYbtEzGdqvcevdDFX7xKx/Uwi7HW26gLdOZDv+QE8XfSoQCdDDV16YkmwAPPzf+hL+kvhrZv4qkB1xYivvF/YMo30ExHgeLn6Fh4th4FIL7hX/zMf1c0h6wUi4FE3Y9KdJqF/GfRPQHTJXvuBM77387JGJ7RscsZV6pgWHyxNIoQUBQQB9ZNBBRQvpyT28uz+4SaPbye43nRhtTwcekHAjJqMXl8sXtNXIkfM3OUC/jyN1gfaqp5G9TT1YbBZurKgPQ2w/M1/uw/zKrZ+ZIZcNg/hBVTw4D7fi1sUQI4GYks0c5QBV+134/IBfxdfuoPHEtc0mPaiiiYRg2VBtb+Bd15C+GU0YeztwBatVnsMOPrx5pRkuYYj0cvrsJO9vDGXcgRiTEeWUk46bDnkO11J72IXHpwYyr6P7aDwnkhAnAUZS0+NwN+zGcQnw+3DseQt33BxSjQASpliRj10nA2VGxcm7rTfXE1U63tkXaN/r5mBdC0JKOpYhQSriiYf5qf9zmjsZF0lZczEcraHmuCcw1ag+3K2NtATtjOrPY2lLSidV18IbBwIlVKX9IAebBebYRgqUN9HtwnG0A58KoMcg6BH0BoRwQBfPXLsJ5+tVOC4Eb0i3B+chx+AGIgD8YZwvFPjD83rc54caF0jJmovgeJVXm4N9V9w4jnYEfr5d7QCIGKKgq+P0jdN4qNrHIkrC0O3m9MURjl/9nN37P6Kybbw7siaBKAldt5svRtI2BmGPmNB7nFwewZ/7m8poy1hC15lhDiqt/Lmug36gr3kfly7E8YMUI/h76O/VozclBAKX34f37SPjWiR/2dpId2dg/gnTTyVMB2HB5yE8JZsHlQNc2O8K2PSrXG13cOnE5L4audL+GWdiHmbEb+6MwciZV88ZDm4ro9Sj0KcTMSbNZcvGzGBwkcjeVEHXpiryU7ai6CTi5A28siox0FYXz7OF83FuycHeMIOYJxKZ8Zhw4/eFhHgssS2UyFtxqxJJORVUZIXQC3GAH6bd7tcKVRzFZmYVA4KI8TELCyvXkS0BpLLhtXW8WllKzg4PCnqk6RYyVyYFZKetZt3xUoqzcpEeMhAxzUJCnMDJa6aNcynOd1C8VOZIbAymp0wkhHfdeHmdhcWrLJRsewbrNgHDrOXs2bEQo7+D2qVFHPhUBcWHjxJsxwSEqLlU/i6El9mhjDtgzCpm+fFinnvqDdBb2HB4J9lRYIiC07tKObDFg68XxNgk5qzZxerkgFObFlVS4S1je46ZElWPlDifim2LBzNUS/46Ul8qZ17WXmYYE0iMN3FjnUEgMdlAw4tWSi6BMfkFKl5KvTEDiHiI5Sl/5IXmzyiZHvp2eSFxLbs21bD95TxsnQGfNSXNYfH6zMAJo/rzGNrEVDZWL6f8Vyt5ZocCD5hIXVnNOluI2Ybfy8m6Gso3elD8esRYC8+WLx8M2qYXqnmF7dSssFHS3Yc+0kiCdSFrM0Lsu3Uteza9ytbqPGzFCohGfvLcFlImQ3twbNLzf0njxhJsNhAEC+vqK8gUb187AHHzWT3PSfkCK7t1AsYFu6hbMeTlg3qFpt//iYv3P0qxeRx2J4O4+fx4npNPFljp0gkIC3aRtCLETWkAM5/l0Rwn7hwznYg8WNnME7brhwcUH1c9XcMGnjBjCvd7yvnQeob+yDiiSyv50XSAeH5UvJCzlXm0vSkx5b5o7p+ZhH4c1beBC0e4UF7Ome4+ECTuS9vAjJ8H518xlcdeW8cnlaV8uMPDAHr00y08GJwDJ4deftv6BU/P+QmPTtDCPXflfxsqDRSkvUVyfR2Lh9sSrfEdxMO+X9g5saCZnVlj5Ne9FynY4iax6CmW35EvKo9Dm8Yd5+rJD0l47UtK/uVO+cPdZ6C5hPcro0k4tBbx69iBeZe5+tFH/OO7kewteYy/m2D/RnnnpaFxl4h8iJ3bbutNsMZ3CNepyzz09GztP658h4iYPZtjs2/Phha8NDQ0vtFYnvsHjt1tERrfOO5O2VBDQ0NDQ+M2+J7+b0MNDQ0NjW8zWvDS0NDQ0PjWoQUvDQ0NDY1vHVrw0tDQ0ND41vH/3+4haxKxBcsAAAAASUVORK5CYII=;imageBorder=default;fillColor=#FFE45E;strokeColor=#FF6392;fontColor=#5AA9E6;rounded=1;" parent="1" vertex="1">
          <mxGeometry x="210" y="110" width="431" height="20" as="geometry" />
        </mxCell>
        <mxCell id="1IcF2C1W_d4IgtXrjlez-3" value="" style="shape=image;verticalLabelPosition=bottom;labelBackgroundColor=none;verticalAlign=top;aspect=fixed;imageAspect=0;image=data:image/png,iVBORw0KGgoAAAANSUhEUgAAAa8AAAAUCAYAAAA6EbIDAAAABHNCSVQICAgIfAhkiAAAABl0RVh0U29mdHdhcmUAZ25vbWUtc2NyZWVuc2hvdO8Dvz4AAAAtdEVYdENyZWF0aW9uIFRpbWUARnJpIDI0IE1hciAyMDIzIDAzOjUxOjE5IFBNIEVTVJ8+WwMAAA2lSURBVHic7Zx/TFTnmsc/MjiHojPW7ZmL7Rhaxx911OtgZ5e5NJcpuWJJQL1xxFR006q5imu56KYWYhTWtVhXqqmiKWJapE0obYq44YrJVMzlwq7s0EUdo2JrHX+0k+id00VmFDmDo/vHYAUKMghi1fNJJoF5f5zve97nvM/7Pu87Z9idO3fu0MGlS5fQ6XQ8+dzi/LFqvjj3E1f9EPWbScz+3T9hGvWodSkoKDwJ/HDuG75p7iUxbCSm3xoZLwyppCeOYU+n81JQUFB4iPhlbtzpLVHFCCF8KNU8kSh3UEFBQWGwUQuMeNQannDCHrUABQUFBQWF/jIg59W0cy7md6oHS0tXThewOCmBhHgz01L34no4V+kFNyWLzawq9/0KtT0d+I7tZVVyHOZYM3EZFUhdUt2UvGFm1V/kAV6kglWxiylxD6waoG+b6IfNtH13ildzm3AGBkFXKPiqOBO7gEsXekk/XcCJpAS+iTfz36l7ufkQJLSdPMmr73/Pt0PVZoXHnoe/8qrPJSFpW/8fxKmZlNprsGdZeOB9TbmKNbEL2NvbQ/mgDIY2hfsgcbCwiJZ5pTQ2NFK/24bYJV2LZdl6Fpp+RXe/L5sI2Wau82n5FV5OnoBJ9ctUf/kq6jMquNVTUbkPJ/SgTM0kxl6DOcsyoAHjftojpk/gLS7yH44BTkgUnhqUsKHCr4+AB88VNWMnGnrJoMGYZMMaPaSqhobzFym6+hwLzcMftZIhJpKF8SOxH/mBi49aisJjwcAPbMguytYtoOiIC99oC+n5H7LCJMCFEla9Xcb5VgmpWc3q5MMIwNjUHXyy3IhzSxKrT41Hd+U4HsN8bKNrKavxMiWjmE/e7G3QCpGAk4I3s6iSZKRWH44/JbE/HITJ6RTutKEHZGcJ2dsrOHHOjS+gQW+eTea6tSR2GhBbTu1jzadl1F0FfexS1r+3AsvoEG/LhSp2vV/Efqcbv6DH8sZaNmVYO1YQMq4Dm8nZcxiXF4jUMeOf3+OjpaYQKh6GfG0Yv1zI3mG4eIfhPczWu+NzlpD3fgm1F2QQtIyNTWfrdhuGbtrOSn400fEsytrAiriOtU99LgkbBLZ+vR6LCghUsyauAMNnlWROBmd+EitPxTBL+JHzXh8+jKT9+ybSJoeySpKoyFpGkdOL94oP/8YkkgQQTJkU56cgAo7tC8j92oNX8jFj41E+mtOp3vpcEjZ4mZ0MTcdcnHdDTMYOdqTetScfjj3ZbC514EaPJTWGlhBU3cVVHix7xu3DL4jEzExnfZYNQ2Q/KukD5/96uDLhZV7rj+8KOLn4ZhY/STL+Vh++PyUhhQOT05m600YEcKM8m/OlDm66fdwWREbMTGd8lo0RP2uXuVmRzbG/VCPLIiPmvcukdxKJCMGeANpqCnDtrqDlgo+wqBh0qzdhSNL3q+2jpv6GmM+uYJcmkC72nV/h6WbAKy+54W945hVSU2/nw7jzFO3s2J8Yt4SPDtmxb0lBHDOfnYfs2O12PlluvFd2jI3i/9xAzKkyzsYWU7PTyo8HDtI00Li3ykRmqR175bvERxpY+nHw2pUdjguAgJaYt7ZSfqSRxrpSMsXDZG8s4972h4yzQWL2x/U01pSSxudkb6mml12wrvhq2bwyj+OT11Je10hj+Vr0R7LJLe/YuWmuYtuWE0zZ+DX19fXUl+/gLVNoT2vrlwLViRH8tYfPqYZQanCzP38XrvhCahrqqa8uZVOqEe3dZOcu1mxpYsZ7X9PYeJTixfB5Vh5V0v3q7Nb8cxLGnFJKv6ykcIGPgnVFIfapiC2/EvuhQtKiNSRu7Oi3DscFYHnnK+z2UtIn9FKFdALPtA18UlqJPd9C0/YCqjs6zXckj+xSGVvxURprCkm54sDZjyiVLBixbSynpr6RxgObMJ7azJriptAr6JN2Tlxu4yX9SCJ6yREeuxDDYkvXWafKxEuldsyV7zIq0sCYj+2Y7XbMHY4L4LZgJGpjOeb6RuIObGLkqc1821l7wEXLZQtGeyOW8kzUR3L4vjy0Tr99uoAz66oJX16MpbERc54Jb94aLp0LQXtnRo1kcuR1nJduh3RdhaebATsvwTyfpbEiqESsMy1o3C7Oh+h8dNF6NJEGDKKI3iAi6A2IXgnPQEWFgPCKjSUzjYiRgKAncZ4V0dXUSbuAce4SEqOASANpb1ih7jDHQxjsfHUVVN2aTeYaK3oBiLKyZJ4Bx5HaDucnAF48LhduHzDagOWV0GapEYntmHf5e/yMnxx6+71XXbiuyiCIGOOMPzuHpppa3OY00mM1gIBh3lJmR9ZxuD4ktx1snTmF2R0rWH1yChZ3NYfP3b/MoKG1kpIYbI1gisEYcOO6Ekw6Xl2L/Pu3SJsogEpPyrIUDP2IPRjnLCHFJCKoANGCLdGA+6yLwdulaaelFZ59pndRYdFWouL6t6IB0MxZQpRJJLxDe1SiAfmsq9P+k8hzi208I0CYPgV9sg5fTW3Pe2vdaPmqAvnVdAxJBsKA8FeW8vwrLppruh5L6Vv7cEZFBLgmK6c2FPpm4GHDSC2au38LAiFZ+93sKgGQIZzggKCCHuJhDwX5cjVFO/dRfcqN9xYQ8CHJiV3yaEXtvX90Ilr/WSQ/9HVKwyt5kK85yJ1Te+/LgIwm2osX0IxOYf12N0Wf57FstwuvGMP8jE2sDSHMEqa5jdYwjJ7mpsNDCl/pScvbirewjOxFubgDeiyp90KaHsmDWhTv9alKRBTheLMX7n17X9SaTuUFDVrBi9Tb2wYGG7Vwr3vCg/bVFgDwIfn86Cbq7qWLYxmrcoRctVS3lw/2HeTEJW/QYbVKECMTgkmEiIpRkXDtZj8eohBpq9vLxX0HuXHJG7SdVonbMZ3crkrH8E7vJxguauD/vLTT1yDhwy/5uN34Ac7kgp+/vd2qQWXor1tvp6VNxbNCiLFKhaeaIfqR8gDmpir14Mn4GTdl67KpM31I8ftWRAFo2EzCam+XXF7JC3fXJB4Jb6QGsbOcXrRpRR2aca9RWL6C3nbv9PEr2BS/AvDRVJrNsrwCYhO2Yu1jFGw9IPDXD3paMN/hhb03mRF3//IAwrhEMvMTyQSkYwWsXrmZkngra02ge1aH/3sJHx2uKiAhSaAb3eHIVQIEOvVnqxd/twmHX3Ij0XHnvBKSrGVy571COQzv6WG0h99BO/02Q3M0QYM4Wo23uVMf+7x4Qp0sNVeRm7UfTU4xlcl6BMC1ZwELnN3y9WWv900XiImO4KL7Om1oew0d9pvmKlxZ+wnPKWZGsp4w4MaeBZzsrD3god0DjAv+2y754B+0XfumQ3vXiZMGtahBnbwVc45lYDpbrnO29Rn++KJyjkyhbx6+lYwW0Ta7OHPlwYoLLxrQux04Lj9A4XARbaSHM991C3kFvHhb1egMU4KOKyBRfeAwUpeBTKapsoTqqwQPpXxZC7+fxYxOzqU3bZp4G7N8n7PtM2ewzoCMdLqaqoa7e15Oqo80IckAarSCGkGtJZQ3xkQktmPe4e/h0x5i2FDCYa/F1Rx0QJrICFAJqDvaZUy0om8so6jBR/Dwxj4Oei1Y4zrWUnoD+tYmnB0RIfehao53WyjIxyooafABPpylZTiirLw2sVOGH1QcXybwP8uH89MQRohmzLRCfRW1zRDs3yqaQl3k+L3IAZHxxqDjotlBmb3pF9Oyvuy1r3TTP+oY8/1V/tYeoq7OhIuoIz3c7G7vfi+3AiKRxqDjotnBVXtTNyck8VNpBTdluO2uwn3Ig2amtcvsNuxFA2q3g2vdtI+aNxvVkQIu1ruDdcoSN+qqaO7nM9ty+u+cHfs8ScphDYUQePgrr8nzyZzjIG9hHEUqAf3CQkpXGvsud5epi1ib6iA31cw2NKTk17ApIcSyKgtLMixkb3mduC0C2mnpFO9OQ68ysjQrjez8xcz9SkQ3Qodxagz6LtEKAVOsyMGVcWS7g6cNt2Yldg2c9aZNY2X9nnfZlZ9D6m43PtSI4yyk/EtMsFzAw4nSAvI2uPEF1GiiLSzKSw+e3uuDsBcCjHkhxPb3iIz7v4rIzftXJBnUmslYM7ay9K7jM/2ZHVlecnJexyz50URbsOVvwnZ3QNHPJmtZNVnLkzgcPRbDqwamhP/Y5Qqa2BjYk0pchoQQncjaD/7c42+W+o27gjXLCzghgyzJ+POTSNgBQvwGKjcm9hm60yRsYOu5HLYtnsuu0Rp0E/UYw0PcYY2ysTbDQe7bczks6tBq9ZimGRG6n2noy177Sh9vID3qKF80tpP0u36uSVUWns+w8O2W13FsEQibls5vd6cREWVjXIaDc2/P5e+ijnCtHu00I2GdtasMjIp20JS0OXjaMPU9Js3r5kWmLuKlVAeuVDOX0fBcfg2TEiDMtJYpGwtwbV+M47IPVBqEmFno16X0Q3wrX9Rd57VZM3ipf61WeEpRXsyrMKg485NY2bye+i3WRy3lsaXtu1P8oUxF4Qbj4Dj9x4C2kyf5w8FI9mVP4OWnpM0KA0N5Ma+Cwq+MiEnTOPpvj1rF0BIxfTpHpz9qFQqPE4+l85Iayqho8NDWY2oEU1JWkDhuiEUpPMbINB34lMPuni2K8LHMetOGcRB/jKygoDAwlLChgoKCgsJjh3ImVUFBQUHhsUNxXgoKCgoKjx3/D817OawXX3gnAAAAAElFTkSuQmCC;imageBorder=default;fillColor=#FFE45E;strokeColor=#FF6392;fontColor=#5AA9E6;rounded=1;" parent="1" vertex="1">
          <mxGeometry x="210" y="170" width="431" height="20" as="geometry" />
        </mxCell>
        <mxCell id="1IcF2C1W_d4IgtXrjlez-13" style="edgeStyle=orthogonalEdgeStyle;rounded=1;orthogonalLoop=1;jettySize=auto;html=1;exitX=1;exitY=0.5;exitDx=0;exitDy=0;entryX=1;entryY=0.5;entryDx=0;entryDy=0;labelBackgroundColor=none;strokeColor=#FF6392;fontColor=default;" parent="1" source="1IcF2C1W_d4IgtXrjlez-4" target="1IcF2C1W_d4IgtXrjlez-5" edge="1">
          <mxGeometry relative="1" as="geometry" />
        </mxCell>
        <mxCell id="1IcF2C1W_d4IgtXrjlez-4" value="" style="shape=image;verticalLabelPosition=bottom;labelBackgroundColor=none;verticalAlign=top;aspect=fixed;imageAspect=0;image=data:image/png,iVBORw0KGgoAAAANSUhEUgAAAXgAAABqCAYAAAC29EqCAAAABHNCSVQICAgIfAhkiAAAABl0RVh0U29mdHdhcmUAZ25vbWUtc2NyZWVuc2hvdO8Dvz4AAAAtdEVYdENyZWF0aW9uIFRpbWUARnJpIDI0IE1hciAyMDIzIDAzOjUzOjU2IFBNIEVTVEOeoWIAACAASURBVHic7b17XFTX+e//hgE2IZlRmiHajNdJrBBtIM4pdDwFpxUy/YHSSDTR0COoX+PlWORrDdSvSozxUm+pkFSDabzkHEIuBFMV21FsEHok2GIk1YBNHC918kWZFGGUsIHB3x8zCCIwg6IiWe/Xi1fi7LX3fvbaaz97rWet/Xk8rl69eg2BQCAQ9Dk877UBAoFAILgzCAcvEAgEfRTh4AUCgaCPIhy8QCAQ9FGEgxcIBII+yi04eCvZ03XMet/a89YAlqz5GMcb0IeOxri27I6co28jU/5+MrHhOnSheuLfMt+42ZbL/NB4dlrujXUdcjKDeKMBQ7iO0ZO3YXa9x91DziM5dArbvrw3py/fFIs+Jb/jjfZCVk80YhivR6ebRW71HTLCbiFv+RQMeh06fSwbj7XbXpCKfmIG5fbbO03ZeiOG5YW3dxAnXfsRG3kpRgzjDeiCdaQe6upIdXyw+RNmfCr3iF0AFKdRMn41NbdRX/Wff87YNV9xysUxOnfwLQ37zK0bcSto4rdgOlTAOqP67p64G5Snd/HQ3WvqisjcbCYi/QilR4vJmq29cbtfCFNTZhDmfwfOXZyGwbiRsu423FFJZJkKMKWEId0Bs+49jk7R/Bxbzx5WEcHSvSYK3plDoKJnD30DpTvZUKRl2YFSSov3sHhMu+0j4njpxXEMupM2dJOu/YiSmPUmCg5sJWGIT5fHqf/8FL+1DiT5Rx23zG9S9Bzf0XFvyZYeS0lKPs3dNb6FM9s4bkjjmw6eJ98nHyeBs/y2pOsXjwjR9DWqL1BlH4R2eCeuUqElYnIkQX531yzB/YtsrcI2IIggZScFNGHETQyms833LzJ78qsY+D+HEtyLXl4O/Jga/hCmQ//ibBelbnbw9jIy4o0YYzdQVGdmx38YMRqNxC7M5Yb31IWDrJ5uQKfTYZi+kcJuDA/lM3lsnB2LPlSHLjyW+W8U4n7Ax0bJjlSmjNej0+kxxKeR+6XzLVadyyxdLLPmxaLXx5KWvppZ43XoJ61utc9WTvaKeIzhOnShBqb8eidlLR0rOY/k0FhS01czf/oUjAYDU1bkXb9u695UYo1G5r1nxlawCqPRiDF6ChuPXr8yzLvTiDfq0ev16MfHMn+Hm2Em2QP5oid1N/150OhOj1h2DNeN0zOpqCthw1THfZuf5Qx42MvZNtOI0ahHF9xJiObkRoz6ZHbu3cisybEYjQaMC5z33W4hf/0sYsP16PR6DBNnkVHkrLgzO5kfbcS4JA9r5UcsjHace9Zb5e5duyuqC8lYOMV5z/QYJiezrahNiylOwzB+NSUt9WTPJzk0lowKxz/L02PRzd7ItpRZxE8yYoiez7aytj0fGcuhDJInG9CH6tCPn0LyjjLkNturijcyK9rR5tq2CVcUvhqL0TiZjJMyJemTHW1mYhr5zqqTy3aSPD3WEf4INRA7byP559tffwkbZxvRh+owTE5m50n3RwK39awdyyA+2kjs2iLkrzKJNxoxRseT0dKkLbkkTzRiNOgY3UGIxlW9y2fySIs3oA91PMcHL7p9Wa7bRE9Qd4mP/ylhGNW93lDD3lRKjUYq3jPTVLCKUqOR0ugpmI+2LVXL5e3JHAvXUayPpSLH3O2efr9RjxBy/hKmLi77ZgevCCYpy4Rpz0uE+2mZ8QcTJpOJPelxaK4XkjleYCZsrYnSgu3EydlszHIzcmorZPXcVXwWuJicolJKcxajOZRKWo57N8f8zlyS35OZ9vsDlJYeYGu0lYyFr9PabiSCF31IVrxEnkkiae8ekvz3kVssA1byls0j82IU63eXUlqURaIim4Vr8rn+yNjNlNdFsu6dDzHtXoamYAM7nTdGPXEde0wmtk7VojQsw2QyYdr/IYtDnftW57Fx7XGeWHGA4uJiinM2kxDsXqip7n2J/EhfPung78RR1/sjOYbrpnfmEOgXxks5jvu2Jd4ZolEE8eJ2E6aclwjrKg5SV0RuaRArs/ZgMhWQlRKGCpCLMlhuUjMnp5jS4mL2/j6JcYOcw9vhiWzZb8K0Ngb1wGdJ3+8499uzg9y6dpc0QMDYX7F1zxFKjxawfSq8m7KKvG5EPOQTZpQL3iZrt4ntsVVkpuded3Ty0Y3MXFZEwLwsCo6WUvzxSiY82mZnu5nCMi1Lc4o58t4cVKbWNuGKiOV7MJlySBolEbYwx9Fm9q4ksqW7a1cRkrCOnEOO9pikPkjqiuw2LxAZ27HjMDuH4qMFpEdWkbkoAxcjcwe3+awxJoms/Sb2pIQhPT6HLJMJ0/4skoKd2zVxbN5rwrQistPee+f1bmbXb9I4HriSvcXF7E0ZxGdFFtyOdPdAm3DJhRoq8GPk9zsv8uDkZQz+yY3PuM/EdehMJgKnavEyLENnMqHb/yHa0DaFrIXYvObwZMERnkrRUrMpg2/a264OZ/Cvn+XBzkYP/R4i0O8KZec6fzXcYohGQhs7jUiNBMpgosZqsJxxz8HbinLJa5pAUnIEGgkYEEHiJC0lhwpxeW/s5ezbXcET05cRF6gElARNnUpE3UEOnnSWUWh4bIiEZmgAaLRo/DRoBkhUWa1w8SC5f1URtzCRYDUgaYhJiEH114NtHhgNEbFhjgbrH0LYEBvmM+72DCSgliqzGYsN8NcSNkbjaicAfCMb0b3e0OHfY4Funr4n8Apk2uwYx70B1EM0jrpQSEh1VixmMzY7KIcEE9xZGKinGRDBtOcj0PpLgIR24gTCMHO6fU+3CyRdJBOGOP5fGxyE0mLmtB1ApihnH3Lkr1g8XuOYA1AGEWkMbjMfoCEqPg6tH0gjoggf0Z024cKuMXEkjg9C7QdIGiInRaA2lzttc5YJjiMx1NHeg+NfIKy6kKIK18e+rWeth+i03s8XcvirQOISIlArQBmcwIzwbrSnHmgTLqlr5LK3F/278JK+oTE8POIWngO/CL7/QhBeCglfYxRKu4W6ynZllEE8PDEY304P4k0/XzuX5c6H+F7dt8yBSqW6/v+SAkBGBpeTZLXWKuTLJaRNbDNbbpdRDqmlFlzE8aqwWmWOb4/HmNX6q2yHiKut/5a8AIUPeDnt8QLsgNXChSYLpxcZyWvdG1kRglwH+AEKFaq28y5eQJOLi2rBP4almyxkvruKmW+YqVWH8OyClSw2unbynspmVFqPDodp3nczXu4ziICBN/8shSeRviCTzDfmsePLWlSBUcxZvpS4W2nc3aWunNz018kuOk2VLAMytjoV09y9LwCSqrVtKaQ299RGlbWBgNBBnbddhQrV9Z0lR/vqzrm7QD6fT2b6DvJPWKhtAuw2rHJkW8NBHcD1PqKfGpVfLVVuhERv71nrITqrd5sVK/0IuH5hEgED1Ejuvnl6ok24ws+b/o3fcrkZ6OkYvJ8KrxbvK0mAzLVur6pppKZeQX+pc+Nu2cHfKip1AMrh49ia8yLaLspJCpCb6tv9GoBarSR87h42Gzt4HF01erUGtRTChHfeZlpHkRN3x4dd3GxN+IusDH8RsFGelcrMVRmEGtYR4cIP1u2W+GRDR12Fazy67Vue0rtpWw/Q8boCNcHxS9kSvxTqLOStmEnaa3lEbY1r5yhuYzmZouMzl29NZUP5BN7M2kKwPyDnk2zY0GY/CextzltXS4PbD4uSALUPVZYLyGjv6Cqem2vGQvaSVIqCf8f2NRGoJeDoagwLa2/cy1qFFRxOvs5KbZ2KQW1XQXk5rG7fkXP3WcPqyTfnPcC/mYeH3yXtQaUaNeXU2nB0rJCpqa5FdtMjuWwTTjr2I23wakBu6qRrOqgfgXzDqf8GhrhnV1s8Fdz6Chp3qLlCRd0D/GJo50OMzrd4qVH5VfHFP3t2MKcMjyPK9i4b3ynDagfsMtaT+eQdvXHIO0irwXaihPK2T4UiiAmxWkre2kj+mZaJVQsle/Mxu/NAD4ji2dDT7FyfS7nzZWCzlJFvKuvWkDXAP4AGs/nmc1aXkX+oHKsM4INK8kHyUTl6fC7wjWxEt7mhg7/Guxui6QS5opD8MovDiUgSkgQ+fu0eCn81qmozX7QfarqJNFSLxlJCSbthdm1dLZJGi9YfQMbycS4ldW0KaLRo6sopc0YJLfvz+cztnpxE+KQJSPmv83qBMwZsM5N/qPx2XlXtUKLyhwvlX9x4THsttXU+BGifcDh3u5X83Qcdz0Ub5LJcdh614eg0vEuJOoqotm2iv4bH/E5T0u4ZcvdZkw/58GmCxKfrvWjssWt2wZAIogK/YN9+502z5pNb7P5T6LJNOOnQj7SgGMRjQ3woP3q84+ff7xGe+YFMwckODuwGCv8AMJv59ja/D+iMmpOXqBj0fbpaUd65g1eEkbggDMvap9EbDBgXZLu9cqBLlBEsffMltMXLmazXodMbiF+5j9Pt6lAzKYU538vjl2N16PTzr3/EoZ2RzuaYWnbMNaAL1aGfNI9tR6rcfBjVxK3dSqJfHsmxjtn3ibPXs+/r7l2COjqBBNVHxBsMGMbHsrrYucFexfGsVCYbHCsi4t+DF1bNIcyN4Z3no3YGjm/q8E/VA2vWbaY0jOMNGJ7ZQEldBZnTDRjGG0ne7WYsubaC7BXxjtUeP5lMhjWKVxfF3Nh7D3yWpIn1ZE7VYzAYiH+zm6toRr3A4sn1ZE521F9agePnsJnLiLqYweRJ8cTPnM+GSi1Pqdrsp5lAykwVH802MmX6LDKqNTzRjbGppF/M9hVhmNPjMYTq0D+TTO75hu7Z3vUZiJz5Kx47morBYMBgTHVMBiqCmJEyDbLiiX0+nlmzV3FcHYJGceO+yjEh8NZk9KEG5uUPImnDrwhu+26VIpiTEoFlrRGdTkfsJucyFzeftVulZH2so00tz8d2fhfznjZgMM5ip1sfhWlJXLWMxz5JJnbyFOJTCpFGqN0eQblsE0468yMOlEQuSCLoaDIGnQ799J3tPrKTiI0MoPL/nev+tx2Ab3QC31d9xAmDgb+Nj8Vc7Hof96njvaIrjIsazLAuSnkIPXiBQCDojDo+2FzCn348lh0/7j2f4dV//jk/2+fHjtTHGdlFB1I4eIFAIOij9Owkq6WQnbuPU9vhRl9Uo2NINLi3bFDQR7CbyX9rH190EhP3DQhj2vNh9+dXkKK93xlEvfYYogcvEAgEfRShRSMQCAR9FOHgBQKBoI8iHLxAIBD0UYSDFwgEgj6KcPACgUDQRxEOXiAQCPoowsELBAJBH0U4eIFAIOijCAcvEAgEfRTh4AUCgaCPIhy8QCAQ9FGEgxcIBII+inDwAoFA0EcRDl4gEAj6KMLBCwQCQR9FOHiBQCDoowgHLxAIBH0U4eAFAoGgj/KddfDNNg8aqz1ovteGCAQCwR2iSwd/8dQSot98lIc3PMiDm35GRvXdMqtzytNj0f06/zaP4ol57gMc+KnEWWuPmOUWPWN7J5zMIN5owBCuY/TkbZjvzFkEAsF9RBcO/hS7jmzj8NWBxIZvYUdUKsYH75ZZVrKn65ifY7tbJ+xB7pHto5LIMhVgSglDurtndp/iNAzGjZTZ77UhAsF3A69OtzRXUvltPUgGEkMTGNengjnNPJ5Vx+P32gyBQCC4g3Totk17HuXBTdFkXgW+zSR6U7sQTbWJV3LGov3dwzycPobo/bsok1v3v3gsjoc3PMzP9q9n0f8ZxaObHubhLfP547euDSp8NRajcTIZJ2VK0idjNBoxTkwjv22HWDaTvWQKhlAdOuN8trU9uQsuvfIAeT/0c/yF+GJuG6L5ypvDIX7kxUt8PusB/hTiR/6L3nzjZmf8TtuOrZzsFfEYw3XoQg1M+fVOyroxULAUZJA82YBOp0MfPYuNJotzi5ltz+uZMnsWRr2e+FczSHtejy48noxjLfbZKNmRypTxenQ6PYb4NHK/bNnmGLXEv5pB2rx4pkQbME7fSGFLezmzk/nRRoxL8rBWfsTCaCNGo5FZb5W3XlrZTlKfN6AP1aMPNzLl17k3hZlq/vYZY5d8SsZ5969ZIPgu06GDDxmzlR3GFIw+gM84Uow72PH0y44QTVMZr+S+wPpzNQQGJfHiYF+On5zPpLwPuHjDUeopKd/F2UeTWBv1Gi+PDMTXDYMilu/BZMohaZRE2MIcTCYTpr0riVS2lpGPHqZq0lYKik38Tn+azPRc3A2l95vcyJNrGhk4pItCpzyxP92INvwacrE3p/Z7uHXsO2u7lbxl88i8GMX63aWUFmWRqMhm4Zp83PHx8skM5i3JRzV7O0dKSzmwKpjPViWz7cuWEg2oItexJ30C1o+LGPTbAv7v8w3k5h0HwPzOXJLfk5n2+wOUlh5ga7SVjIWvt3mxy1RU+DJtcxYf7s8iUfqI17OcLnp4Ilv2mzCtjUE98FnS95swmUy8PTvIua+Fj9a/jjl8KwVHiynOz2Ll5CBU7S+iTubUpW+pbnSrwgSC7zwdOvgBg37Bc6MNDPMGFIEYRj/Hcz8cx0gf4MIuPvh3PQNGrCH35y+zNm4HyWpfLp7ZyZ/beZpho7bw7vg5JDyZQNL4JIwP9IzRku5ZZoSqQaEmYnwYSouZ027GdaVRTQyeaKdf/y4KBTfxxPNNjHimGU9AtvRcfOqWbb94kNy/qohbmEiwGpA0xCTEoPrrQUrcGAQc/zCXqrFzeMmoRQKUY2bwwhgzBwta+slKNEPUSBoNah8t2iESgzQB2KxWZHs5+3ZX8MT0ZcQFKgElQVOnElF3kIMnr18ZgZExBEkAGkKCAzCf6d5Ub+1FM+aLMkhqgvRBqNtt7zfux3zz9k95+bFuHVYg+M7SeQy+E+ptlVTiy0j/lh75UEb2A/59mbNXgeu9VV8G9B/qVq+92/ipWk8jSdDUw8dXXsMbQOH8d09OCt6q7VYLF5osnF5kJO/6jzKyIgS5DrqeWbVhtdqwlW5gcnRG6891SlRa2bmzhKQAvCR8vcAH8PEC7NBAFVarzPHt8RizWneX7RBxtfXfvn6tRkgt9rkyDQAN01ato3ZrNqkvpGGxawibvJiVCyJucvICgcB9uu3gfR8ayEDqqaw+Sz0j8eUcp2oA+jOwh1fZdCM63evocdvVGtRSCBPeeZtpXXk9hU8HPypRq5Woo9dhWh7WwfauetoyoEWtVhI+dw+bjbe7RqfjmpGGR5K0PpIkwHosg4VzV7MzPILFwbd5OoHgO0z3Yw+Dn+e57/ly8ctFxJle4ZXcGWy21jNgaCLPKF3v7h5KVP5wofyLnnWUsieX9npz7mMFNZcBPKje7825j7241GMTd3fI9gFRPBt6mp3rcyl3Tl7aLGXkm8puiMFLQ7VoLCWUtLuekEkTUB3KIKPY4rBLtmIuyqPQnetWBDEhVkvJWxvJP+O8qmoLJXvzMXdndOOvRlVt5ovK9huslJgKMVc7jq308wWFhE+7d0nNp58xJvWImGQVCNyk+w7eK4yX47aTMqQfFV9kkPGvGkKCXmP3xOcY0GNmSUTO/BWPHU3FYDBgMKaS1xPLyi8r+Gq5NyeWe1N5HrB7ULnBmxPLfTAfdW8i1TV3yHbUxK3dSqJfHsmxOnSheibOXs++r9sVG/UCiyfXkznZsdImrcBpVfBitq4Iw7wp3rGCxzCZ1HePuzVBC6Cdkc7mmFp2zDWgC9WhnzSPbUequvcSC3yWpIn1ZE7VYzAYiH+zZRWNjOWvmcyLHYsuVIfhfx9m0IJ1zAhst78sc84qi0lWgcBNPK5evXrtXhshEAgEgp6nT32+JBAIBIJWuj3JKrgD2M3kv7WPLzpZUeMbEMa058PosSkOgUDwnUCEaAQCgaCPIkI0AoFA0EcRDl4gEAj6KMLBC3o9lqz5GMcb0IeOxri27F6b0wky5e8nExvuWMIa/1YvUOSX80gOndJGb+gOU5CKfmIG5T0tB11XyfwlR8i86LrodYrTMIxfTUkXttR//jlj13zFqT4sXy0c/P3GvdRUb3EYZ+7uaTXxWzAdKmCdsRcLF9QVkbnZTET6EUqPFpM1W3uvLeozlO0/xac/eJyEDj60KU+PRZ9ya0l0fJ98nATO8lt3xJzuU4SDFwh6guoLVNkHoR3ea9Ot3J/UV5JZ1MwvDI/cAV0rP6aGP4Tp0L842+PH7h30PgdfnIZhfDIbNyUzKz4WgyGW5JzW4a5ctpPk6bEY9I4vNWPnbSS/5dP16lxm6WKZNS8WvT6WtPTVzBqvQz9pdas2+W1oqjdXe1B30bODP3dzu3ahqW4rYeMkA/Pft1wvW/hqLIYFuVjALU117IWkhRtJez+btOmxxEYbMUSnkV8NVBeSsXCK87r1GCYns62onVBxdRnZy511o9djnL6afAtgLyMj3ogxdgNFdWZ2/Ifj3LELnba5hYzlkEOPXh+qQz9+Csk7yq5/CWsry3bqwTu2pWaVuf2V7U3DcXs+yaGxZFTgRptwoWXv8rIKWT3RiHF6JhV1JWyY6qib+VltQjQnN2LUJ7Nz70ZmTY7FaDRgbLmvdgv562ddD+3EztvoqHPcsd0tA6kq3sisaEebm7Ii74Z7Jp/JY+PsWPShOnThscx/o7BVvtpVm6krJzvFkdtAHz2LjcXt71hXOQQc23MX6JiyKZedKfGO9jo+lo1HW0vU//O/+bPiYQzt5L2te1OJNRqZ954ZW8EqR+6F6Ck37Au1lG13hs30N/qRFvqNeoSQ85cw3cXUnXeT3ufgAazHqRq9jLez9mBaH0b5pozWpBl2FSEJ68g55NBET1IfJHVFdptGKxG86EOy4iXyTBJJe/eQ5L+P3GKZ29NU98DyygN8Eul781+MDxY3Rnldaqorw1i8PpGarSlsq5CxmlaxujiEla/GoQE3NNWvVx4H91iIfG0Pe/abMO2YQ4gf0AABY3/F1j1HKD1awPap8G7KqjYyChayU+aSWTuBzXtKKS0uIGtBCD52QBFMUpYJ056XCPfTMuMPjnPvSXfa5gby0Y3MXFZEwLwsCo6WUvzxSiY86txYV8iGRRlYf76VA0dLOZARhfWNhWwo6qmhc1dtArrUsnd56AiW7jVhemcOgX5hvJTjqJst8e1CNHVF5JYGsTJrDyZTAVkpYagA8zsppBZoSMoppbQ4x9Gel+x0sz27gd1MYZmWpTnFHHlvDirTBna2OEFbIavnruKzwMXkFJVSmrMYzaFU0nKc3q7LNiNT9kYyG8+Fk36olOJ3XoSjhTc8R65zCDjL7c2nIf5N9uw3UbB3K9PaVN2581eoGfAQgYob91FPXMcek4mtU7UoDcscuRf2f8ji0DaFrIUc95pDVsER9qRoOd7Wj7TQ7yEC/a5Qds69Ltr9Ru908KoIYiId8VYpOIQguwWzU6BKGhNH4vgg1H6ApCFyUgRqc3mrprpCw2NDJDRDA0CjReOnQTNAospqvU1N9Ws8MrsB3esd/G1u4hFXI3N3NNVHJLJ+YQDvLvol89aaiVm7lAj/7ldfWPwcIpzhammABrUEDIhg2vMRaP0d0sDaiRMIw8zpltHPmTxyj2lJTJlGkD+AhDo0hoiuEqO4jUxRzj7kyF+xeLzGIR+sDCLSGOz4/9J8DjZEkPBCEEpAOSqBaeEyhYdKeuLkXbcJoCe07F3iFci02TFonO1EPUSDEguFn1SgnTKHyAEOOyNnPov25EEOtnh4l7a7QkNUfBxaP5BGRBE+wob5jGNfW1EueU0TSEqOcNg1IILESVpKDjkddVdtxl7BwQIrYVNnEKwE1GEkTm2TD9itHAIOlIYEEoKdn/H5adC0mWqptzWBtzf9ulHV1/GLIO6FIJQKCY0xipA2fqQVb/r52rks982Z1t75JauP1NpQvCRApt5Z//L5fDLTd5B/wkJtE2C3YZUjb9hd8sIhm+vl1CJ36prfnqY6eA9o5qGOPif1curHd4l7muoa4zQi3phFnnYpm4NvJZ6rZtDADoysKyc3/XWyi05TJcuAjK1OxbSWr2erqqhSDGLQwFs4pUtsVFkbCAgd1GEVy5etNCi1BFxvjRIBA1TYztvc1JN3Tadtwsmta9m7ic8gAtrXrb2W2moI6N8md5VaTQA2ai8Dfu7Z3iUKFarWBASOYznvea21CvlyCWkTC9vYJKMcUkstoOyyzdRQa/NBrW5ta2q1mlaxavfaO0CAJqDTevZVesH5Rmqg+zF4PxXKljYl3ehHWmmkpl5Bf0nRfkOfoHc6+E6xkL0klaLg37F9TYSjZ3p0NYaFte7t7q6meod4YFnly+eHOtgk2Xny/8kM7tIbBLihqW6jcH0ahUGJxFRmkpYVxtvth/qAS7X5Dtpq+dZUNpRP4M2sLQT7A3I+yYYNbcwLIMD+BRcqwe24i9soCVD7UGW5gIz2podZ6q/Gx1ZFVRMEKQBkqqy1+PgrbygrKUBuqr/58AoJ7G3qpK6Whl7YIbtJqV+hQqWCqsu1XM+UY7VShZLQrjKO9RAqdQDK4ePYmvMiHbWyrttMACplAxdsra9BW62Nhut7u9PeXTN0yEP0+8sVKuwwoCMffLt+ueYKFXUP8IuhvTOYcbvcX1dlr6W2zocA7RMO5263kr/7IFZ3H2Y3NdU75hoPz25At7mDv41uhGjc0FS37F5O2tEwVr66mJVrE6l/K5WM9gHLTjXVu6a2rhZJo0XrDyBj+TiXkro2BYbHEBdsZuf6bGfdyFiP5d+oF++lRuVXxRf/7K7+sUT4pAlI+a/zeoFTj95mJv9QueP/QyKJUBSy691ybIDtZDbZBRJRhhuTkwzSarCdKKG8/ftNo0VTV06ZM6pi2Z/PZz2d5euOoCEiMhBzbib5F3G05+0fYQ6MIqLHX7I3owyPI8r2LhvfKXM8Q3YZ68l88o46QjhdthlFEFEGDcdNeY5JWbuFfXtLWrsePZRDwPcH3+fn9m8o6CQHQIB/AA1mc/fyErSh5uQlKgZ9n968Avd2uL8cvCKIGSnTICue2OfjmTV7FcfVIWjcfou7qaneCX6jE7rdgAAAFwxJREFUmhg4voM/g92toXxXmupyxTZSXrMwoSXu7ozH56asJr9tuLVTTfWuCZu5jKiLGUyeFE/8zPlsqNTy1A1ZrTVM2/QmiX77HHWjNxC/uQRb27pVhJG4IAzL2qfRGwwYF2S7vYpG0i9m+4owzOkOPXr9M8nknnf295QRLEufg/rP83hap+PppDzU89J5yXBjrWompTDne3n8cqwOnX4+uS0rSTQTSJmp4qPZRqZMn0VGtYYn7pOxqXb6etaFW9gwWYdOP5ENlVGsW5vYYY+6x1FGsPTNl9AWL2ey3nnPV+7jtNOJu2ozwQvWMUfKZubEKcRPT6NcHXiDIF6P5BDwHciccE/+WHCJDsZuqKMTSFB9RLzBgGF8LKuLu3PwOt4rusK4qMEM685u9xFCbEwgEPRu6iqZ/6qZ4OSxzOm5rELUf/45P9vnx47UxxnZN0PwwsELBAJBX+U+GcgKei19WcveUsjO3cfpeArfF9XoGBINdyFY3hF9ud4FPYbowQsEAkEf5f6aZBUIBAKB2/ReB99cT823NdQ0uC7a55A9aKz2oLkXruUWCAT3D73XwZ9ZxFNvPMrYTw53uPniqSVEv/koD294kAc3/YwMt8WXej/Vv/flQMQDlHb0UZWgd3PMh/wf+nHgv7zcEqC7a1r3t6KpfsdppiznMD97v7rDJZCC26f3OvguOcWuI9s4fHUgseFb2BGVivHBe23Td4BuOq/rnF3EqA0P8uAb8zE5R2SH/6zlwU1x7Lra9a59nbuldd+Vpvq9w5Ngo5ahR8rZdddfPDWU/G0GY//wMA9vGcXY/Rlu6FHdf/ReB//YFswvXeWkcdzN25orqfy2HiQDiaEJPPekkZE3fQd+/+K/6Fti/lHHj56+15b0MN9+zK6KmnttxXePO6qpfpsoNUwddYXMv3RvCN58m8645p/JTPvsIlMnmPlmxrtM/fa3zCww0ddaZ+9bJlmTSfQfFnHY2UUc9uT+G5y8ac+jxJ1quQ2ZRG/KBM8w1s78C0kulRetZE83sm9EAo99XUL5OQu16gksTV/sVG20kL92NZkFn2GubsDHP5CI+BSWTQ9GCZStNbLwxGMEVH5GlfZZ4vwLyS6o5YkF23l7uuPbQ0tBBhveyKXojA2fASE8u3Ali43uLaVr3i/xp9TWLy4e2XSjk2886c2JNV5UnvKgWXENaUgzw16VeTzQ9bHl933JX+XJQ9FNSCe8+ObiNVTPNxL6UpPzK1wPqt/34cR2BbUXwXu4ncELGwkyNIPNm0/DvfmmZU5grw9/2usDimZGf1LPUDcVL/v5gOkf73H2yTk3bas5m0Hy4UxM1kp4IBjjUy+zWT+OfsDFY3E8cegwI0ckMPDSexy+6kvw6K1kRxlxdEhrKPn7El75+8eUXJXppwzjmdC1rAkJdsuhVb8rUf6eJ1e+9qCRa/iNsqNd3sjQx6+BXcHnRol/NTTz6Dio+pMn9gF2Rm6S0QY66u1SusTJ9z2p92tm8DM9vSjNRsmOVWz8v4WYL4MyMIqkFUuJGyHhuj07aNFU39FeGVTOIzk8Eyk+DFvpcU6fr0JleInNK2IcckTVhWSseJ28Y2assg/KIWG8sHAZL4arHVr1kTshFL44DlFTw7DsyeULVRzrtreooHZlewuejHvSn8o/VlL2nD/Bbn1w5IHlv3z5ymbn0WfsDBtvd2iJuU0Npn+aYPgOXhzYDwjmxTHPsNn0HgWykV+0Odbh7MP85z8fYeuyIMLuw4+hel8P/kEjqT/fwY4x4zqUCA0Zs5UdxhSMPoDPOFKMO9jx9MvdCNF0pf0tgyaSZW8doPRoKQdeG4d160Iy2mhvywPj2P7xMkJOZFMRup2C9Agu7N5HuR3kkxnMW5KPavZ2jpSWcmBVMJ+tSnY7J6ZnSBNPrmngcUNHTsIT86vefP3VNTS/aeCpZU0MDga7mzprLVw57oF6biMDB3hQm+XF2a+c17XXh7+tUnDFz87QGU08dFmBOVmi/CTgZ0e7poEn/6MZb8BzTBOj1zTw5JpGHlZ1dba2+BIyciojK3fxQWW7iOu/M5n2xyV8UDOAZ8Yk8cyDFXzw12lMO3q2TaF6yiqrMehf5nnlRUo+f4Vdlxxbzh6fwaRPdlHx4FReDn+ZZx6sIPPgCyw65U5/zIMrpZ4QbEf7mwZGJzZjL/PixMteXGlbrNqTKyo7Qf+rGcV5BafecoSpGg/5cPwPntRJzQwcf43qDxTd+xTfBa411V1r2XemqQ6A3Ux5XSTr3vkQ0+5laAra6MW7zCHQtVa9u3rwvo8+xDBrDcfrcJNr+BvtqGQF5lSJ/J8+wKervPn6pJuJd5rPUn5ZJvDhkdScy+CVvx2m5nvBBDaf4tQNz1Mz9TV1nLpYz2V3Tetl9D4H7zWMcaOe47lhwzrsfQ0Y9AueG21gmDegCMQw+jme++G4boRoutL+1hI5PY7gIY7PQ5Sj4ogZbeOLL1vFYAKGaFD6adGq1Wi0aiSNFnWtlSrg+Ie5VI2dw0tGh2KicswMXhhj5mCBm9rij9oZPLGJR4Z3sl0G7B7I34DXCDsjlsmMDO2kbCc8FNfI4xMbGfaTa2D3oO4CgCeWjxU0KprRviYzemEDP1pix9vugWW3AhTNPBLdxODwZjwBhaaZwRObGBxt56Fu9Gp81c+TMPAUu8pKbphUO3VyF4cbfDFGZLPlpy+zJW4tRq8aDv/jA0617k3wqN+Q9MM5JAwdBs2VnLUBnGVP2WFqPMOYG/UyCcEJvDwugWDPs3x8ssCNybtraF6tZ+yrDTw+qYnBCU1ohgOnPKlt64j87DyW1MjgeDsqBTRXelAPVBd70gg8skjmqSUyof+7ueceKrc01V1r2Xetqa4hItb5QZR/CGFDWvXiXeYQ6Eqrvht68Eje+NJIvdsOHh56ugHdrm8x5ss8NduO4oQXn019gPwpPq0jzU6pp74RfL0f4Oz5nWSeKuCshy++1FN9w8vHE+Pc/4+rW57CeB/23qE3hmjuAp1rf9soy9pAxu4STjvvtHxZZlAbJyopHLrSeDnka1Hg1Oa2YbXasJVuYHJ0RusOdUpU2p7o0zUzbEkjtWu9uPSGD5feAM9H7Yx4rYHHR7kfFvB+wPFfTy8AZ4/H7oFcBXhdQ+nMsuQ9pBlJoeCK1VGmR5yW5zCmPmnklcM7MQ1q/bnSVgkMZFh/5wzgg8MYJgHfVlLZDC3Kuf1bxuGeElANzUDzRf77aj00l/DK/3mUV9qczvfqOSqhayEpuyeV6T6c+pMndW3DwBLY7bQ+IdI1vLxoFYi3O07fVO0BXOOBoY57IA1vxhvP7k1Cd4p7muqutOy71FRXqFC17Ry10Yt3mUOArrTq3deDR26kHm98/VzVx814qptRBXpiM1/jyhkP6i560NiECxlhX3y9ob7xW8LCj/F1OFCTST2++PehuTz4jjr4zpCLNrDwLStz3srh7RFKwEr2bCO5bg26lajVStTR6zAtD3Nd/BaQQhv50e5Gmq2eWA94c3K9gi/fVDD09SY3Eo50geIaUgBw3gPb18BwaDzviWwHSX3tJud+O8vz+41M4JmiF3jvXOtvA5UDgVOcvXwRGABXz3JWBlQDcZl/xLM/33/QF74NJmXCy7QVoPT1DXS5f/Mhb8re9aR5uJ2gl5vop/Tk/HJvvv4Gty7Uy/8a4IFc5XD0jVYPGum+THnHWvd3SVO9E1zmEOgS922v//oKZ7/Xz5Fa0k3kk16c3a2g8oCCK9UghdoZvERm8NN2/FxVlecwgvpL7PrmHPU4IgX1/y6jwnMkc24pdVTvpdeFaC5e+CMffP4Bu86edQyB/13Ars8/4IPysjs/w22rRVZqecIZopFP5rKvfcCwC0ImTUB1KIOMYqfmuWzFXJR3o6Z6p3hQe8iLcx97U+mM2dcf9ebcx17865gn4Mm55RKfZ3pjOeaJ3GJWj/Q4mhk40Y633RPzIokT6T78ba2CRsU1NLFtvJz/NSQFNJcqOPW+N+f2KrjS3cGJj5GEkUOpaWh1ZiODpjLOqx5T4TTmH36F+bmvYGrqx7hRv2CkyxY6kthRYfRrLuODv/+RkksVVPx3CX8+to51Zy67nmR1OjzPgGb8R1/D2+rJ5W4s2fPXO+YlLr3ljXmvNyfeUtxS771Drfu7pKneGS5zCHSF27Y3c/jzGgaGDHRzghXAg0tv+WAu8uCh5xr5selbIt+WGfmMHT+3XhL9MP7ACGfS2XapHuQyth37Mw8Mn0o7hWoOZx9mTNqJ1oTu9xm9rgdfceI/mfGPNk/YhfXMvwAok/jLyGDC7uArSRqfxEvFy0mZNAX1QBW+A8J4IlDiuLv7By9m64oMNmyKx3DeRoNCiTYkisQlMa53tntgecMH81etP9W+782J98EzugHNGDuSvwfVuV5YLnrQ7HUNP10ToxfcZu/did8zDfyozrGK5twOxyqaocsaGflkm0LDmxgRr6B8rwLzKkdsfvRP7DzUzc5lWHAiYceXcD3jqjqJHc/U85uCXXz89wx4IJjn9C/z2x+PdOt4w/5HNrubl/DK5x+zrqgGvPox9HvjmPqI67RInoZGgp/34Iv93hyJ8cLvR808MADqvnHvWrzHN/DkDIkT73tx6rVmBj5tR/qq+05eMymFOcUp/HLsLvAJY+n+LcT5OzXV2UDGXAOp1Q34+Gl4Qj+NxdHdOLjvQOaEn2JGwSVSh7u/VDJs5jKilmcwedIO1P6+BAQH8ZTqtNundct2m4X3KvyYk9qd5MPXeCSlHuOjtz7f0e8Hm8muSeY/92h5pcGXkcOS2R5hbDdP4Zxktaru20lWITYmEHwXuEOa6rdHM2U5RcyzP8lfnvfvfWv0+wDCwQsEAkEfpdfF4AUCgUDQMwgHLxAIBH0U4eAFAoGgjyIcvEAgEPRRhIMXCASCPopw8D3IXUveIOjFWNj5vI75e2/+Aqz+nycYm1ZOWa/6aOYKmWs+YdHxxnttiOAOIBx8D3K3kjcI7keusCunkpHRj3fji827wUMkTOhPQc5XvezFI+gJhIMXCO4Gp8+SefFhpup64rvjnsV31DB+0Wgh8x89I5Em6D30OqmCe47dSsn2VWTklFBRDcoBTxCXspmkcIc+ja0sm1VrMik8YwOlloiZy1gW70gI4ory9Fh+eT6J0k2Rjh+OrsawBNYdWEpYQSr6TRd4SrLwmRzCtPEN5OWUwNiVbN8Ug8bN5A6dUpyGYVktE6Kh/JiZ0xYIWbCZzZMdiUpuO7mDrZzsTavYeagCq6xEG57IshWJBLdUjLWEjBWryS21IOODSjuBpNeWEuPOV5Vd2QZQkIr+VSsROrhgqcVW60PYvPUsjXYkWilbb2TuiRCipAucrrVhI4hpr6xkWqBTY6Er210lxQCsBRtJXf8Rx60SWsMEtB0kii/7exWVj49kXDv/Xp4eyy9PRDDHv5zDX17AIj/GC2t/x4vBTl3Isp2kbsrl+JcWbHYlGt0EkpYsJnIIcMhVmwH5TB6vr8nkozILDZKGsOcXs3JBBDeMMRX9MATC/FIrhDzixg0R3C+IHnw7yt+aR/JuiRfeOEDp0WJMv0/gMckZT60rZMOiDKw/38qBo6UcyIjC+sZCNhT1UIoH+xMkZOWQNLCI7Itx5OxfSdDRXAqvS/O4Tu7QJdbjVI1exttZezCtD6N8Uwb5Lckbbiu5g5W8ZfPIvBjF+t2llBZlkajIZuGafFp2L9uVRrZ9GlkFpRQXF5D1X5Fo3RVKc2kbcPE0GNaRlfUhH742ji/WprCzjbiW7UsrQcuzyHp/D1un2MhYkkm5Hbds7zIpxsVc0pbsQzkvhyNHTazTmSm8KcFLI8fP1zNM81CHn+PLJ8woF7xN1m4T22OryEzP5XoGAruKkIR15Bxy2JakPkjqimws17d30WZshayeu4rPAheTU1RKac5iNIdSScuxtrPAk8DBflReqOWsm7dEcH8gHHxb7GXk7jbz1LxlxIxwdD2lIRHEhDr7O6X5HGyIIOGFIJSAclQC08JlCg+VdH7M7jBAy2N+ajQaJYO0WpSqQQzqX0XVdZ1y18kdukQVQUyk41qk4BCC7BbMlS3nvo3kDhcPkvtXFXELEwlWA5KGmIQYVH89eD2RsQ8SDf+2UH7eioyEelQYQe7qS7myDcA/jJjxzmsbEcOE4RUcLGp1ZJIuhgnOlHWa6BjCLPkc/BK3bO8qKYbtSD4l/hOYEa1BQkI7OYEJN41KGqmpg/4PdDxglnSR123TBgehtJg57YyHS2PiSBwfhNrPYVvkpAjU5vLr27tqM7aiXPKaJpCUHIFGctRj4iQtJYcKsbWzwVfyhLpGakQcvk8hQjRtaaqiqlqJRtNxwEW+bKVBqSXgeq1JBAxQYTtvuyHBwi3jPK6kAB8FgA8+XtDQ5qFzldyhS3yk1nJejsQl9S3Hvp3kDlYLF5osnF5kJO96aRlZEYJc5zAu6MV1LLVnsmPRRFIvSmgNiSxb3iaE0xVu2IZfAP2u3xcVKhXYrFXgDEb4KNWtYTRJiUqqxVoN2F3Y7keXSTFqL9eAWo26ZeJUEUCAmtYetuNH+vnB5W+b6BBJ1WqbQmpNuAHI5/PJTN9B/gkLtU2A3YZVjrzRFjpuM7XWKuTLJaRNLGwtb5dRDqmlFm4IK9bLzeDnTb9eNQEsuF2Eg2+LVwAB/jYsFhuMudnzSP3V+NiqqGqCIAWATJW1Fh9/5Q0OtuPkDc4MUE1tHHJdLbLd7aSmd5TbSu6g1qCWQpjwzttM62wBkTKIuJTNxKWAfLGQjXP/k/U5UWTNaJOQ3OrJN+c9wL+Zh4e3auC5ZVvtBapkHA6ZWqqqQBnaWrcNVgtWnO6+1opVVhHoD/i7sN1F9E3Vvx/Yaqm1g0YB2G3Utu8eIxEyxJezlivUo+qGaqKF7CWpFAX/ju1rIlBLOOZtFrqXiFelDkA5fBxbc15E66Jsxb/q6DdI5TrBiuC+QoRo2qIIJm6ilpJtq8j70vGUypYS8o85h/ohkUQoCtn1bjk2wHYym+wCiSjDjRmcOkzeAARotfh8eZwKGcBK/v6Sm4bK94rbSu4wIIpnQ0+zc30u5c5wks1SRr6p7Pr1WYryKDnv+Jfk0w9JceNoBEA+5MOnCRKfrvei7apst2yzFZGd5bgv1oKd5J4JJCq89eUhH8tl51EbYKMsK5uSARGMG+Ge7V2hHBtJmDWfvBOOm207uo+DlpvLBf+PAAZ+dZHD3Vlubq+lts6HAO0TDudut5K/+yBWN8MoyvA4omzvsvGdMsc+dhnryXzyjraLwdurKaiAn+vUQrK3jyF68O0ImreV33mt4vW5T5Nma11FEwmgjGBZ+hxWrZnH02/YoL+WiHnpvNQuDUxnyRuU4+eQZEplYewUNBoNT40KaR3a32NuL7mDmri1W5E3bSQ5drVjpYtaS8iUFFpefbVnDrJx1SrM1Q34SGqeGL+Upc+4972AW7ZpwgmyrGKivgKbXyAxy9eT2CZ5uTI0BN6cjH6BFWlIJIs3/Mq5Ht217V0yII6Vr5pJXTGFKT5KfAY+xmOaDso9pmXOgCO8V9qI8cduLpVUBDEjZRqp6+OJ/VBNwIMBBI0KcYwU3EEZwdI3X+L19cuZ/IYFGz6oh4cRMy/khmL1J8/yR28NO34o+nt9DaEHL7j/KUhFvz6AN/cu7vAjorL1RuZWL6V4bcTdt60N9f88wc+yFWxdFtSLPna6Qua6v1Fm/AlbQnrfGn3B7SF68ALBXcL3B6M58vK9tqI9DzEn9af32gjBHUI4+L6ApZCdu4/T8dSbL6rRMSQaOoobCASCvowI0QgEAkEfRcyqCAQCQR9FOHiBQCDoowgHLxAIBH0U4eAFAoGgj/L/A2XSLxM82KErAAAAAElFTkSuQmCC;imageBorder=default;fillColor=#FFE45E;strokeColor=#FF6392;fontColor=#5AA9E6;rounded=1;" parent="1" vertex="1">
          <mxGeometry x="213.63" y="190" width="376" height="106" as="geometry" />
        </mxCell>
        <mxCell id="1IcF2C1W_d4IgtXrjlez-14" style="edgeStyle=orthogonalEdgeStyle;rounded=1;orthogonalLoop=1;jettySize=auto;html=1;exitX=1;exitY=0.75;exitDx=0;exitDy=0;entryX=0.75;entryY=0;entryDx=0;entryDy=0;labelBackgroundColor=none;strokeColor=#FF6392;fontColor=default;" parent="1" source="1IcF2C1W_d4IgtXrjlez-5" target="1IcF2C1W_d4IgtXrjlez-8" edge="1">
          <mxGeometry relative="1" as="geometry">
            <Array as="points">
              <mxPoint x="735" y="577" />
              <mxPoint x="735" y="660" />
              <mxPoint x="648" y="660" />
            </Array>
          </mxGeometry>
        </mxCell>
        <mxCell id="1IcF2C1W_d4IgtXrjlez-5" value="" style="shape=image;verticalLabelPosition=bottom;labelBackgroundColor=none;verticalAlign=top;aspect=fixed;imageAspect=0;image=data:image/png,iVBORw0KGgoAAAANSUhEUgAAAhwAAAEuCAYAAADFpMtHAAAABHNCSVQICAgIfAhkiAAAABl0RVh0U29mdHdhcmUAZ25vbWUtc2NyZWVuc2hvdO8Dvz4AAAAtdEVYdENyZWF0aW9uIFRpbWUARnJpIDI0IE1hciAyMDIzIDAzOjU2OjA5IFBNIEVTVKF+WsMAACAASURBVHic7L19eFNVuod9TxsSIISQfhCmaYukig2KBSpgcYrl5aMeQdQKA05HUJhB4DjAe1Q4jo6DDuhR9IygI8IoIg6DKFbF4rFQXipVaqkoQSUFbIS06TRt2pCmm3aHpPP+kZR+0I+0UB3HdV9Xrwuys9d69rOevdZvPWvtnZ9JkvRPBAKBQCAQCHqRsB/aAIFAIBAIBP/+CMEhEAgEAoGg1xGCQyAQCAQCQa8jBIdAIBAIBIJeRwgOgUAgEAgEvU4XgsPDnpXppE1OIzkpmVX7vx+jQsWyfibJD+RetvLMz6ST9oeDbT61s3VOMks/kC9bPb3Bv6Ltni82s/SWFJLHJZNyfxbO76NSfy4rxqXz7DffR2WdcK6CpQ8fYpPjchX4r30v/svjLuXeVUW8VfNDGyIQ/HTpQnBomP5MDnl7NzI/Xvn9WPQvx0DGL3iEuUmqHpzrZMe8ZJbu8lx2q0Ljh7TdSfbGTbjv2M6Rw0coeDGDqB6W9GPE/OEJPht+JfP1l6tEcS9eEto4Vow9x/+8X0nDD22LQPATRSypdIkGU3oGE+N/aDt6wg9ou7+KqgolsVcZf4DKf2AaKtiU38htaYPp+0PbIrhAUqqBQUVWdrt/aEsEgp8mlyw4rLtWsfCONFLGJZOcms7C1VlYzwUPyntYMW42m081fdvJjgXJLNzubHF8JqvWr2XpvNmkp6Uxe/Ue7C0rcJnZ8YdM0lOTSU5JIX3eWnJbfkG2suPh2aSNSyY5fSmbzaEvH8jf7eGxzDRSxqWQlvkY+9qkvwufm016ehopyR0sS/idFP51BZnpKSSPSyHt1oVsyA9kBA7+aSbp6bPY8I1M4fpZpKenk37rY+R6AP/PkB1hnLvo72fI5y6uplds78SvndreJU6yVs4k/ZYl7LB5yF2dTnp6OjNX7mmxpOIh6/5kZj+XxdaVmcy8JZ20yTN59nDwqHkHq+YEYipl8mxWbTcTqNrK5jkpzP7tQtJTUsj80wYem5NCcmomG75ov92deWuZPTmTzV94LtRd+NoqZk9OITk54LusU8FzT21m9riF7GjpS/tWMsdlstXWZNvWoG0ppKSmM/uBLKxt6mw4+Q8+Co8krT2h11k8++3kPrOQmanJJI9LYeaSZ1vHeqcEMlILdzZ72friTJIf2IMMmJ9KJy1zKbMnp5D222fZsHImKePSWLgtaH0o92InWNbPJPm3z7J55UIy70gn7ZbW96Js3sqKeTNJS0kmeVxa4NqCPmX/KlJuyWTpHWmk3LKCDc8tJT0lmfQHmuuXv9vDs7+dGexnZrL0xYMt4knG+u5jZKankJKSQsrkmSx9zXyxkVGDuVnr4r1vzofqVIFAcBm5ZMEhq0xkrN5FXsERjrz7BKav17JiiyX0AvxWLOem8PS2t8l591EMeevYerjpoJ0dKxezqXYGz+8+wpGCPLbfPwqlv0X9hz+m6o6N5BXk8OeUEjatD3WvgJXX//sxjiY+wQcFBXywMpYv8+20HLbGP/A2OTnbue/K9kuw/HUJK95V8asX93LkcAE5f5lPgipQwsQ/7CYnZxfLrlExfvkucnJyyPngCaZogOI+HErvy4Epbf/6ceiv4d+D7Z37tVPbuySKjGd2k/PhRu6K1zBldQ45OTnsfmb6RUsq1g9y8Wa+zO4Pc8j7YCN3GYFzB1n3Xxtw3ryRvYePsHfDVJwvLmddftPVeRk45Wl2r5+B8718Yv8nj7/N8ZK152jrwn0y9g9XseApO9P/soVFYwLGW7ctZsWbMnf9ZS9Hjuxl4y1ONix/AbMMXDWd6YlHyc5pHmatH+6hOGkGM+IDfnvnmRewpm4k73ABBbnbeWKWiYFtruuMrQ63fgCJFzVl5363blvJqjwDy3Yd4UjBLpZF7WPVw1tDHvS7Qh6SwZb3HmXU1zsoHreFvPUTKXs3G0vT/dTpvRhC+V9b0dz/KtvfzWHLzKrW96J/IKPmP82u/Uc4kr89cG2rdzRfm38E87fvYtmQfHY4Mtj14ROYDmdx0AF4DrJ28Rq+THyQXflHOLLrQQz7V/HYrmDprj08+9RRRqzeS0FBAQW7nmd+UjsLeOEDuDoGis/U9cR9AoHgErlkwWG69R6mJ0WhCgeixpMxxYi92EroeQYDE2eORwOgG8X4eA/W74IdyXd7yPrCyD0r78KkA1ARNW56qyUCVfKd3DsuCsKjmDh5PBq7lRL/xbVchO0gH3+bSMb8iUSFgyZpPvemdmOvg99M1rtWRi95lOlXBQYzVfxEpo8LYadCvI/rnveS/MLFf9fNbOx920Pw6/eBJm0+85OCKqa/AUMUcCSXfd6JzP+VCQ2guWY+d6XKHNxf2HQWhvgoVAYDUUojxngVsYZoPE5nc8z5ZazvrmLBaisz1v+ZexKDvvFbyH63mBHzHiUjUQNoMM2dy8Rz+9j3DYCBGTPHY92zJ5i1sJKdU8b4mTNaiaVahxWrQwZVFKYU00VCqsHjgz590La94E79bufggWKMs+9jih4INzBlwZ0Yv9nHvsukOKLjDWj6GzFGRWEwRqEyGImqdVJ14Rud3IshoEqeEhRmYEwytboXVWMyuGeyiaj+gMrAlDsmEmW1NN+reiMJ/aMwGDTEGo1oBsYSO6iKKhd48rPY45vBshUTMagA/UTuucNI4f6DwcyXCqilymrF7gF0RsaPMbRjYRh9VeGcPScyHALBD4HiUgtw5m9m3WvZHD1TG+jwzzlhlIyXQDfQJeEDGdhyD5wC8AX/XVVFVXgssUM6Ob//QC5MvFWq5nO7wuPEiZboC6OFimh9FKpQ90j6qqhyaTAYQpr2t6b/P+lnbGzXP2G6EH7a5lJtD8Wv3wPRhuiLfCCfdeLVGIm+EJkqovUD8dg8QUGhCohbhYq+ClACSgXgp0XMOSk84mW8oYx9OcXMT0wKfl6F0ylzdEsm6dtb1OmHiVLg31Hp0xm/fhPZxYtY5s8i1zGRZWlNbWzgrjVPU7txB6t+9Rh2v4Hxsx7kifsnthIdfTUKsJ3HDa33cHTmd38ttS6IHtQiXxIVRTQeas8C7Y2f3UQVrgJkUBDwYTjQUpx3di+GVEGLezG89b0o23LZtP41cr+2U+sD/B6c8pTWdRGwSxkOoESpAK8fap1VyGcLeezWFk9h+WU08bXUAhrddB55zs6mv69hwYtWaqNGcef9T/BgelunNdIg+xkUFUoWUSAQXG5CFxwKL7JPppWMcO3hsZXvoPnDFnbfYkAFWF+ezewLy6eBDq7hQqcmI0vdsC46mmj/ccoquCwdbis0UURhodYD9A/Y5nbVIofqEUU00ToPdrsHxnQuOi7K9hT3oTBTwbl2MjH9fyMzaXkXKZpLtb0bfu04U/Uzzn0TRr0M/RL99O8fYt1doBoUhdJTRZUPTOEBC6qctSh1mi4EbEtLDdz1+Es8qNlK5ryVrB2ziydSNUA0UVEaUhfv5vn0DkrTTCEjbR1rdxcy3r+P2smPkNqieVXDprDsmSksA5xfbGD54rVsTZ3Ig0nN3xkaPwDt/1dHsR/0Lce2zvwePpCBA6HqbC00DdtOJ1VoGDeozXfbuxfhIoHgOfev8ii3nR0PryI/6c9seXIiUSrg8FrSlteGdPbAqGg0w25i465FdLQF2ZC6iCdSFwEeLNtXsWDNBsalPc3Eli7y13GiHBKT2y6CCQSC74PQllTCY0mIV2I5fJRWk2hvLbI/igRTQGzgKmRHjqW561cYMBqqMJsDaVm5eA/7vu1GJzhsOhlJVrY+swOLC0DG+UUuB21dnRgC8ROZmnic7A+Dm+acuWQVdOMR0PAkMm41Urh5DXtOBc6T7YXkftEyBa1hoA7KLMdbD9zxPq55zkvy8xf/XRPKksql2h6SXzuwvQl/GN8uV/HZfCXWb0OvuktGTWFi+EFe/7sFD+D5Zgc78lRMTRsfehnhBMbiq+7hmQcS2Lf6D+xxAOEmZsw0UvjXZ8n9LnhVLjuFH+RivaDxVEy8Yyp8uJa1OTB15sQWw7qTwpyDWF2BczX9+0K4CmWbcb/v8J9zs7+avLZx2qnfDUyckog1axO5DsDvJHfLO1gTpzKxpTjp6F4kCmO8hhJz8HNPIdn5l2v3xyXir6X2nJJo44iA2PA7yX13H85Qlj4BTWoGUz1/59lt5sA5fhnnN7nsOdy0h8NM7n4LThlAyUCVEpVyIKq2AtxZSZ5bx+3X9LlslyYQCEInxD0cGqbcvwzT4RWkJSeTMm9rYI1bn8GD90ez7z9nMnveQhb+YQ+aa03NHXS4iV8tv5OGzbOYOWch/+/2BhKu7M47IQzc9dzL3NM/mxUzk0lOSSPz+UI8lyUjauSeNY+ScGAFM2fNJnPlQVRXRTXbbs9ixS1ppE3OZFOxTOEzgZcupa/OvTAAm5Zs5M/TZbYunkbyuBTSF2/muNTy+lRMWfA7Eg6vIi0tjbT0VezxAJpGBk/2MaSdv8HDQlhSuWTbQ/FrB7b3NpqJPLr+PqI+WsK05GSmLdtD1JL1PJTWk3eJgGHWEzyafJQ1j+7A6gfjvet5fnotry1OC7yQ7I4lbD5U1VpUJWUwXWPFqplORlLLAzL2TzaxZOYEksclk/afHxN7/9Pcm9im0r5DuC81jPfz2r7zoXO/G+c9w9OpdtbNSiY55VbWVUzl6afuaTOr7+BeBMYveIiJ1jXcekcmCx/ORWP6F3kkOdzEvSvvgu2ZzJyTycLfruFo1CgMod7Hmok88vJDGAv+wKyUoN+eyKak6YkufxVHt69iVlrgCZjMN+FXa+5jfJvyzfl2KsYamXnR5hqBQPB98DNJkkIZ4QSCnxBOsn6bzo7kt3l7cQ8H7XMVLP2TlaQVE7jvsr38S9Bj3KXc+2QF/7FqLL+M+KGNEQh+mgjBIRC0QTY/y+zFFu7a9Sp3Xe69QwKBQPAT5ZKfUvnXRMby7uvss3fwEmNFLFPnZWC6TBsdBf8uWNk6L5MXTkWTuuJ5MoTYAMB5eAdZh6s6eCV4X0ZMX8SUYd+zUQKB4EeHyHAIBAKBQCDodcRvqQgEAoFAIOh1hOAQCAQCgUDQ6wjBIRAIBAKBoNcRgkMgEAgEAkGvIwSHQCAQCASCXkcIDoFAIBAIBL2OEBwCgUAgEAh6HSE4BAKBQCAQ9DpCcAgEAoFAIOh1hOAQCAQCgUDQ6wjBIRAIBAKBoNcRgkMgEAgEAkGvIwSHQCAQCASCXkcIDoFAIBAIBL2OEBwCgUAgEAh6HSE4BAKBQCAQ9DpCcAgEAoFAIOh1hOAQCAQCgUDQ6wjBIRAIBAKBoNdRdPsMuRpzOVw5LBIqrJSq4knUdVGMr5K8ohM4/AB96DNAy4irTCSqe2TzT5PKz/j9njrm3D2FpO63Ws9wf8nqN/I57vdzvt9IVv9mCknft0T1ybjqQadRfZ+VYt63hbWWBs7/048pdRFPjhHBKhAIBJdCt4ePksPZvFrmR+218sqeIr4NC2H0qzjGtkMWzHUSNXVOPv/8Ix547R3yPD0x+aeJ1xtOXKKRK78vsQGgHc3q+5fx3LgI+kQZuPIHyIdJX7/Hgt3HcHyvtSpImrqItxbfzISfaUmMEWJDIBAILpXuDSH1Ft48MYiM6wfjOFqAJT6FadquTystteOKMLHk5ptZcvMMnsxIIUG2U1TZ+nteqZri0zaKa+QWn/qQPDJe2U1JeTUSINWUt/kO4JMoLbNhLq9Gamz5uYxLavNdfEgeCW/L73mD51e48XZ9SW2Kk3FUlmM+XU6p5Gt7UbjqfRfsu8jurpAlXB4JSTuCeWONXDz0+ZAkKXDNspsSm40STwsbGn24PDJewOuupNhWjqPNBUo15ZhP2y62PXAUs62GuNiY1nWH5FcfrprKdtq09XclVzlmWyWuFtV76yVcHjefnnagi9KCR7pwHd2iKaac0sXndhQzTVTYsChiMEW1+bzRh1Tf0lc+JEm+cN3eegnJK1FaXonDC16pkuLyFnF1qTEhEAgEP0JCmi9LJXms+8KBt64ac0NfpOztvPmPSup0Baz7TMEjN8R0craMpawGdcwk4oKfeOvqqAvTkhAR/MBXTV5uNq9Y/eh14Tgq3ejHz+W5GwZDxSc8sOMk6lgVjrIaBsTGE9FQjaVGz0NLbmOCElwnclmz/zguTSQDPJWUaq7n2btSSVAApQf43f/B8sU3MzYor1xfvc/vPo/k8bvTSAiTKfn8I9YdtqPUavG6K6kbnMZzs0ajD8U5tjwW7z4OGi0RCplvKxtImpzJI9dpAR+HPnqVl6ShXOk7S41PorQG0jIWsXxYKK6XOZS3izfLJSpqYNLspSyJb/MVz1esfeUY+jGDsFgcoPDh8BpZvehmkhTgPbGH+z6F9JizfFrmR9lYR83gqbyWYULtPsmrH+ZyQFITr5L5tkZB+m3zWHhFC9u8diwOLUk3tVGWXfnVd5L1Wz+iKFxLfH+oqKqB4dN54ebhAeFS8zkPv36ciAQVNS4fde5KXNFpvHzXWPRIHDqwiyyHTIXTj1L3CWt3Af2vYunsVBJDkcneSvbmZrPN6iMiUg3uarxXz+LlSYFY7TRmmi7RZqNuSAoj2jSVdOwdfv3VUF6++4ZAjLg+57FtZ0j/zRymqaxsfC0bi04P1TZqtEZGKNx8W9HAjXcuZUn8pcaEQCAQ/DgJqYfrozMyPdHHGx/DnKmjiTiVR1b8L1g+MhKNbnDnJ/vOYP4HXHm1FkmWqas+yZv7j6O8bgbpOgCJvOydbAtL5blFI9ErQPrmHe799BjF46ags9mpiR3LU3fGs/eNbRweOoUnr7Hy+1dtgfxMRT5/zLGRNPM+Fl6hAncRD2wpYm9ZKkuuANRqBsiVSD5ACchWtn1azY0330aCAko/f48/fqVl+d1LGasheP4x8mpGMyei48tqwqsdyeOL0tArA/8v+XgzD56wIV03EnVjJeZyGWKGs2SGCX1YJdte3Y65SoJhIaSGUDEhfT4TKvJZ/FYNSUPaqb/MhqVRQqmaynOLA1kIySPRJ9iyFpsd6ZyWPqZZbLlFDfhwefyoZSsb387FMWoWW64fjBIf5pzNrP3aysIrhjdXEJzlp7Wd5XfhV2Q9GXctZbkmYIi3JJsFe05yfMpwxipAsp2hNCyc66+fxeoYFV7L+8zZ78DWCPowNWm3zCfN+RnL/m4n4+47SevWFg43e3fv4k1FKk8tGkmcEvC5Ka0N5mi6ihkAJMx2N3HD2mR28GEuc6CLTb0gSKVSO9ZBQzGpg/7CyLyMGUR8spnH3MN56PYYst/YSU0jcMkxIRAIBD9OQhIcyoh4Io4fgJFTmTesgY2fqJmRMZaxuhBOrrBhkX04cjbzyxxAEcm0aZlsuCYSJeA9XcC2M1rSb9NT56ykDuB8k1kylrJqRlw9HJ3Pjs0zmBuv1kKVgwptBHEKmbzPvqRm+AzuviI4Iqm1RITRnL7WDCACKzUSoPRR/EkeRTFpbLpCAbKFbZ85uPKGVCKkSkokwOdH1Y2FJqW6L66SL/nUJXPed56KsgbUUdrAIHXWhkWOYe5NJvRhQKOP8/5whui6tyfAVWbDET0Ck/LiYxabnT7xKSy/oXlgVGua/hUY3BLG3sy8YU2fKdBpFJR+ksfe8OH8PhZKKwJrW65/KqDN0kJHs/xO/QqgUqN0nCLb4kbynkc+W42kMTJEAeDDbHOgTryduTGBdjt/vgG0Q4lv4Xup7AylkUZM3dwv6i3JZ1tlPMsXBsUGgEJLXARACDED4LVjbi+z01iJuRxMk5uEto/jNju62BTiAIfNTl38WK5XSeQ5GxgxYjhqn5VvPZEkRXPZYkIgEAh+bHQhOKrJO1CEWZYoOemG2GOsf99GnqxmQmE+RTemBrICnVBaascVdQMv35tKXH05O7N28s531Sy5JhIAy4mTuFRqzIUHMLc4b8TVI4lrtJNToeW6SWqotGHpZyBDA6VfOWDIJOK8Z9hmUzB2ZjwXxuIaB6WNkcyIDv5fpUXXR8YlAecLeOmElnl3B9L6XutJzP6+xJXk82pJi8rjriZpUAjec37J2veKqBkynHGD1aiVdTiq/ZhGBea+ku0MpRHDGds0ZrltHK/Xkx7TndS5D7Otmrg4Axfru4CgGHH9iHaOAR47xbURpI2IbHOgmkOn3Kip5t2PD7T4XMuka1suJHU0y6dTv+ItZ+e775GDkbShkUT0Daeiugb1z1MDy2qN5ZgrFIydHBNsNx/HyxzoYlJbLGMFRIk+dlJoS1stzzthhStmkNSeUPGe4dOuYgagwkaJIoZpbTM7Z21Y6g3MaGrDxkqOlYNp0mCaBPKVVw5F6TuDuSqS6+NVUGGnRB3DPDVIpy5HTAgEAsGPj857uUYFuig9A77Ox3vFODJizpJ9SMW0X1xHQh8t8V1Oytrs3+gXw4yRMbx58CRm33DGKmQcZ2XikubwZErbQRGoyMOiNJCuhdJiO15DKglhEtl2NwnXxUBtAQ6/lqTI5ssosZzCETOaGy/YNgB9vwYcnmqyj31Fn+vnMC0okhxnz3I+ZixPzB7dzmbMrpDYuz8fxzWZbGiyvSKP7E8HMyFWRdOA2WHqPVQay7FUKjCNaWfpymOnuHZwYFBrB2+ZjW8HDGVhW1Hoq8ZWq+bGO+ewJLaTun12LA41I1LbS/V37NfSI/t4JyyFTbNHB4SQ18r6z8EUZwh84Ww5lno9GW0H7ZtaXGNjJZYKBaZrQljXaoVEqctPxFAt7SSEoNYRQsxAqd2Oa/CYi/dvlJ2hNGIoSf2CH1Sc5NN6PXNjFeCzYa7Qct0kVSCzd0Eg2yFmEnH4OHQ5YkIgEAh+hHS+eBCmJenKvlRIQ5k7+QaSqMZ79SQWjhnJtJHxgZRwZwT3b5jimzeVqmOHEieXc6wSIBydOpwKmxVH06Z/n0TJ6UokgunpIfEYwyQsZe7AgOW1Y66KJClWAeF9oFGitDpwsmTLY70ZZqSMbJ7xh6mJ6O+n5OhHvNkwkqXXNwubCPUAqLJRdOHxXB8Om43SUB6FaHRgqQL9oOBg7D7Jxv/7ktKBBkwagrN4SIpvm3qPv7B5NiScZzB7DSS1sy83ICgMJHWQZbLY7CgN8SS0baewAUT0k7B8V9m8jFBfibnc3fp7soTLD15fO0+vdOhXmRJ7DQMGRQazHdXs/SiXvdJgkmIDwiiQ+YnH1DRou22YJX2gTZs4X02ppEDZpyPHdERfIvpBaamV0qDZXreNYlfwcCgxA9TUSeD3XfRkS4Vbav5PfTnbDnyJY9DQwLU4bViUBkZoA5k9ryGehLBAlighPubyxYRAIBD8COkyj1tyuADH1TNI62NlvVnBjFnx7c8c26PChsU/mIyWA8mgGEz98jHb3BCjZeyESSTtymXxS0Xo+0NNg4K4kTfz1BVt0tOOSJKmBWaOJep45mkARpJx9THWv/sSRWqo80UyKf1OFsa3vCwVEWooPSUxY3ZKq8FXnZjK3Sd2sf6VDWwb2BdvfQNKfQqP3Nn2UZB2CNMz9goF6z56iQWf9oV+MSQNCEenCQ7wNeUXp94r2sziO0Rib9brvFLuA78fyQfPb97A84qhLJ1/G2nBgTogKEZeLCiApuUW0zhDO7bHkHGTiaKPXufX32iJCPNR41MzafIsklp+T21kWkIR69/+M9lEMidzAfMubFztyK8qTMYY6g68w4IzapRoGRujRjkoKMTazfycobRp0L5QTAzXD4Vt77zA3rBwkm5ayOpRoaQBVEz4xS/Iy/qEZS99iU7ZgLePkd/MiicRQBdKzIDJNBLj7jx+vS4XZcIM/pZhQg0MiYlBfTif3710jAhdPKawcPRBwRAQyGMxhknklbkxjTCA90yzQD57KTEhEAgEP25+JknSP39oI8CHy+Wmjr7otWqU3XzBlNdTjeN8X/QR6tDF0EXnK4gYqEXdraV0H5LLTU3YAOK03+ebMC8TPhlHbR30GYD+Mr/J0ytV45B73iaXjg9XjRtvB9d2KTHjlapxeAeg16l+oGsTCASCHx//IoJDIBAIBALBvzPix9sEAoFAIBD0OkJwCAQCgUAg6HWE4BAIBAKBQNDrCMEhEAgEAoGg1+mm4HDz+s5I1M/9P2xwdfXdBt7PikS9Th34ey6D16WuzmmNfftS0ienkTLuWtKfMnd9wveJvIcV42az+dRlKi9vFSm3bsDib/2x+Zl00v5w8DJV0prCv+US+du9XPNgEa87e6WKHz2eZ9IpvNz+92Tx9bhMyuyXt9jQ6z/IyVsXYrd18zznHo7fugKHo2fVmncfYsx/7SVyYT4b/tGzMgQCwY+XXsxw9CVpzEZeS3+KX/bwN6kMmS+Rsz+Pp9Pbvl/6p4NhyjKW3TqiR+da1s8kZWVup9/R3jCKb54dy/z2XPzdZo6mPUZ1SxHkN2O95Vo+vfZaPk1OoeiOhZzcbu7+z8YXPEZh+rO4/V1/9ceGZ/1MClfmtv1Zmmb6j+LnK+9FF8pvEfUCni3P4hm3iJ+H8LqZVkRNJ26KlbKNhR1em3fXUgruz6KdV8WRNHMCX6wxkS7yqgLBT5JevfWvuOKX/PK6mYxW9e3Nav6tiRoznYxx/2qCS4XmD3mk5H/Atf+Vim/bAr5eb+l4gBW0JtxI5KwpqPv/AHWfO8g/3oXIjPE9uvk1d2QQnvM6VSIjJhAIukmXr7lqqHyd/9rzODvPwtUJK7ip7dTF9T6P73+at+wnqGAIV8fN54+TV5L+PfzStmzeyqrnsjh6yo7Hr8GQPINlDz/IlODMzbJ+Jr+2LePIc1MCHxxeS9rD8PTeRxgf7mTHvHSyr5pPQnkhljN2aqNm8Mj6B5nYNPP0OyncsoYNuwopdoFGP4KMlc+zLLXpXeIyVQXPsnD5Oxx1gPHWR3l+9XTaebfnxZyzsGP1Y2zKsyJHjeLO1NYvp5JzHmP2/xZSW2tHnvISBX+a2Pbqse/fxLqNB9ocxQAAIABJREFUWRTaPKAxMv7Xj/L0vUl4PljFghePUltrx+NfQ3r6OggfyNTVb/PguJ75uj3C+kfRL/Ueht9/lKInt1L926eJ7g/SrlWUbC+k3u6hURWFevJ9JKzMCAyw323l6//cgXzOic+l5OQt+wgD+sx6nut+awKg8bs9nH5yE1VmO40qA9o5D3Ll/RNDe8mW6yCnV79A9RdWvLISRfx4Bi9/lKGpAdHmWT+Tr7+eSIzOgutUGbKcgOGpPxMb/KW3xu/28O2j66g+JaO4aiqRQ4AQhYH3g1V89eJRGmvt+PxrOJK+jrDwgehWv41xHOC3UPbbFTjstXgrjMR9uJ3YpmBxZfH1lK00joP6o6CbO56G3VlIAzMYvuURInUAHtyvreG7vx2k/iwoEqcSu/oRfn5V6C9tazySiyt8PMMTQz6lNYbxDBqyieoCD/pbu/jlRoFAIGhBF5OcE2z+v//idWcDVw+dww3yVjaXNzQf9hby8DsLeKa0gaRRT/LkqHE0nHmcX723gRPfx3TXP5BR859m1/4jHMnfzrKofaxavYPQl8Zliov7ctfz23n7w+3co3qHF7ZbLxy1/HUJK95V8asX93LkcAE5f5lPgkpuUb+Vg2Yjj+wq4NCb9zEwZx1bD4dWr/nFFTx7JpX1+49QsG0RHD6Ip8U3VOlPsDsnh/V3GGhvOJEPP8uCR/OJXrKdvMNHKHjvCWYEf28l6tan2Z2Tw8a5RjRpj5KTk0POhz0QG1GpxD1wJ+rwzr+muHYE/bwWpO8C/29UmdCv3kVywRFS3n2CAV+v5cQWS+DgsHu49sMckp+ajmLInQz/MIfknJwLYgPPQb5dvIbaxAdJyj/C+F0Poty/ipO7QpxSe6HPhN8xYvchUg7nce1cqFi5BkcL5zZ+bUV5/6uMejeHa2dWUbo+i0BUWyn978fwJD5BckEBo1fGUpcfejQpb32a5JwcEucaUaQ9SnJODskfBsUGQLiJ2C05JO96iPZf7KpC+19vc22miqocFUM/2E28LhtHQSDm6rct5vibMvq/7CXlyF5G3OLEtvwF3HJ7ZbWPXGyhcaixyzbtkHAjaqOXeou13cOKcXMxZo7veiYjEAh+cnQuODx5fORsAN19bLz9Kf73jo0sajGpaTjzOjtdDegT/sifb5jL3Bv+h/8eqqXB+SZvVvay5YBqTAb3TDYR1R9QGZhyx0SirBZKQt4XoCJxynRMKgADo5KisX4X7Ej9ZrLetTJ6yaNMvypw0ar4iUxvtbxhYGpmBsb+oLpqKqlXebB+F8LA6C9mX56T8XPvDfzwWtR47pk7vl1h0T4y+buykaf8jgcnBwWJxsSU9KRulBECGhORtybR5YJYfw1h1OILbgrW3HoP+qQoFOFA1Hj0U4zIxdZ21/Xb4svPoto3g6ErJtJXBWH6icTeYcSz/2Bo+0T0EzHMmUg/nQpQ0e/WGWixUt9ig2RY8hSig1kwdZIJhd2K7AdsB3F9m4h+/kSU4aBIms/PU7/HV9aHG+gbr6Lf0GjCDEb69TfQV6/C53SC34Lj3WLU8x7l54kaQIN67lx05/ZR/U3oVfhqa6H/wEtYS1UR1l+Jz+Nu92hY/ET0KSHl+AQCwU+Mzici9W7OAn21Jq4IA8KuIFHbF4IDi9tTgRtoOPErjCdanliBo5tPpPQE2ZbLpvWvkfu1nVof4PfglKd0q4y+/ZsHlMC/ZGRA5auiyqXBYOgkbRw+kIEXDqtQKSCkURU3tR4lUVHNZUdFRXXjdzk8VDm9RI+LvbwCo6ec89DIQBTB31ZryN/M6deykc7UBvZ1nHPSOCq0abjPWUXj2UK+vfVg86DolwmLryUkHXnOwj/Wv4Ajv4TzsgzI+M4NRN+yXVQtBtxwFfgI2Olx4kdLnwuaUoVSH0Wr1FMvE6YAwpWgCMwGwhTQ6AeowuuUkbZkcmR78/cb/aDrxr2mGDgQztVewn4bmcZzXhT672HNVCAQ/FvRueDop2UQwLkKKgBtYwWOc81LKlr1EFTAkKv+l5dGtVwU7ssQ/YVCAgMxDTR4gVB+8LMNqnCQfQ1tPrWz4+FV5Cf9mS1PTiRKRWCPxvLaVufhCwoIgHO1yP6BoVWqiCZa58Fu98CYy71WHc1AjZcyzwXL8NR6uvGkh4boKCVV9jJkjB2Ljp6mzbuJ7+vj1CtNGIYBrj1YV76D4g9bGH2LgTBAenk2x9p5qjmMi0WIIiqasGE3MWLXop6ECp6NqzhtmcG1219CowPkXIrT1oV2siaKcCz4PAT3bcj4XLUh7HRqTVg4vbCBNhpllAbd4t0kpvdcZqoSTYS9aUXyg7In8eG3IlmV9Esz9tgGgUDw06TzzKomjZuj+tJQuYnHP3mLt/If5+Wa5sN9h81hrgZOn3mdrd+ZKXaaKfxuJ+sP7KS4T9O39CRGDoHGQjblb+D1Y2/x1unT3TIy1mjA83Uhlpbjk7+W2nNKoo0jAmLD7yT33X04W0yDo41GlKeOUiwDOMn9sDD0yWp4Ehm3GincvIY9pwJnyfZCcr+4DNvzw01MTTNwNGcPTgC/newPCtsZfjtCReodM1DlvsALefbAeR4rufstrcqI1kXjtVqx9tKjp43nnNTnb+Xki/mo5v6KyP6AtxafP4r+poDYwFWII6edJ1h0UYS7rNRVtP5YkZpBpOfvfLfNjNcP+GUavsnFcTg0v/vO1QaWI3QAMvXvZeE+F+IFxU8kKvE41R9aA/Y6c3EUdD+9Ea6LBquV+svp93AT+plG3H99lqrvAq3c6LLj+iAXqRv1hCVPQecvxF3cQzvshZytGI0uRWwYFQgE3aOLudvVLPqP/+XLDx5nd+EKiofO5+YhH/N60/4M5U08+cu/o81bz1vHHme3T4VWfQWjYu8jsYWUuSnlSe6r+j1vnnqYpSeg77DXmHnFFV3vDQhiuGMl9xWs5NcTXgfleB758CUydCbuXXkXq57JZObbUUSrozFdMwpDi1mbZvJ9LMtZxfKZszEYDIy+ZhRR3ZjVmZZs5M+KNbyweBqPeZqfUuneok37JN3/NPetfowFt+5AM3AgCYZENFXBg34Lm3+7gr+fkcHjxMkq0g6pUOlm8MzOB0kKB1XKg2xZ/QJr12eSttIDGgOjf/0nUlvUEXXLfObvX0tm2t9RKQcydc1uHkm5DMYj4/lTGgVPqlAaR6HN3MK185ICAkOfwbD7Czn1nzOpjIpGMdDAwGtNhLXVC4l3EndrIafnplAWrkI1dyOjFptAM5ErX36I08/8gS9ftNOIEuWw8UQuGRWSZboFjxL9hw2Y73iNPrq+KJNMqAeWhHhdRmLWPErDH1fw5R4V4QON9L+q+48k971lPj/fv5av0/5OmHIgkWt2Y0wBX85jmJ85SCMyvnNepHlp/AMV6vu3MyKt63L73bue4azjzOI0vnV5CetvoF/KXSTc0g3j+k/k53c8y8msQuKv6f6jsdLuLPzpD6L/V3tSWyAQ/Msjfp7+J0zhro+5K/88g/rrWP5Acvsv/xL8++E5yMlfvY76L69i6M7Lv5x7OH7vPiJfeR69vuuvt8Wc/RlL8utwn+vPskcncF8PyhAIBD9ehOAQCAQCgUDQ64jH5XsB5+EdZB2uou021wB9GTF9EVOGfc9GCQQCgUDwAyIyHAKBQCAQCHod8TNKAoFAIBAIeh0hOAQCgUAgEPQ6QnAIBAKBQCDodYTgEAgEAoFA0OsIwSEQCAQCgaDXEYJDIBAIBAJBryMEh0AgEAgEgl5HCA6BQCAQCAS9jhAcAoFAIBAIeh0hOAQCgUAgEPQ6QnAIBAKBQCDodYTgEAgEAoFA0OsIwSEQCAQCgaDXEYJDIBAIBAJBryMEh0AgEAgEgl5HCA6BQCAQCAS9jhAcAoFAIBAIeh0hOAQCgUAgEPQ6QnAIBAKBQCDodbovOORqzN9VIwFShZVily+k01wlRez8phJvtytsWbeEq76T+ryV5H1mobTxUirpGNexd1icbUHq0dk+Dn20hdVfuNs96pXcuDpzTuVn/P61XMyhuTtAYyU739jALzf8mTvWv87Oym4Z3ExHfq8pYvWrH3Hokhq1Ay6X7b2Cj6KcLfz+s+rLVl67sdFo49XXt7OzomdlSm4JqZfuhZ7Gs/TV+yx+7ytcvWXWpdCb8dwV7i9Z/eIGfrn+z9yxORdzr7VbJ/hkXB758pfrLOL3r35E0Q/h1x8DveR3yfI+v94QiKlf7rZ0PPb2ZGxpopu2d1twlBzO5tUyP2qvlVf2FPFtmCKEs9wc+OwTcip9KLtb4QV8HMp5lYcP13T8FfsXvGJx9lrepg4tExJiUPfobAn6xTMhXnvxoUYbr27fzjZ7xy3u9YYTl2jkylDc3UTYYObcvYy3bh+Jro8eY0T3re7M7y6bFbNyEAk9b9SOuSy29xKN5Xx+pg59dDtt2aPybBRZG9BHtSmv3seAIcNJiupBmTWf8/DWjyg6f1ksbIeexLMP83dn8Goj0fWWWZdAr8ZzV2hHs/r+ZTw3LoI+UQau/AFyz9LX77Fg9zEcl7lcl+0klr6RXPlD+PVHQG/5XW26jb8tW8hvhkDckJgOx94ejS1Bumt798K63sKbJwaRcf1gHEcLsMSnMC2UPlcux+IMJyl+cKdf80rVFJ+2UVzTWjFJkoTLbaWoHOIiVLg8Ei7p4sG5xFaOMmYoce0V7pMoLbNhtlXiqA/B5lZ2Sbg8EgOGpTLX1OaCG2Vckgz4cFXYMJe72yhJH5JHwuVRYLo+lWktB4/G4LEyK5b6SOLUcuDaWl6+HKhb0o5g3lhjO2LHh6umsl2/NVFqs1M3ZCgjuhlQnfvdh8XmQBcbj64+0G6l7bQJ3qDfK9r6JTQ6tV12U1oeaNO2s2mvLNHKHK+MJDd/4K2XkLxAZ7YDkivg2xJ3i+Nny7HUGzDF0EGbh0CjjKMi0GbeSjsWn4GkIcFjvmAcNOqZljaaxI7arel+cUrN9XtlXB43pd+WUDpoMEMagvETyuzF23EG0Ss1lXEJ8dxYjrkCTPGDkVzlgXbrwayqo34C6DQmWl5naZkNc3l1C7+EGM8dIUu45Dbf9zX1Dc3/d1SWYz5d3kHZEmZbDXGx7Uxq2sQvjT6ktm3V6MNR0cW1t4O3XsLlcfPpaQe6KC14JFwe+aKYllyVmE/bKPF0p9F8WGzV6GOHonRXUny6HEd7tvXQ9kAVnfi1y/45BDqyzSfjqvchuSspdkrBe7qc0gvjS+B+8Db6cFUG461F5qpzvzed29oUb32b8aErvHbMDi1J7U0MuhxbuNA/msurW92rocZMW0IagqSSPNZ94cBbV425oS9S9nbe/EcldboC1n2m4JEbYjovoPwMFgzMi+mgOl81ebnZvGL1o9eF46h0ox8/l+duGAxeK29m5WOud1Migf7zd/jj5+H0iU/lqcnGFqrNjbmsjoQxF9viKsllTc5JJK0WtU+i1B3J0vvuJE0VwsX7bLy5+wCfe9yU1A/lkSW3MaGFVJSOvceCwzBB10Bpg5+Kymoixs3n5dSguKr8knX/9xU2jxtXdBpb5oxunt2VF7B2/ylqJDelP1PDnp3kEU7c9bN4aKQakDmUt4s3yyUqamDS7KUsiW9hm/ck67d+RFG4lvj+UFFVA8On88LNw1sEj4TZXkPcsG5mZrrye2M55go/A3xFPPzWWc7X11DijeehhXeSpgaQKfn8I9YdtqPUavG6K6kbnMZzs0ajD9mIjm0v/Ww7D38hEaFVM8DrxuLRcvfcTDIGA43lvPH6LmomL+WhBAXgoyh3ExtVs9gyOQYay3n1jZ1Yooz08bRnO+CysPHDAxyQ1MRpwFUlkTR9EcsTFLhsZyjtB+bs7WS31+ZdXVV5EeuyC7CpIhlQ76aPpi8O/WhMwbhyHP+ItUeqqamtZkDyAl7+RWSbtqlkb24226w+IiLV4K7Ge/UsXp4UQ+mxbNZ95aamthpUMi9lnYIwLdOm38mMLjIlpYd3saxyHDszTK1nQ+4vWf3GSSbcPYcZ8iXE89lyLNIAIr7ZycMuH3XuSlzRabx819jQYqKzfoIuYgIAmeLPsnn+cwdotah9bkqVY3khcyz6LuO5c0o+28mD1SktfCdTlPs6G5nCCzcbUdvyWLz7OGi0RChkvq1sIGlyJo9c12Ig8NqxOLQk3dR2cPBxaO8mXlHPYsukQP8mff0+v/7SwIb5NxAHSKfzWbf3K2z9tOi81Vj9Rh7KnMGELm2XOHRgF1kOmQqnH6XuE9buAvpfxdLZqSSGAd5ysrKzebNSRZxaptTpY+y0+Tx0TQiOCfqV+n08YAW1v5pi71AemX/bBdt6bjvQhV+77J+78k4ntjm+2MXiL3wkaeSAkB6mRa5xYNWkBu6LygIe2G5BHaNA8qrAXU5NzM1syhiJriu/N1p5aUsuytuWsvyKoDGer3jyjSLiZs5jYWyIs8cKGxZFDGkX3ftdjC3IFH/yHs8cc6PTqeFcNda+KbycORZ9KDHTASFZ3UdnZHqijzc+hjlTRxNxKo+s+F+wfGQkGl3XDVdiK0eKGEFSv/aOSuRl72RbWCrPLRqJXgHSN+9w76fHKB43hUSlkYV3G3Ed3cmCb4w8lzm2g3Sslow5S0HR5pK8Vl7JOUl8+kKWJwQUhleSIBSxAaCIZ95d87n18+0sKIm/MCgE8GG2OSB8OGm3zGGs2oc5ZzOrHQ68DA50PIPHsnr+deRlbSJrcHxr22NTeXJ+Cod2v8Q27e1suKmtL1VMSJ/PhIp8Fr9V0zwDbuKfejLuWspyTeCavSXZLNhzkuNThjO2yQ1NCveiTqwLuvL72XIsnnAGjPkFq6+PROn5kt+/UkSJB9LUUPr5e/zxKy3L717KWA3gLuKBLcfIqxnNnFCXRzqxfcDwm9l0Q2RQiLjJ2r6FPGs1GYMj4awNc72BGU0Ct7GSY+VgavLvWVuntiOdZN3bB3Bddzuv3RAUO55KShUB8WLpqs07w2Ph+feK6HPTfLZcow345ZU84sY3x4b+utvYcK2V9S9/hDK2jdjAzd7du3hTkcpTi0YSpwR8bkprA56Iu/5ONoyxsfGVbLxT57F8WDfSWv/000cZHriGRoL5Tx/FnxdRcdXNwWxmz+PZZTtDaVg4118/i9UxKryW95mz34GtEfRd5lq76CfCuogJfJR8tovHLJGsyFzEBF2gLUsrpYDY6SKeuyJCowJbHS5AD3jLC3jVqmfe/MDM0asdyeOL0tAHA6Tk4808eMKGdN3IZjHd0eDQWImlHEyTm/zp47jNji42hTjAW57Pwx/auH7GQlbHq6Cxkm2vbSf7lMyEUV11dGrSbplPmvMzlv3dTsbdbSdiEoc+eo8sUnjhN6PRK4LxfuwkrmtGd7005jyDWQJ10lSeShmM0nuSdZv3sNcqM2Gk6hJt78qvIfTPnZXdqW1gKasmLimT1aPK+f3LRSRMmMPd7vf59ReB8102G6UoyEjJZGG8Cmy5LHjnGJ9KI5mh7srvg9APkCmulQkMVjKHDuRju2oGvw9VbAClNht1Q1LayRB3MbaUF/DMUQVz713EtCZhKMnBWO3K9o4JyXJlRDwRxw/AyKnMG9bAxk/UzMgYy9iQFmLdmMvc6GLj253FeE8XsO2MlvTb9NQ5K6kDON/WrEAnr4+d1HmAtxUbAFIlpfU+IirtlAyOJ0GjQKnu7i4MH2ZbNXEGQ+v6GysxV8D1N05ibLBI73kfOl1k62BudGCuUGAa03bwIDgDUGAa2fEo7Cqz4Yge0UbsACo1Sscpsi1uJO955LPVSBojQ1q6ocJGiSKmdeo7ZDr2u8t2htJBo3l2TPBaz8vUhWmJ0wKyhW2fObjyhlQipEpKJMDnR9XddelObNep/BQdK6JUauC8X8bsAb02OKuxnaE0YmizwHXbMEv6CwJE6sx2oPhwHkURqWy6oUVmRTM4sFQXXBboss07oOSLAj7XpQTEBoB6ABEKNRHxbWLDGVhmmdcmYectyWdbZTzLFwbFBoBCS1zL8DlbjqVeT0ZHGcUO8DaCUqEAXzmvvr6T4yMX8NzIct45oWbGXfHN19ejeA7EkjrxdubGBHqn8+cbQDuU+BDiIpR+orOYQLLwxmGJ9Iw5QbEBoCBucOB4p/EcAjr1APrIEq5G0FPNu/uPEzEh84JYUar74ir5kk9dMud956koa0AdpW2VuetwcOhIQE8aDLjZm/85dVdM4Ualm5IKgLqLu9AukMrOUBppxNR24Kj8gm3faZl7z2j0CgAFEeq+UBPiwwJlNhza0Tw1PjjAKwYQoSS48f7Sbe/Ur6H2z+3ShW0+O+YKLTemRULVl1QMNLJwMDi+rWZA1Gh0+Mgrq0Rnuo2744NOHTCAAW12O3To9zAt8Vo45HYDg5FKDvBKhZEl8+O7sQ9Swmx3d5rd7mhskZwOXH4fpbZyHMYY9CpQq1sb2aHtndBF01aTd6AIsyxRctINscdY/76NPFnNhMJ8im5MDcxeO0Mu55gznKQb2s+EWE6cxKVSYy48gLnF5yOuHklcU0fUWNnloNwhutEsTXWy7ZuPePATiT4RJpbOmkFadyb8TZ3omDbXcNaGpd5AhlF1wc5jFS1m0k04z7Q7eATK6GpwCIqduDZix1vOznffIwcjaUMjiegbTkV1Deqfp7baw9Kxwg2BDv0eXO82ppIQbCOpzE7poKGY+oHXchKzvy9xJfm8WtLitLirSRoUevUd2e6yZPPwx9XEXWXEpO1LH28ltvrBzI0JzFrNNge62NQLAlcqPROwTU3z8Q5sp7GcT0skRowf3r64De7f6LLN26WST791Yxrdomyng9KfGZjUZobhstlw6Nt2BD7MJ6xwxQySOrnJJdsZSqO61xEA0OhDGa7A8XURJcoI8PsoPXqYEmMqD7V0Rk/iOXgPjZ3ctHnNx/EyB7qY1JCWU7rqJzqPCZBKTmLuP5y7273POo/nkNBoGXCuDk8jOI7l8gFjeKppucT5JWvfK6JmyHDGDVajVtbhqPZjGtXyyjseHC4S0GdtmOv1zIhVgGTlUHk4yiHHefXj480n9b+KCbGhBkDgntDHTrqoLUpPnsIxeCQ3XugvZUoq61BH6UPY+BvYv6FLmNScZq93UFKvJVGvAun4pdnelV9D7Z/boyu/Om1YlAbSB0HpCTteQyoJYRLZ9joSrgss25rLVYz9j2aB4HU4qFDrufJCTHXsd1AxRKemxnUWr7eBbXlWTDctZGx37mmvrYvsdgdjC6BOnMSSf+ST/fFOsrJBn5DG47ePbh6TO7W9YzofhhoV6KL0DPg6H+8V48iIOUv2IRXTfnEdCX20xIeSKCg/w7cY+E27N7qM46xMXNIcnkxpZ7bUxFlbj2ZsAVQkjpvBk+PAW/MlT/4tj0/LfKRpu1FWBx1soCMwNndKbhvHJT3pbex02TrIUBBUiRGdDA6N5VgqLxY7pUf28U5YCptmB9OaXivrPwdTnKFl6Vi6ULid0pHfg4NH0jUtUrxlzSne0rNnOR8zlidmj+7hEz2d2C6f5JX95Yy9fcGFdUzH5yd5Y6ABk4ZA+rkCTKYm22SKTpaji01tkaHo2HZ81ZR6VOi17TeIK8Q2bxdfNaV1KuKimq7IR7HlJA792IuFRVk7GTUkSl1+IoZqO5nlBAZyfYgDeUvON4KScrJOaZkzJpxtFad4swRmzDK2qq9H8dxWiLRd5uqULvoJ+SQvdRYTQIWrGjRGItrLpnQVE6GgVqP7pwNHjYW9n0lMu/36YOcssXd/Po5rMtnQZHtFHtmfDm49qPrsWBxqRqRevH+jrTBzfHuC0kFXB2LQVk1F+FB+M/s2JvSke4TgPaPAdM3FE4tSpxt1RAtxIZ0kr0zBjTO72LcHwUHXT3xCcxu7ThzHMuAqFkYBZZdie9d+DbV/bpfqzm1zHLZTN2QsxjCJvDI3phEG8J7BXBVJUqwiMGbIWqZFNJ0sc8hyhgHDbm8WXx36PYBep+V8RQ2fFxzn08hJvHB1N2cQFXZKwgZ3nN3uYGwBQDmYael3Mg1wWd7ndx8dx+wZ3Zzx68L2jug8mRmmJenKvlRIQ5k7+QaSqMZ79SQWjhnJtJHxIay7BvdvDBpMXKOMVN/8F9h9G45OHU6FzYrjwsMPEiWnK1u/66LaSUW4ovuP1HqrKS5vLul8g5uasJhAQHSDQNqp/f0bulhDi5m0HeuFmXSL75W1ryIBSqvcoOzk2pxnMHsNJLW6v2VK7DUMGBRcr/ZWs/ejXPZKg0lqNTNowHUOznt78oA1Hfs9OHgktR08gk8hRagHQJWNIk/TCT4cNhul3doe3oHt1eVYzmvRB9PirtP5PHOoHLUhPjA7bXRTIXFh/4Hjm31sOxN+wbaubEehRaeSsXxXfmHHtavcRmnwCQ1LSG3eEeEofybjOBuIScn2CS8ddRNnaLMXorE8cDPHtu0I+hLRD0pLrUF7wOu2UdzqpRYBUaLs2930BsiNPmpOHaduxFhM/RW4TnyBJSaF9FZ9Ss/iOSDU4lt1/mZJH+K92EU/0VVMABFqNVRZMTfFZMu+oauYCAX1ACJwc2DfAUoSplzIrNDowFIF+kHBntp9ko3/9yWlLcQQEHhiwA9eX9t7Vcbh8V/oqb2VRWw8XIkuNj4ghjQDGOB3YC5rfnRBqmkbE11wvppSSYGyz8WH+ijCkc5WB96b4qtm7758jsekMveKENrNeQZzvY+Ks4FH6r01X7L+MzcTfjEu0C6XYnuXfg21f+6ATm2TsZRVc2X8UJQ+O2ZHZKDfrbBRoo4nSRPcv+GTcAQf7XB8s49t5f8/e/cf1eSZJ/z/3RC5ERoYalKsQWrjj5LKFNvswInPwKYjTp5vUZ4VYdWyX6s4bq3jD9a2OB2F+iiOj1inartadcdfZ1l2TinuoU33S6VPKc6UiS4Wuiq22litacskNpUoesck/f4REFBxj5RKAAAgAElEQVR+BAG1er3OyTlt7h+5cuWW63Nf13VfHy0zkzrMzOyh3gGio6OIcB5i07EoZk/S9/1R8suXcOHjanePxnfZtgCurzusr+XlovsKngfiSOwYC/dS9u70etV8caiWpkenYBpiY3ODkilZfRlDukDDufN4/nqeJVv/0v62YgTzfpVDZpSSn018isSyKhZsPUxMOHx3RcnIn/5P1o3qcJoHR/M/hh5gw9bXIOQBZj7zLDOCmZPw3XG2vvUXvhoSRUyol++8UZjNU5gSzHBK6xMgf/YAV2U8/JXn3jhIqMbIxhlts9rpfFfUYSJXYPb0p3wHXJVlOPPv/H29kuGJf8eWlPZfeKROx8jPqsl9rZohqp+yOjeNeMUl3i/fy7987QWfj0te2LRjC5uUD7Pw2f+FaaiEXjeCix++Te6ZCEKJ4mcjIgj9yXV/xBjGxJ+OoPLgLtJrlcQ/lcvGv+nDWFI39d7VnUPDpdYuXiAiPoX/97MyNv/LFvZFhuG5fIXQGCMrpsd1/1k36Kbsah0/i/yEP+zewbuhEDo8jpgwJQ+09ewoH0T/oI8/VGylUXU/o0dGEapsb9h6KzuKOGb+7VheqSrhHxqjuN9/BR408r+z4q7N3+j2N++NUsfUxChePvAH/uEvSu5/IIZQRQT61vkbX/2lhJf/6zwefFy67CW0YgsfKsJ46v/J5fnRSkBi4s9/TnX5n1iy9ROiQ6/gGaLjV1lxxF/7kAgeG/Mg5Yf2Me0QRIxOZ9eUccH9m/XD1YjHmKmPIPScEuQwzEmtTzz163puC9S6GOYKasiil78TvV0TQPRPn2Lmyf8IXJMqJRc9YTxlziGeIK6JYCgieEC6wMcXxrEis8PfSEUMPxulZMP/t5XcP4fB0BEk3h9CtKo9GAIgQscvRx9m81uv8S7DmJGTy+zhABJjRkTh+q8/8g8nI3hgeBwPKKT2YCj6CeY9+QVr397Kn6OiCPVcxCM9zOzMjtdEL6QR/M3DsO/t13lfEULi385j1YQIQEnik0+gK6sid+thIrxXuD/OyOqpPw2q8XOd+5qmB3T8zWf/zj80KvF4wvgfqTN4vu1OvT9l761e+/tvtaeytc7fePypQJDROFRLpgq++m87jHiKkXipPneemEe0NLy7lVwlXFQ+zMzMKZ2Xkei23lv95Cc84IX7/zaNX/Y2daErcT/llxHvsvaNDRDxU1b94//kZ8re2hZoOn2Qwg+/Djz547/IxaHjWDj1unrrrezduO/SpUs/3MRXGWBeXK4LXCSMmKgIQgdy0Ru/jOvCxcC5oyP6sfDYncdz6TxNchgxD9yZ38vjPk/TVSUPREYRcbPdvV3xyzR9fxGGRhEztIsTt24PvX8Y0TdbMd5LNDVf6f4z+sHjPk8TUYxU3ex5vbi+u4BnyP3EqPrek/Hj1cPfid6uiVaX3Of5zjsIf2d65OWS6wLfKe5nZDdDdcEcfzE0ipju/iHJF/jK7eV+VRTR0sBer3hb6zbiJv8t+GWaLni5PyqCiK7q/KbL3t96DcLNlM1/ls1vvkvo0wt5/qELNF0J63aItidf/aWEl0+PY2Owj40PJE/g759H6s/fqRvdIQGHIAiCINwF/nqQBf/+HTMX/C9Mfb7h8dL09Vm+OPff7PuvK0yZOYMpd9Iqy/00wKGwINyLLtBw5HO+6G6qTFgMTz0ed0cu5y0IwsDyXIKR4/Uk3kzvqv87Dh/5hMYhWmb//d8w8S4KNkD0cAjCgPDIMt2mLbkvhIhQEdsLgnBvE38FBWEAhErSHTmPRhAE4U5xG3ISCoIgCIJwr+kl4HBjyTdjmmTCkGhg+Qe3plDBatycgeGFqgE7X0OxGVNBzXXv2tkzw8DCd/qSoi9YFykutDBscRVP/u4zGnwDdNpjW6g3mzicYuDPWTvoNjmuu5yjSTmcs/ft9O7NGdS+UIW/911/hFrYu+lDxi/+T4a9eBTrQP0mQev5mmio+Jgnl73PsHkH2fLNrS6bIAjCzesl4FCRXlxJ9fvbeDbuXu0wjiQ5dwUze1pLultOSmcbWFjm7mEfBeZZv+DIbx8lMeTGrefzjdTvvjEicG/O4M8JCZ1fifP4xgWMX8KEymoM+ck9/8DhE3gofy7RgzGbsbYQq/lVLvSxwfbuX8ifExKo32279p672EztUsuABjiesoXULirnxnme4Tyb9xTH5g+nj+nuBlD310RixkSOFOkxi75JQRB+ZMQcjl6p0Jsz0d/uYnRB8eSLTNg5qz3xrVJC0UXQ0q0QHcOydINQsn6SJC6/VcqFZ1YwWI/XC4IgCLdWv++TbGXLmTfNhDHJgCHFzLxV5dhaWjfKFvKSstlxsm1vJ6W5BuaVODtsz2D55rUsnJ2N2WQie5WFTvfzrgZKC3IwpxgwGI2YZ6+lquMOso3Sl7MxJRkwmBeyoyH4oQ/5tIXCHBPGJCOmnEIOdE7kh3VjNmazCaOhmyEVnxPrzjxyzEYMSUZMU+ex5WCgN6NmTQZmcxZbjslYN2dhNpsxTy2kqqfOjj6TuE+SULS9gg02fI2cyzVTZzZSm9jVkIqbCzvzqEsxUJuSwfE31vLp9UMvso1vXs7GmmSg1ryQc231fnoPR582U/eyBe+3b/P502bqzGY+3dkY9LdSqFMYNvwA31R3VVkyl/YX8qnZSK3BgHVaHmdqnUGfezD5XffR0qTo4nXfXTr8JAiCELx+BxyypCdzVRnVtXXU7V+N/uha8nYF37jgs9HYksb6fW9RuX8l2uoN7DnUttFOaf4CtjdPYVNFHXW11ZQsmkBoh256+dBHOKZto7q2kteMX7B9cznBNT829v6mkPr41bxTW8s7+bF8ctBOx7Ai+YW3qKws4bkxXZ+hcefz5O2XeOaN96k7VEvlPz/LaClwhtSCCiory1gyXiJ5aRmVlZVUvrOatD4uURuRtZKRP7+p3PLdC9ETu6sSQ9lLdLVQpbd6A5/vcxOz82OM1buIcdbgvi7e8h/6iKvTtvGz2krGGb/gq83lXAF4ZA4J71ViWJeOcvh0xr1XiaGyksfn96GPKCQWzYxk3H98N3DOjp/b8Don1jVy/5r3MdZ9zOM58Nf8Ipr6GHMok2aiy0kewC6++7D/76F8mBZ24ys9FPtgTAESBEH4Een331v91Dntww3qZDLTdJQetSGjJ7jecC2pGcmoAKInkBznpuq0E5LUcNpC+REdcypmoY8GkFAnpZPa4WjJMJ25SYEGOXVSMqoiG1/4QN3b3f7ZGj46FU/mhtTAvonPMjdlOwXBfnFfA+X7bTyxaBfpYwNRhBSXSnpf0oUEISwpnbButvkbXuUT45ZrUaPCvB7DqtR+R5EXPjiA/+frGREvARLDcqYz9J2POu2jMExnRJIaBTBsUjKKIhuyD8L6MqTTA6XpGYa9UcC3xzLpmB/0UnUNHsMc4pICdT502lyG7czlfK2bmKnBR3OKuFRiBvS3+oEH53sw/F0Xm5Q/EC2GhgRBuMf1O+BwHtzBht3vUn+mOdA70OKECTIeCC7gCIkksuN8VCVcm8nncOAIiSV2eA/Hh0dyrZmRJLqYBdg1txMnUWiudR5IaGLUSMEOeXgdOFwqtNqbyaozMBQJz5Hw+0zaEvYpwlUD8JyzG6/Lg3Kspv1cajWh1wcS4ZHtF48kofAysMMGykQeylZx9F8PEtVhUqvX6UChVrd/doiaUDVcdDUDt++3ABgS4+f+roqg/IE+JlUUBEG46wQfcCg9yF6ZTmGEy0Jh/tuoCnZR8bQWCbC9mU12Q9sOEiBz5doQiIzcKe98LzQaNL7jnPsW0Pa6d9+o1KhppNkNhAfKdsHVjBxsjSg1aKLd2O1ueLLnhm7QetNDVAyJUXfbA0JIIJLrWyCgQhkditfpwI8+EHR878RzE4+HKvr5zYdOfYaIvaU4JrS/p/yJBv8pJ15aL16fE48TlNGR/fqs/rsPe1EYn3b16Ljk4/E/y4wUvRyCINzDgrshDolldFwojYfq6dQB4GlG9qkZrQ8EG7islFY2tjczSi06rYOGhsAAu3zCwoFTfWiEHkknM9HGnuJSGl0AMs4jVdScDf4U3YpLZXL8cd59r/XxS2cV5bV9mNEZkkjmVB3WHUVYTgaOk+1Wqo50nEygIjIazjUeH7ygoweKh3WE2q1838f6ipo0GUX1v/PNSRl8Ts7/67tcDrbnqE20mhCXjYvf9vG4TudI4yHTOc5Xt9dpRFoqoXWlnDvkBmQu79/N+eZkhhk7B33eykLqnp7HuRP9+Pw++YFh8z0YNnXxetXLgyLYEAThHhfk/byKtEVLOLAsD5PBQ+j4xZTsm4MuJpMXF1kp/HUGB9QaIiO1JCbokdrahxA9zyydjnVNFhnlo4kdl8joMRLBrzOlZdbGN5GLi8nLeBWnNxT12CksWZfW9296Ax1zilZieyWPDIuEKlJH7Fh1e/+NvZy8+Vuol0F2yniKzZg2gZSykopVaUiA/vltvKYs4vUFv6TQDaqYx8jM30R76STSchdjWbkckwkkKZmXytaTfqt6/sc/w6gsK7YsA2dRMay4mnGmQGPcUFyDHxlvi4dLs018g0TEohIem6ZGaXqJcbMLOJU7kbMhWqJmJqOSjnNfXz47fjojp1r5cqaRcyES0sxtTFjQ14eLJaJnTkcq23Jt8TJF4mLi85s5WfBLap0eFHHJDC9eTcx182r9bidX7OduqmfmZoWP9xI+/tZ9niAIwo+JSN52W11k+/qP2eIYQlTMSHYvG8OjAzTpckDZ91A/7RAPfbCVmNs7TeIWaGHv64fZfOYq34dr2f+KvssF2QZPz9dEw7t/4fmDF7nQEs6SlRN5LuZWlk0QBOHmiYBD6IKdC9XNDE3RExrixr05l+MNmSTumtX9fBFBEARB6MFdutKoTOP+vRywX7+KQytlLJNnZ6IPv7Wl+tHwyVwsW86JAgcgoYyfgm6NCDYEQRCEmyd6OARBEARBGHQiBZQgCIIgCINOBByCIAiCIAy6XgION5Z8M6ZJJgyJBpZ3tajRbdS4OQPDC1UDdr6GYjOmgprr3rWzZ0Y3ydv67SLFhRaGLa7iyd99RsMtfIRz8Dixzzbw6R8HOaGau5yj1yeUuxVavmbh8ip0CyyMeLM/i4zcrJ6umRb2bvqQ8Yv/k2EvHsV6V1xPgiDcLXoJOFSkF1dS/f42no0L7XnXu1YkybkrmJl4Mys3OSmdbWBhWU8Liikwz/oFR377aJePX57PN1K/+8ZW9Xy+gdoXqu7dLKThE3gofy7R0V1tDAQ9R3us9551V++Ej2Dr+jT2P3U7Zxx3d82E82zeUxybP5yo21U0QRCEbtylT6kMJBV6cyZ9XbJKGGQhOoZl6W53KQRBEIQg9XsOh61sOfOmmTAmGTCkmJm3qhxbS+tG2UJeUjY7Trbt7aQ018C8EmeH7Rks37yWhbOzMZtMZK+ydF6J1NVAaUEO5hQDBqMR8+y1VHXcQbZR+nI2piQDBvNCdjQEP/Qhn7ZQmGPCmGTElFPIgabO260bszGbTRgN3Qyp+JxYd+aRYzZiSDJimjqPLQcDd9U1azIwm7PYckzGujkLs9mMeWohVTd/090HdhzrFnLEbKQ2yYDVnMOJfQ3tee1qC7FOWsuFti53XxXHkzL48kTH7XnYNubxaU4Gh00ZnCizdepN8Z8s59T8DKxJBmpTzNTnl3OpYxf+uQOcmm2i1mDg8OxXcbmCL723YQ8nZpiwJhmpTTFz5IXyayuN4mvkXK6ZOrOR2sQbh1TOr8mgzpzFuWMy7s1Z1JnN1E0txHGt3t1c2L2c+klGag1GDucUBpZwvwWuOu+jpUlxw0t29WkNV0EQhB+lfvdwyJKezFUvsTVBjeSy8uqCheTt0lOxKMg+AZ+NxpYVlOxbgcpVRd60IvYcSmdFEoCd0vwFbA9fwraKEvTRMs5DVRzv0LDJhz7C8cY2qougZk0O/7S5nMxds1B393nX2Nj7m0LqE17jnX2pSEd3sGB+ObK5fY/kF96i8gU7e2ZkcKiLMzTufJ68Ch0r33if9LEq5LM1VH0rAypSCypIxUnpbDMHM8rYmnVzS3RGZK1kZHTv36YzGbRpjN65HlWcCv+xHRz/1VK+HFvJGGOQQ0POejwJZTz+ghr/obV8snQL582b0KgAVxWfz9+AZ+YmEt9IJkzpxP1efafPv1Rt46E3KxkTeYIvf5XL6ZJMohcF0yNh59vi17mS8q8Y/qhHKTu5dMTBtZGDED2xuyqJdZdzdNLbNxw9rKCCYTixzzbjyigj4bp6v7xvAcf/XcOof36fh+LhUslyji59nfD9LxLVoWpurt574AvhaKbE110FXk9e5am9VxHLwgiCcDfrd8ChnzqnfbhBnUxmmo7SozZk9MGlp0dLakZyILF49ASS49xUnXZCkhpOWyg/omNOxSz00QAS6qR0UjscLRmmMzcp0DCkTkpGVWTjCx+oe1uO+mwNH52KJ3NDamDfxGeZm7KdgmC/uK+B8v02nli0i/SxgUZNikslPS7YEwQnLCn9Jhbc0qGZ3d64K8ZnoknYTtNJJxiDTLsbmYomLVCvisQJDPXtoeVbQAWeD0pxqaaTMD+ZsBAANaqpHfPbSAzNmIVGKwGJDJuo5ZvTNvzogu5S8zXZuNykQxWjJsI4QA2/r5Gm/SeImL2Zh+IDv1nEzJlE71zL+WMvEvVk+643V+89CPEzer2Hh7rqTHnALxZVEwThrtfvgMN5cAcbdr9L/ZnmQEbUFidMkPFAcAFHSCSRHeejKuFa37/DgSMkltjhPRwfHsm1e1hJaj+2N24nTqLQXGvLJDQxaqRghzy8DhwuFVrtnZhcxM2Fkg18td/KZVeghfN/LyMl9eEUoVL7xaGUAJkfWnuWrjodMDwdqYegThHZni5eEQIEnS9Xy4ii9Xi3lXLymUJkn5aorBcZsyiV/k9bduBxylzalUNdSfu7fh9EX+r3yXvxA9LDfhRdXJ8K6QfxfLogCHe94AMOpQfZK9MpjHBZKMx/G1XBLiqeDqSot72ZTXZD2w6BhurKtSEQGbkvf9g1GjS+45z7FgjyxjxoKjVqGml2Q6AvW+aCqxk52BpRatBEu7Hb3fBkz0HHrU5N7z+4gRM7ncTuLCNhrApwYp9vxtFWkhAJhU9un5PR0oy/D49QDlFr4Fsbsg9CByGxmeKRNEYVpzEK8BzZwvEFazmXkoousb9n1hCqVhG9oIJ48y3OF+8L4fhMMaQiCMK9K7gbq5BYRseF0nionk4dAJ5mZJ+a0fpAsIHLSmllY3sDq9Si0zpoaAhMEpVPWDhwqg/N7yPpZCba2FNcSqMLQMZ5pIqas8GfoltxqUyOP86779kC/++sory2DzM6QxLJnKrDuqMIy8nAcbLdStWRjutPqIiMhnONxwcp6JDxyx1erUGD392MX6Xj/rhAIOQ/Vo6j42RarQ6ppZHm1q9+5b0q3MH2DAGhpkyi3W9zeqcVjwz43Ljfq+k8afSmOblQWcOl1p4ZZXgYihAJRZ/iAxWh0SA3Hu/82HCInpgMHRd2vorjdGvPj8uO652qASp7D0L8jP6dB8OmLl5LfWJIRRCEu16Q9/Mq0hYt4cCyPEwGD6HjF1Oybw66mExeXGSl8NcZHFBriIzUkpigR2prc0P0PLN0OtY1WWSUjyZ2XCKjx0gEv1aTllkb30QuLiYv41Wc3lDUY6ewZF1a74f2SsecopXYXskjwyKhitQRO1bd3n9jLydv/hbqZZCdMp5iM6ZNIKWspGJVGhKgf34brymLeH3BLyl0gyrmMTLzN9FeOom03MVYVi7HZAJJSualsvWkD9AojL9yOdbKju+oidlXzZhJSxhVW8CpadmEDI9EGZPM/fESF9t2007h4dwqTs03cz4ulvCJOiKU54L/YHU6Y96U+XLjWj7ZZccvqRlqfI6x5t4P7Z3MlT9t51zRP+GRQaGKJ2rRemLjA1u9lYU0FNfgR8bb4uHSbBPfIBGxqITHprWNj0kMy12MY+VyDptAISUzqmw9GhUMnbuZcWzgzAITp1weFOFahhpnMfrpgSh7T34g8udeInvfURAE4a4kkrfdVhfZvv5jtjiGEBUzkt3LxvDoIAxRCAOo5WuWrfmMavkq8k8ncGzug7e4AD1dMy3sff0wm89c5ftwLftf0Xe5mJwgCMLtIAIOQRAEQRAG3V260qhM4/69HLBf6XqzMpbJszPRi1l6giAIgnBLiB4OQRAEQRAGnXj8XxAEQRCEQScCDkEQBEEQBl0vAYcbS74Z0yQThkQDyz+4NYUKVuPmDAwvVA3Y+RqKzZgKaq57186eGd0kb+u3ixQXWhi2uIonf/cZDYO9FkSQLpcspG6SCWtSAofXNfR+QD+5i81Yb6j3Hhw7ysRlVYyYZyHzo1u9rBrgPkPmfAsjllYxsfSvnbe1fM3C5VXoFlgY8ea3t75sgiAId6heAg4V6cWVVL+/jWfj+r+w9I9TJMm5K5iZeDMrUzopnW1gYVlPC4opMM/6BUd++2iXjzCezzdSv/v6lUuc2HMT+HNC68tg5HBOHmdqnTee4CYMzdmK4YNqxpkHMHlZX/kasD2dge1YF9vGJ/Dx7yfym1G3s4MuklcK0vh41nWPxYaPYOv6NPY/JWYkC4IgdCSGVHqlQm/OJHWAk7L1n0TY3BKMDUcxVpUwKsHO18uKaBqYmEMQBEEQBlS/Aw5b2XLmTTNhTDJgSDEzb1U5tpbWjbKFvKRsdpxs29tJaa6BeSXODtszWL55LQtnZ2M2mcheZem8EqmrgdKCHMwpBgxGI+bZa6nquINso/TlbExJBgzmhexoCL6LXT5toTDHhDHJiCmnkANNnbdbN2ZjNpswGroZUvE5se7MI8dsxJBkxDR1HlsOBnozatZkYDZnseWYjHVzFmazGfPUQqr6sHp670JRhIAiWocmJ52hnkYunQWw41i3kCNmI7VJBqzmHE7sa2jNa+fGkW/k8Dprh2W/ZVyrTFgLajovBd4dnx1H8TzqUgzUJhmpe/5Vznf4TS6VLefTaSasSQZqU8x8uqqcSy3t2/2nLXyeY6I2ycjhnEIcTTd+xKDw3YfcpKDlhtd9yC29Hy4IgiDcvH4HHLKkJ3NVGdW1ddTtX43+6FrydjUGfwKfjcaWNNbve4vK/SvRVm9gz6G2jXZK8xewvXkKmyrqqKutpmTRBEI7zHWQD32EY9o2qmsrec34Bds3lxPcTb6Nvb8ppD5+Ne/U1vJOfiyfHLR3ynmS/MJbVFaW8NyYrs/QuPN58vZLPPPG+9QdqqXyn59ltBQ4Q2pBBZWVZSwZL5G8tIzKykoq31lNWh+XNY/IWsnIn/c2tOHG/d4BLofEMlQLIIM2jdE73yf5UB2G3/8tnm1L+bJWBlQMmzoZqixcaPuyLVaaqiWGTU0O6oK4vC+fU9Va4srqMNaWEac+wOcv7+Fy63a/pCdmVRmG2jqM+1dz/9G1fHbtmrDx1W8KccevxlBbyxP5sVw82MVi9yFaNEuXoBkRRIGCdWIIH5vD+DDt+tdQPt4pluQUBEEYTP1e+Es/dQ76tv9RJ5OZpqP0qA0ZfXDp6dGSmpEcSDEfPYHkODdVp52QpIbTFsqP6JhTMQt9NICEOimd1A5HS4bpzE0KNMipk5JRFdn4wgfq3tqPszV8dCqezA2pgX0Tn2VuynYKgv3ivgbK99t4YtEu0scGoggpLpX0AR56CUtK7yaxl8yVf8vF+h+A7MGvikdTsJqYGAAdmtm6a3sqxmeiSdhO00knGLUoJk5nmLSApj+9RPQkFd6D5VxQTeYxQzC/mJ3zH55gaHYxmhgALZrc6dizDvCdfQ5aLaimzuFaXKVOJiZNR9NRG170KM/W4DoVT8yG1ECm2cRneShlO7YbPkeNyjwQOXM6iPPy+CY/V7vYNOThoPp2BEEQhJvU74DDeXAHG3a/S/2Z5kDvQIsTJsh4ILiAIySSyI7zUZVAW+ZShwNHSCyxw3s4PjyyvXGTpPZje+N24iQKzbXOAwlNjBop2CEPrwOHS4VWO0CZ2PpMIixrPePnP4ZCUhGq6ljbbi6UbOCr/VYut2Zd9X8vIyW1bg5JJOZpDUcravBOSuX8O1aGpC9BFcxNvq8ZrwuUP+mQhkytRombq98DWrhycAdf7n6XS2eaA0M0LU78E1q7U9xOfEQxpEO9h8aoYUCHmroR/gNDdf4ur0tFtFj/ThAEYTAFH3AoPchemU5hhMtCYf7bqAp2UfF0IEW97c1ssq89SSkBMleuDYHIyJf6UDqNBo3vOOe+BbR9OC4YKjVqGml2A+GBsl1wNSMHWyNKDZpoN3a7G57sOegYtAc3QzWEqW8cbvEf3MCJnU5id5aRMFYFOLHPN+PoUJKIjEykGRYcx2TO1+l48GXdDechBPBetzx8SCTKSPB+3wxtoZ7TiRcVQ34CuCzY8t9GWbCLJ57WogAuvZnNp23XhEpNCI14O9S719V8axbZPzEEa46Sli4ePw7/lcxTS++Q55IFQRDuQsHN4QiJZXRcKI2H6jvfiHqakX1qRusDwQYuK6WVje3NmlKLTuugoSEwq0I+YeHAqT40v4+kk5loY09xKY0uABnnkSpqzgZ/im7FpTI5/jjvvtfame+sory2D7fZIYlkTtVh3VGE5WTgONlupepIxxkkKiKj4Vzj8cELOrrgdzfjV+m4Py4QEPiPleO4fjJt3BRiEj7h65V7cE+YzoNdBHRDdVq8R61c6nSolmFp8Vwu3875JsDnxLHrbS7HT+YBLeBpxutTE64PBBu4rDRVNrZPRo1LRR1/nPPv2QLvOato6ku990ecl/EbPRg23fganyGGVARBEAZTkPeVKtIWLeHAsjxMBg+h4xdTsm8OuphMXlxkpfDXGRxQa4iM1JKYoEdqa3ND9DyzdDrWNVlklI8mdlwio1zQ0M0AACAASURBVMdIdDFFsBtaZm18E7m4mLyMV3F6Q1GPncKSdQMxtq9jTtFKbK/kkWGRUEXqiB2rbu+/sZeTN38L9TLIThlPsRnTJpBSVlKxKg0J0D+/jdeURby+4JcUukEV8xiZ+ZtoL51EWu5iLCuXYzKBJCXzUtl60gd5FEY5aQmjags4NS2bkOGRKGOSuT9e4mKnvdRoMpL58uWDROVOpqtVVsKm5TOiNp9PJ+6F0GRGvbeVh6Jh6OxixjgK+TLLwOdyKKGJ0xmzbg5DAWIyeWSRlZO/zuCvag3KSC2RCXoU1+IwHSOKVnLllTw+sUiEROoIH3uL1vtQ+XlwkggsBEEQbgeRvO22usj29R+zxTGEqJiR7F42hkdv4cMS/iNrqVvazKj31qO5XVNRbkbjUX6xx0FTy1WSZj3F7olDbu3nu79i7spGDoUNIebJx/m/M4a1b2v5mmVrPqNavor80wkcm/tg9+cRBEG4h4iA417ls/PNsizOqTdhKAjucVhBEARBuFm3YqrebSDTuH8vB+xXut6sjGXy7Ez09+jq0/4PlnM4vwrF+FmMEcGGIAiCcAuIHg5BEARBEAaduLkVBEEQBGHQiYBDEARBEIRBJwIOQRAEQRAGXS8BhxtLvhnTJBOGRAPLP7g1hQpW4+YMDC9UDdj5GorNmApqrnvXzp4Z3WSL7beLFBdaGLa4iid/9xkNd8hCl5dLFlI3yYQ1KYHD6xp6P6Cf3MVmrDfU+49Uy9csXF6FboGFEW9+e+s/332GzPkWRiytYmLpX++ssgmCcE/rJeBQkV5cSfX723g2rquloe4FkSTnrmBmYnCp6DpzUjrbwMKynlbSVGCe9QuO/PZRErtYg+N8vpH63dcvlebEnpvAnxNaXwYjh3PyOFMbXJ7c3gzN2Yrhg2rGmW/Rglw/Nr4GbE9nYDvWxbbwEWxdn8b+p27nI1CRvFKQxsezrlsD5I4omyAI9yoxpNIrFXpzJqkDnAW2/yTC5pZgbDiKsaqEUQl2vl5WRNPAxByCIAiCMKD6HXDYypYzb5oJY5IBQ4qZeavKsbW0bpQt5CVls+Nk295OSnMNzCtxdtiewfLNa1k4OxuzyUT2Kkvnpc9dDZQW5GBOMWAwGjHPXktVxx1kG6UvZ2NKMmAwL2TH9TlDeiCftlCYY8KYZMSUU8iBps7brRuzMZtNGA3dDKn4nFh35pFjNmJIMmKaOo8tBwO9GTVrMjCbs9hyTMa6OQuz2Yx5aiFVA5o2JBRFCCiidWhy0hnqaeTSWQA7jnULOWI2UptkwGrO4cS+htZEum4c+UYOr7O25zdBxrXKhLWghqAW/vbZcRTPoy7FQG2SkbrnX+V8h9/kUtlyPp1mwppkoDbFzKeryrnU0r7df9rC5zkmapOMHM4pxNF040d0zcaZGUaOzJ/HYaOR+jVb+HyGkdqUHL480vr7uGr4cmn2tbIdzsrjzMEOUdi1shupNRqxTp3Hlwc7/ChOK2cWZWA1Gqg1GqnLWduH8vWD7z7kJgUtN7zuQ27p/XBBEIQ7Xb8DDlnSk7mqjOraOur2r0Z/dC15uxqDP4HPRmNLGuv3vUXl/pVoqzew51DbRjul+QvY3jyFTRV11NVWU7JoAqEd5jrIhz7CMW0b1bWVvGb8gu2bywnuJt/G3t8UUh+/mndqa3knP5ZPDto7JVlLfuEtKitLeG5M12do3Pk8efslnnnjfeoO1VL5z88yWgqcIbWggsrKMpaMl0heWkZlZSWV76wmrY9LiEdkrWTkz3sb2nDjfu8Al0NiGaoFkEGbxuid75N8qA7D7/8Wz7alfFkrAyqGTZ0MVRYutH3ZFitN1RLDpga3CNjlffmcqtYSV1aHsbaMOPUBPn95D5dbt/slPTGryjDU1mHcv5r7j67ls2vXhI2vflOIO341htpansiP5eLB4LPrgAdl2noMm6dw9T8OIv2fah6f4cFhqW/bzJCJi3ms4mOMh6pJmAnf5hfR1BpT+A9uwVapJrasFmNtLYZ/XkJ0bPtwoXtvId/6ZvF4dR3G2mrG/zaN8OtHE0O0aJYuQTOiD8XuzYkhfGwO48O0619D+XjnLVzvXhAEYZD0e6VR/dQ56Nv+R51MZpqO0qM2ZPQEN+tBS2pGciDRefQEkuPcVJ12QpIaTlsoP6JjTsUs9NEAEuqkdFI7HC0ZpjM3KdAgp05KRlVk4wsfqHv7G322ho9OxZO5ITWwb+KzzE3ZTkGwX9zXQPl+G08s2kX62EAUIcWlkj7AQy9hSemEdblF5sq/5WL9D0D24FfFoylYTUwMgA7N7PZ084rxmWgSttN00glGLYqJ0xkmLaDpTy8RPUmF92A5F1STecwQzC9m5/yHJxiaXYwmBkCLJnc69qwDfGefg1YLqqlzuBZXqZOJSdPRdNSGFz3KszW4TsUTsyGV0NZ6fyhlO7aga0RFWJwahVaLFNpMeJyEpNXgPenEDyhiUtHOaN976NQpRG3cwuWzwHggRIIWO1dsNrxqHcq4RKI6nV/C/52dlrNOpLFqwsYnd1EGNSrzQCQQ7CDOy+Ob/FztYtOQh0XCOUEQfvz6HXA4D+5gw+53qT/THOgdaHHCBBkPBBdwhEQS2fEOUgmtff/gcOAIiSV2eA/Hh0e2N26S1H5sb9xOnEShudZ5IKGJUSMFO+ThdeBwqdBqb1fWM4mwrPWMn/8YCklFqKpjbbu5ULKBr/ZbuewKdGP4v5eRklo3hyQS87SGoxU1eCelcv4dK0PSl6AK5kba14zXBcqfRLa/p1ajxM3V7wEtXDm4gy93v8ulM82BIZoWJ/4Jrd0pbic+ohjSod5DY9QQ9FCThCIEUEqgDHTRKZSAj0DA0dLIN5tfp+ngF1yVZUDG2xJJTOt1oUhZQvyi7djfeJ66k80o4yczomAFD40N1J/qH9czyrcd+7KpfN4kMdQ0h9EFc1AN9s8c/gNDdf4u/80oosViwIIg/PgFH3AoPchemU5hhMtCYf7bqAp2UfG0FgmwvZlN9rUnKSVA5sq1IRAZ+VIfSqfRoPEd59y3gLYPxwVDpUZNI81uIDxQtguuZuRga0SpQRPtxm53w5M9t0aD8UAtAKEawtQ3Drf4D27gxE4nsTvLSBirApzY55txdChJREYm0gwLjmMy5+t0PPiy7obzEAJ4r8tHExKJMhK83zdDW6jndOJFxZCfAC4Ltvy3URbs4omntSiAS29m82nbNaFSE0Ij3g717nU1D0DoG/hu7m3L+bJxCgklW1FFA3IVJ0wbOuynJipnBVE5K6DFTtOqXGy/tzBsWyahACo9D+Vv4qF88DfVYFvwT3xRNpkJcwf6ArzOiSFYc5S0dPFodPivZJ5aeoc8My0IgnCTgpvDERLL6LhQGg/Vd74R9TQj+9SM1geCDVxWSisb25s1pRad1kFDQ2BWhXzCwoFTfWh+H0knM9HGnuJSGl0AMs4jVdScDf4U3YpLZXL8cd59r7Uz31lFeW0fZnSGJJI5VYd1RxGWk4HjZLuVqiMdZ5CoiIyGc43HBy/o6ILf3YxfpeP+uEBA4D9WjuP6ybRxU4hJ+ISvV+7BPWE6D3bRng7VafEetXKp06FahqXFc7l8O+ebAJ8Tx663uRw/mQe0gKcZr09NuD4QbOCy0lTZ2D4ZNS4Vdfxxzr9nC7znrKKpL/XeC29LMwqtjqHRADKX/6OcCx0nrJ6owdFgx+sDJAmlBIpw6do/hMsHLbjOBsqjCI0KTMoNv5lHovsozsv4jR4Mm258jc8QQyqCIPz4BXlfqSJt0RIOLMvDZPAQOn4xJfvmoIvJ5MVFVgp/ncEBtYbISC2JCXqktjY3RM8zS6djXZNFRvloYsclMnqMRPBTBLXM2vgmcnExeRmv4vSGoh47hSXrBmL8XMecopXYXskjwyKhitQRO1bd3n9jLydv/hbqZZCdMp5iM6ZNIKWspGJVGhKgf34brymLeH3BLyl0gyrmMTLzN9FeOom03MVYVi7HZAJJSualsvWkD3L3vHLSEkbVFnBqWjYhwyNRxiRzf7zExU57qdFkJPPlyweJyp1MV6ushE3LZ0RtPp9O3AuhyYx6bysPRcPQ2cWMcRTyZZaBz+VQQhOnM2bdHIYCxGTyyCIrJ3+dwV/VGpSRWiIT9CiuxWE6RhSt5MoreXxikQiJ1BE+duDW+4jOXYmmYAsN03YzJDqM0EQ9EZFftO/QfIKmdYXY7G78ISpCJ0xhzMr0a/8Q/KcPcLqoiBMuD0hqIiatYPTf3YL1SFR+HpwkAgtBEO5eIlvsbXWR7es/ZotjCFExI9m9bAyP3sIHEvxH1lK3tJlR761Hc7umotxtWr5m2ZrPqJavIv90AsfmPtj7MQPJ/RVzVzZyKGwIMU8+zv+dMezOKZsgCPc0EXDcq3x2vlmWxTn1JgwFwT0OKwiCIAg3q99T9e5MMo3793LAfqXrzcpYJs/ORH+PrvDs/2A5h/OrUIyfxRgRbAiCIAi3gOjhEARBEARh0ImbW0EQBEEQBp0IOARBEARBGHS9BBxuLPlmTJNMGBINLP/g1hQqWI2bMzC8UDVg52soNmMqqLnuXTt7ZnSTvK3fLlJcaGHY4iqe/N1nNNyqtZ0OFmI1v8qF3j7PXc7RpBzO9SXVSVBa2LvpQ8Yv/k+GvXgU6y1f06qner/dZRMEQbg79RJwqEgvrqT6/W08G9fVSg33gkiSc1cwM/FmFn9yUjrbwMKynha2UmCe9QuO/PZRErt4JPZ8vpH63V20+K4Gzr2QjTUpgVqjmU/XWbg80I1j+AQeyp9LdHQX22QLx5OyOXO6+8O7LTvhPJv3FMfmD78uj8mt1F293wllEwRBuPvcpU+pDCQVenNme4K6O4IbR9FS7K5neKzyXxnqrsK2oJDGaD1PLuhiifKbFaJjWNYAnk8QBEG4Z/V7DoetbDnzppkwJhkwpJiZt6ocW9tS0rKFvKRsdpxs29tJaa6BeSXODtszWL55LQtnZ2M2mcheZem8EqmrgdKCHMwpBgxGI+bZa6nquINso/TlbExJBgzmhey4fgnvHsinLRTmmDAmGTHlFHKgqfN268ZszGYTRkM3Qyo+J9adeeSYjRiSjJimzmPLwUBvRs2aDMzmLLYck7FuzsJsNmOeWkjVQKzi7a7BcRCi5z6LKlpCGZdOXHY8suVd3G29HL4aPk8x8/kfS/l8dgZ1T5s5/HQhDlfrdu85zq/J4bDRQO2kHD7fb2tfftzXyLlcM3VmI7WJ1w2p+Br4MsdMXcYGLrTY+PZXZurMZuqWltPNQ8gD6qrzPlqaFDe8ZNd9t+DTBUEQhJvV/5RZkp7MVS+xNUGN5LLy6oKF5O3SU7EoyD4Bn43GlhWU7FuBylVF3rQi9hxKZ0USgJ3S/AVsD1/CtooS9NEyzkNVHO8wdCAf+gjHG9uoLoKaNTn80+ZyMnfNovfFqG3s/U0h9Qmv8c6+VKSjO1gwvxzZ3L5H8gtvUfmCnT0zMjjUxRkadz5PXoWOlW+8T/pYFfLZGqq+lQEVqQUVpOKkdLaZgxllbM26uaU8I7JWMjL6um9z9gsu+7TEPNw+zBP6SCx8baNFBtW19UWcuCrsjNtcwTg1+JvseNq2NVm5qN3FE7V6/AfXcvSF5XyV8BYPjwVC9MTuqiTWXc7RSW93/uyQREaVVDJKtnA8ZQ8R//IWDz/Sh7L3hy+Eo5kSX7u62PbkVZ7ae5V7dGkVQRCEO16/Aw791Dntww3qZDLTdJQetSGjDy49PVpSM5IDeUejJ5Ac56bqtBOS1HDaQvkRHXMqZqGPBpBQJ6WT2uFoyTCduUmBRi11UjKqIhtf+EDd2xLhZ2v46FQ8mRtSA/smPsvclO0UBPvFfQ2U77fxxKJdpI8NBBNSXCrpccGeIDhhSemEXf/mJTd+wrivQwUrJAkFTvwt0LHVVeU8R1ubr4jRtp9LlcxDOfrABZAyhwfjM3BW23l47MBlRe2y7P0R4mf0eg8PddWJ9YB/YD9LEARBGFD9DjicB3ewYfe71J9pDmREbXHCBBkPBBdwhEQS2XE+qhLwtv63w4EjJJbY4T0cHx7Jtb4DSWo/tjduJ06i0Fy7AZfQxKiRgh3y8DpwuFRotbchCUmECgVX+KFDw+uXZfyoUHS6xVcTNryb8kVqCJXa9xsSDT6XExjkNOz98gPSw34UXfzGCukH8Yy3IAjCHSz4gEPpQfbKdAojXBYK899GVbCLiqcDKeptb2aT3dC2gwTIXLk2BCIjX+pD6TQaNL7jnPuWgW8HVWrUNNLsprVHQOaCqxk52BpRatBEu7Hb3fBkz0HHgD9QOyIWKaScljMyxAV+D8/ZczAimRsyqXfX09PswCPT+t2dXHVByIRbkBW1P3whHJ8phlQEQRB+jIK7KQyJZXRcKI2H6unUAeBpRvapGa0PBBu4rJRWNrY3sEotOq2DhobAJFH5hIUDp/rQ/D6STmaijT3FpTS6AGScR6qoORv8KboVl8rk+OO8+54t8P/OKspr+zCjMySRzKk6rDuKsJwMHCfbrVQdcXbYSUVkNJxrPD6wQUd0KhqjjGtfKW6XjP9sFWffOoFknowq2GyzbivflDTiBTy1e/jrCR3Rpj5EdUo1oeEOLn8+ELNggxTiZ/TvPBg2dfFa6hNDKoIgCHewIO/nVaQtWsKBZXmYDB5Cxy+mZN8cdDGZvLjISuGvMzig1hAZqSUxQY/U1uaG6Hlm6XSsa7LIKB9N7LhERo+RCH4dKS2zNr6JXFxMXsarOL2hqMdOYcm6tL5/0xvomFO0EtsreWRYJFSROmLHqtv7b+zl5M3fQr0MslPGU2zGtAmklJVUrEpDAvTPb+M1ZRGvL/glhW5QxTxGZv4m2ksnkZa7GMvK5ZhMIEnJvFS2nvR+j8KoiVm1iSur1nI87VW8oVpUT69G/3wfHt6NSeb+b4v4xHgCb3g8wwrWM7J18qe3spCG4hr8yHhbPFyabeIbJCIWlfDYtNZekJBkHlqUzGfrfol1nYQi4Tl++sasQW70fyDy514iB/UzBEEQhMEgkrfdVhfZvv5jtjiGEBUzkt3LxvBosD0UP2ot7H39MJvPXOX7cC37X9F3uejZ4Omp3m932QRBEO5OIuAQBEEQBGHQ3aUrjco07t/LAXs3S1EpY5k8OxO9mGEoCIIgCLeE6OEQBEEQBGHQiaULBEEQBEEYdCLgEARBEARh0PUScLix5JsxTTJhSDSw/INbU6hgNW7OwPBC1YCdr6HYjKmg5rp37eyZ0U3ytn67SHGhhWGLq3jyd5/RMNDp5e9Vx44ycVkVI+ZZyPxoMH63XtTVMWLef6Jb9iELD1+9s8omCIJwm/QScKhIL66k+v1tPBsX2vOud61IknNXMDMxuMwwnTkpnW1gYVlPi2MpMM/6BUd++2iXj1+ezzdSv7urlUtkLle+yvEsE7UGA7WmDI5ursFzE6XsmhP7bANHeyz7bXR6B/WmQs53FaSNT+Dj30/kN6NuYweeehT7NzzF1p8N6fz+nVA2QRCE2+AufUplIKnQmzPpw5Jat4SnspCjq2xEF+ziZ5O00FTP+UPijlkQBEG4M/U74LCVLWdtiZXjdjceSc2ESc+xIj8TXTggW8hL2cNjJW/xj2MBnJTmmqmaVMkfctSt27cj5STjrqvni7MOIk0vsWlVenvqFFcDpb8vZk/1iWsrjb60bgVpbTvINkpfzmb7Bzbc0ck8V/wa/xhkb4R82sLalRs4cFJGGjuZKcPplGnVujGbwvcdNDvdPLHqY7ZOve68PifWXUVsKbNywtW+0uiSFBU1azJY+6dmmp0yntNZmHcCocm89G+rSev3SqM2vtlVhSJrF7qndYFuqrhkYtoy1balji9pTTePE3uumfOTKnk8Rw3IXNq/li/ePMClZlCEa4j4hzUkzE0E4PyaDL78UzNep4z/dBZ1rWWP+7fVaFSAz45jYyFn36nHI4cSapjOqJUvMkwL/g+WY914DpVk55I8gZhJHs6XWWHiasZvbM0e627km41FfP3BCTyyCillDmNXzUHVVi++Gj43rYVFc8BSitsp4yeZUSWr0UT3t+56IN+H/P193Nhp8gND1D8wRCwAJgiCcNP6HXDIkp7MVS+xNUGN5LLy6oKF5O3SU7EoyD4Bn43GlhWU7FuBylVF3rQi9hxKZ0USgJ3S/AVsD1/CtooS9NEyzkNVHO/QIsiHPsLxxjaqi6BmTQ7/tLmczF2z6D0NmY29vymkPuE13tmXinR0BwvmlyOb2/dIfuEtKl+ws2dGBoe6OEPjzufJq9Cx8o33SR+rQj5bQ9W3MqAitaCCVJyUzjZzMKOMrVk3F2VEZK1kZPR138ZVj/tUKKrnE29u1q/Lwul19YRvfp/HjSpw2XCdbg+mhhVUMAwn9tlmXBllJFxX9sv78jlVPZoxZX9Ao7bjWJXL5y+rmbBvTmBpeN9jaEs207LIzLmm9RjeS+fzjHLON6WjjXHStPJ5znrmEL+/hCiVnaaCXE78LpYn1qV1uCCduCrsjNtcwTg1+JvseDqum6JOYeQLHiIGMAho+aPEhxu6qtEfGLHjMk8YB+6zBEEQ7jX9Djj0U+e0Dzeok8lM01F61IaMPrj09GhJzUgOpJiPnkBynJuq005IUsNpC+VHdMypmIU+GkBCnZROaoejJcN05iYFGuTUScmoimx84QN1bw3R2Ro+OhVP5obUwL6JzzI3ZTsFwX5xXwPl+208sWgX6WMDDbIUl0p6XC/H9VFYUvqN+UlamvESSdhNJxWRUNCMx2bjSkIiYdE6ooPuObBz/sMTDM0uRhMDoEWTOx171gG+s8/hIUARo2NouBq0KoZodSgj3YT9xMFVF8ABmv4USUzJHKLUgeNjnk3n3IIDXJDTGNbholHlPEdbrKWI0XauB5WeYVNv9vt3LSztKoa4+7rY8gPh8QP7WYIgCPeafgcczoM72LD7XerPNAcyorY4YYKMB4ILOEIiiew4H1UJeFv/2+HAERJL7PAejg+P5Nr9tyS1H9sbtxMnUWiudR5IaGLUSMHOkfQ6cLhUaLX9Hh/pu/BIlDTjb77J46PT0W20c/bfivjvN2z41RPQLFqNzhxEtlhfM14XKH/SIdpRq1Hi5ur3rf+vbJ2NHAKKEIBQFErw+wCnnateO03LzJy/dgIZb8gEvC10uGjUhA2/tXWrUPmJ1N2Hv4ttQ8SqtIIgCP0SfMCh9CB7ZTqFES4LhflvoyrYRcXTgRT1tjezyW5o20ECZK5cGwKRkS/1oXQaDRrfcc59C/Qhc3pQVGrUNNLspnXehswFVzNysDWi1KCJdmO3u+HJnhvGAZ/KGT0B1SMenHWNYOpq6CpQ7z90qPcfrqv3sJR/ZFzKPwJuLpUs52jRFqJM6zv1MHQpJBJlJHi/b4a2UM/pxIuKIT8Bvu3leLWWIdIEhu/7A9rexr1u8ZyJlv1iSEUQBGGwBDcFICSW0XGhNB6qp1MHgKcZ2admtD4QbOCyUlrZ2N7AKrXotA4aGgL56uUTFg6c6kPz+0g6mYk29hSX0ugCkHEeqaLmbPCn6FZcKpPjj/Pue7bA/zurKK/twyOgIYlkTtVh3VGE5WTgONlupeqIs8NOKiKj4Vzj8QEOOnQ8lJuCv6wQW6UNryzjtTfQVGYNPBar1BKudXCxtd79Jyw4O9a7qwHHB414ZIBQFFIohEai6BRsqQiNBrnx+HV3/FqGpcVzuXw755sAnxPHrre5HD+ZB4IJCmMmE5P0Bd8Wl3PJFXjLa2/AUdkQdOfUYAlLu4phk6eL11VGiyEVQRCEfgnyfl5F2qIlHFiWh8ngIXT8Ykr2zUEXk8mLi6wU/jqDA2oNkZFaEhP0SG1tboieZ5ZOx7omi4zy0cSOS2T0GImuVpXompZZG99ELi4mL+PVa0+pLFmX1vdvegMdc4pWYnsljwyLhCpSR+xYdXv/jb2cvPlbqJdBdsp4is2YNoGUspKKVWlIgP75bbymLOL1Bb+k0N3+lEp76STSchdjWbkckwkkKZmXytaTPgAjBaFPryeB1/nizVwO5zshWkfE1BeJBgjRM2LpdI6vyaKufDTSuETCx0hcS2Xnc+Au2YJtpR2/LxRlXDLDi54julOPgsSw3MU4Vi7nsAkUUjKjytajUcHQ2cWMcRTyZZaBz+VQQhOnM2bdHIZCl8MRnamJWbcN78ZXOZGxFo8cikKtIyo7n8F8ACUYihE+ho+4zYUQBEG4S4nkbbfVRbav/5gtjiFExYxk97IxPCoevey/xqP8Yo+DpparJM16it0Th/R+zECq/4TxfziPFD4E099P5PeGDp9/u8smCIJwm4iAQxAEQRCEQXeXrjQq07h/LwfsV7rerIxl8uxM9OLJA0EQBEG4JUQPhyAIgiAIg05kkBIEQRAEYdCJgEMQBEEQhEHXS8DhxpJvxjTJhCHRwPIPbk2hgtW4OQPDC1UDdr6GYjOmgprr3rWzZ4aBhe8MRibW/5+9ew+L6roX//92ZpyN4EBGhmAYJMmoiUQT1KlwxhY6Vsz0F5TzlWijtV812lz0GMMxDTb1Up+o8SfGJpocb2k08RxK+wvBHiNpUXxCpJGCxUCqQLyMER0rMjjCOOgeh+nvj+GqCEMAY9L1ep75w9l7r732Zjv7s9dae32ukr4yh9AX8hj72peUdZRq/VvHl9b+iz/Yu15VuEXZ3sOMXbKf0PkFbP7HN1CBkhIi5v8Jw5JPWHjkRvtlx48xfkkeEfNzSPlUZCYWBKF7ugg4NCSl55K/fytzotSdr/qdFUzcvGXM8DMDbXt2MmcbWZjV2YRiCiwzf8TRXz1MTAevxNammSjddevMJbVpRgpfyvNj3ot/Rb6g51in5/0bdGYHpeaV1HYQYMYkj+fommgs32Tbo+4B9myYwJZxN72yO3IUh38znl8+IBpGBUHovu/oWyq9SUO0JQU/cvw2NQAAIABJREFUc98KgiAIgtCBHj+qWLOWMn+qGVOsEWO8hfmrsrE2NC2Uc0iNnc6Ok81r28mcZ2R+hr3N8mSWblrLwtnTsZjNTF+V034mUkcZmStmYYk3YjSZsMxeS17bFWQrma9MxxxrxGhZyI4y/5t65TM5rJxlxhRrwjxrJQeq2y8v2jgdi8WMyXibLpVGO0XvpDLLYsIYa8I8ZT6bC3xP1YdWJ2OxTGPzcZmiTdOwWCxYpqwk7448dNuoWbeQoxYThbFGiiyzqNzdZurwwpUUTVxLXfMTdmMe5bHJfFXZdnkq1o2pfDErmSPmZCqzrO1aU7wnszn1TDJFsUYK4y2UpmXjavvEfv4Ap2abKTQaOTL7dRwO/2vvKcuk8ikzhbFGCidOpzLD/7rXrk6mxDKN88dlnJumUWKxUDJlJTVtznundbcXcfbF1mVfrM7G1fSnr1tn4cishZRONHHkmdf5Ki2Zolgzx3ZbW8s+k4O1pexkyt8+5Jtuvq/J/ZCrFTTc8unHje9EV50gCN92PQ44ZCmalFVZ5BeWULLnVaKPrSV1Z4X/BTRaqWhIZP3uD8jdsxx9/gbeK25eaCMz7Xm210/mzb0llBTmk7FoNOo2P6By8afUTN1KfmEub5hOs31TNv6NHrDy/i9XUjriVT4qLOSjtEg+L7C1y3kS99IH5OZm8NywjkuoeGcBqXskfvr2fkqKC8n9rzkMlXwlJKzYS25uFotHSsS9mEVubi65H71KYjenNQ+atpwhP+gqy9nNZNAnMvSd/cQVl2D8zQ9xb32Rrwq70e9uL8U9ajmPZezFmB6Ha+Nmaptv2o48TjyzgQbjMmIKSjDlZzA0vk32WGRc+VZC1uViyt9JmJzJmQxrR3u5VcMhrEs24/7xVsYVlzBu8yTcb7+ItcC/uoeu2IsxN4vIkRKaF7Mw5uZi/OhVwprPe6d1t1O9KpVLqrk8VlCCac+rDDy2lsptrdezd3AKo/64nKBjmVyN3cm4TQlc27PPF7A4D3Hq+TXUj/gFMQUlxGX9AvXBpZzIuumK1MUz5KUnCerFWWUb/iCRlxjAJx18jhV3vb0gCEJf63HAET1lLkkxOiQloIsjJdGArdLajWRlehKS43x5R7WjiYtyYj3T9AN9Jofsowbmps0kWgsgoYtNIiGqdWvJ+CRPx+pAqSNhYhwam5XT/jzRVR3i01MjSJmTgE4Jmpg5PB3fjXEajWVk77EyZsFykob77mZSVAJJsd0NDjoXEJtE6PDujh8xEDY7hZAoDQpANTKFsFFOrp7sxkDO4ATCEn3HoogZzYBGGw1NmWDdBzNxaJ7kwWfiCJAApQ7NlMQ2N1CJAckzCdNLoIkhdLwe+YzVv/EmJXk43AnofxqNClCNnIM+XsZxsMj/unei07o7i6gtDiZ0dgoDJEAXR+T0ONx5B3A2XVP9o/SoAg0E6nQEGHQo9Ab619txA56CbGo9k7k/NYEACRThCURONeA8eFMrhyaa0CkxBPTKEfkEJN7A+Ja7w49IPCcIwt2gx2M47AU72LBrH6Vn631BRoMdRsu4aZfI/vaUwQS3HY+qgpb285oaapSRRA7uZPvAYFoaDSQJv1OOOu3YCSGsJT6QCAvXIfnb5eGpocahQa/vhUxsvc5JXcYGzu0p4prDF/p5r8hIsd0oQi21Xhyq9unub9hrYHCSL8i8DUVwa4uHQgn4GYJ6r9jxagyoW3YuoQ4PxlvlxEvPI+RO615fg7tRR3CbLHIqnQaF046ned9K37lA1XRcSlA0+pLWeew1eK8UcWrKodZ6Nsooourp614NhcZLsKFfh0FdfzGjriAIdwH/Aw6VG9kj0y6McOSwMu1DNCt2svcJX4p667bpTC9rXsH343y95ddWRnZ1o3ZhYYQ1lnP+IuBP6vPu0OjQUUG9Ewj01a3OUY/s7xlRhRGmdWKzOWFs50HHnX6B0Fuwgcp37ES+k8Wo4RrAju0ZCzXNNVFKKBrl1ptTQz3ebtwR++vC4KIVuRHUvZxsTnGPDoWzBrcHaApU3PZ6FFpNyw2/z+oeHIZaacftAJpa0Tx2J16NHhVdZ8JV6cJQPPhDHsl6liD/q9QrGvZIfLKho3Dsn0TsuMYY0x2ukCAIwk38e2BURjI0Sk1FcSntGgDc9ciNOoZG+4INHEVk5la03mBVegz6GsrKfE35cmUOB0514/b7YBIpMVbeS8+kwgEgYz+ax6Eq/4u4ragEJo0oZ9/HTWML7HlkF3ZjRKcyhpQpBop2rCHnpG872VZE3tG23RYagrVwvqK8j4IOGa/c5tN04/U66/FqDAyM8gVC3uPZ1LQdTKs3IDVUUN906Nc/zsPpb8sQoDanoHV+yJl3inDLQKMT58eH2g8a/bpGJ6JVHsL2uwo8gOd4JrZ8Ca05rht116DWglxRfkuQ0GndNXFoY+up3Z3NNRlwFHH+gyLU5h/6Nd5CFZ9CqPN3nNldhrsRaJS5fjyP6uK+n5MkIPEGxjfdHXxuiC4VQRDuCn4+z2tIXLSYA0tSMRvdqEe+QMbuuRjCU/jFoiJW/kcyB3RhBAfriRkVjdT8+6qM5qcvPknR6mkkZw8l8qEYhg6TuHVWidvRM3PjNuT0dFKTX8fuUaMbPpnF6xK7f6S3MDB3zXKsv04lOUdCE2wgcriutf3Glk3qM5splUG2y7jTLZjfBCl+OXtXJSIB0Qu28oZqDW89/zgrnaAJf4SUtDdprZ1E4rwXyFm+FLMZJCmOl7PWk9RLvTDe3KUU5bb9Rkf47nyGTVzMA4UrODV1OsrBwajC4xg4QuJq82r6ydw/L49Tz1iojYokcLyBINV5/3esS2LYNpmvNq7l8502vJKOAabnGG7phYPSJGDY9BynXlvAkbedcI8B7YJNGMxSN+ouETrvBWqWL+WIGRRSHA9krfcNHO207jruW7UeedXrfBG/Fq9SR5BlGSMWxfgXmWsSGLbtZb5KX8Hnb9vwokb9YByhC0b3wonpnCKikcERfb4bQRCEr00kb/tGXWX7+sNsrulPSPgQdi0ZxsO93EUhfLuU7fsrCwquUtcQyOLl43ku/A5XoPRzRr5bixTYH/NPxvMbY5vJvyqO8aP3aqhuuEHszAnsGt//9uUIgiDcRAQcgiAIgiD0ue/oTKMyFXve54DteseLVZFMmp1CtBi9LwiCIAh3hGjhEARBEAShz4ksTIIgCIIg9DkRcAiCIAiC0OdEwCEIgiAIQp/rfsAh11J2phYX4LpopdLRjRmjcFF2tIA/lFbR1YSjji8+5Pl9FbdZz8PhP+9k1dG6buy7DW8V776fwR8ufr3Nhd7goezADn6yeTNTN73Br452ZwpaQRAE4dum2wHH6eJ9vHu+kSC3ld/mHOGUwv8XXVynP2HDp3/l93+zcrHTeaJlyk7ZUN9zb8dTRHurOGK9TrgupJu1b2I/y5G6gQwZ9PU2F3qDiphJz/L/Pf9jxvcLYUTEnZ4MXBAEQbiTuhdwXKvg91/eQ8r37qW6tJCKKBOP+3vP917iw0NVRD8WjdZ9vXXWyxYeXJcvUHmhDpfHRtlFFdFRoW22l6m+WEXlZRn3JRsVHj0xbZO6eT1UX6yirOoSDvcthYO7jtPnqzjn8uCoqqI6PIpodQfr3YbLcYnKr6qovOSio+JdjkuUfVXF6XbzbHtwOWXcch2nLzS1Cl2+QOXlmyY676rut+XB5XTh9oLLccG3fQcNTm5Xra/ubfbrvubC1eG+murcnWo0l2/v4Nxca13WoYtVVKgiiL45ya7Xg+vaTefSJeP2tqljJ+e15fia9n/O1cGJ8bg4d9533quvdeeABUEQhO7yq3nCdTqfDUercV+tpex6AK59Gfz+H5e4qi1kw19VLPu3rudUdnzxCfvV41j3sItfH6vD1Tb1p8vK7n1/Zr8ziPB+LhwBIeDR8/OmgMJ14Qgb9hVSJYUy8Fod/TUBVIePaQkYXF8VsGH/36kaEILWXYu10cDLsyYzPgjAw7kv/szav1ShDgniah1oB1xmyPAfo721mrfyXGLf3j/ye7tElEbFZcclGDmLbT+817fcfYHsffv4/SWJIUEy5+wexj0+h5dHBsHFv/BS5gmCIiWqz19mYGQUg67XUnE5nJcX/Dvj1V3VvQuX/8Yr75czaKjEZYeHq3WXcISZ2TZzHOEAnlry8/bxW2sj4Vol1ZfqCI+bwcZ/CyJ/7w7yhz/La2Pb78hVkcNzxYNY93/jGdJVOOq+xP68fey2ehgUGgR1tbgfnsa2CRGATFnBH9lQVscgrcRV+2XUj/w7GycZ2rVanauq4upgE4/cdCW6vviQn/39frb933/zHYvjb6zcfRbLz5/icWcX51V1gXf/+w9U6Az0d17hxrXLnHZH8fL8JzE37dxxOo81uSdwhYQQ5HFxri6Uhc89idmvFMeCIAhCd/kVcPTXGkga4eG/P4WnJo1h0Ml8sqN+wIuPhqLR3tt1AfIJdv+1ju//eAxD1IWovR6uNjbvvZbsvfs4PGgy258yEOS9xO5d77MnPNEXUDgrePOPR+j/wznsHBkCdUd46bf5DImLQgu4LxTwysdVfG/yfFZFSeC9xO5dGew7KTN+tITrTB6/PuRi8oxnSdGpcB3/kJ/92cXjbVtPOlH9tz+x+9oY3vr5OMIVgFfGJTfflVwc/vMfycbEWz8fQ7jKQ1nuDlZ9cQLHyDG4q2xcjhzHuiej2P/fuym+P5HXRlr51btVoOi67l1xVZ3lnELJ9743jVUREu6K/+Wpg9VUeSFc4SJ/3x/YrYhn47OPEq4C1/EPefqzL6iMNeH2glrV9OdvCf5q2fc3G9GxP+462KCO/Xuz+L0qnnXPPsoQNeCp41y9745effSPrK0IInXOU4zXNO077++UTTAwvuWqc1Fmq2PIgxE3dZ15KDtfjTYynuaZvV3nbFjvuZ/oIKg+3vl55UoVFU4lA8f+gFXfC0Xt/Jxf/fYIp534Ag63ld/mniDKMp8Xh/rOs9vlapcIWRAEQehdfnWpqAdFMajOBo/GM/tBFeeqg5j8w3GMG2pgxKCuYhYPp4v/wmeh45jxgApU/VFzHXdT27v7zBGya+5ntrnpyVcRxKBAFUP0voDi9NFC/qY1sXBkU99N0EAGqYKaulvq2F/wN64+8BjfV9dx+uIlTl+6yo2WKtWRe7gC9egJpOh8XwYFBRHU/6bumE5U2eu44a6l4nwtLg+gkAga0LTw0lF2nwlhxsQxhKsAVAwKCgA8gEzF+VoeefghtJ5aqpz38v2HQ6Cmmoshgxii6qruXfFQVlVN0IgJzIjw3Slv3LgOITqiFOD+qpDdZ0OwPBbOVfslTl+8xMWWwj2+rgmlEi4f4aW3drL7ou9vket5lBkPd33ndZ8uYPelKBb8P03BBoAqhCGDVOCpIru4mpjvT2J8U6K6IE0Iajztu1zcNsqqQ4iJuqlfznuJsgsQHdUczHoor7KhjYxiSJfntSkQu2cM88eGoga4IXNVEcKQ5t24LnHumgfHJVtLF5g6KIhu9LAJgiAI3dTF7a2W/E+OUCa7OH2iDiK/YNP/VpEvBzG+qIAj349nXFeZT+v+zrtH6xh0fx0fFRTA9Qtc9sq4ZEADFSesuKMm8L3me5ynmtMOiejvhwKX+OxUHdFjHmrt/rBXc66fngmDAZeVwxeUqAeX8+6n5a37DBzO+EgJnF/wt0shjJ/U2gpTfakWV/gjfo/fiBk/icn5xez+4042NAYR82//h1WmCNTAuRMnqb73Ub7fcr+UOX3pKkG6cLQeG2UXQ3hsQhBcqqJigJ4UDZz7ezUMnsAQl5WtndW9K94LlF1UMW5iRNON0kP5+Wq0Eb5WgbIvT+CQgigr+oSyNps98vCjDFFAuVdJkErm8F9PwD1ww11H/t+sRH1vDkO7DEM9lH1phQcmE9NRVS+c4IisZ/aw1oWOS9W4gqMY2vaKu1jFaVUEj988fuNKFRXX9EyOaG6BucQXFyB6wr3gqer8vOLhcFU1WkN8y3G4zts4d8/9RDcHitoxLIy3s/v4n/nFX1z0HxTNwmmTMX/NMciCIAhC1zoPOLwqtLpwBh4rwP1ALCkRV9h3WOLxHzzG0P4hRHU5zkDmyGeFnBo0HEsI3PA0AqDGw1U3gItzl2UGD7m35enSfaacIx49CwcDnlrOXZUYomvekYfKihNUh4/zBQwXa7movJ+fT//3Ns30bXxVS5UilMktb6PU8tmXlxjyoJ/jNwD1oGjmp0Qz3ytTdjCDVeUnOBcXwVCFh3P2OoIGhbeW5TpB/nkV30+OAPtfqFDrsYTAuUobbn08QxUu9tnqGPpYBNSe6LzuXblygYpr4aTcfFP+4b2ATPUVmSExT/GaqaOuo1puoILLR9ivGMeTEYUcuXCE7PpHSI32Z/CIi3OORgbdH9Jhq4DDXotjYARDWpKJ1vHJl5cYMnwSQ9qsd85mw3Hv2FvHb5w/y7lB9xPTHCBcPMFn18KZEakCe1Xn57UpEIsZ2aZ15LwNbaSpzb4lRsRO5rVYcF/+nNf+J5/Pznswh3xHUwsJgiDcBTp/llWEEDMsgIuu+5kx8d+IoRb3wxOYP/ZRHn80yjemoTMXC3n3ZAgzkiYzf4LZ90l4hCiFh6sygAq1Ci7X1/ma2p0n2PppBa6WN0iUqPvJVF/xveHgqvoLW0rrWrpb0AxkYGM1Zedb305wXa6i0tH0D5UKtfcKF50AHk7/NY/fX5Lav/3SCcfFKs61FH0dh+s62ihDy/iG/iolriu1OAA8tew/UEB5RDwzHlBRXWXj6uAoDAoXFefriB6i93Uh1IQSE6nquu5dcFWd5dygqNan9roqylzhvrJRog1ScrHKSnXzyxkeF6e/utQ6r4lHpuzvtXwvzkC4Go4cPcFg4zhG+HXPDWDQADh3zsq5pvLdda11V6tUcO0y1TL4zvuf+b1zODOM7cf7XL7qgkbPLW+2XKxr80bLtQvs/uRzqptaKLo8r02BWMzNgVhz94y7lsoLreXfuF7HZUVE03kTBEEQ+kqXv7Kniwupfngy5v5WNpWpmDwtys++7jr2ffo57hFPtmlhAJQq+iNz1e0BJL4/Oprf7/tffnY+iIFSKFH9WsdvoDIwJSaEVw68y8/+qmLgoHDUiqDWgEE7hvljT7P2wy18FhKC2n0Vt3Q/s1OiGAEQ8RiTB5fz7u4t7JNUDL43CLXf4zdkKor3seG0B61mIFy/ijrKxLIfNh+/ipixYzBk5TFvyxGCPNcZGGXi1SmPokUm/3wtw4bdj9pzlrLqUGIel3xdCEFRzNYAdFH3TvnGb7QfVHm2TbeBinHjJxCTlcfzW44QHgiXr6sY8uiPWfcA4G1E9npQDx3H41oV1WpwqR5i6ih/58KQGP+DH5Cf/RcWb/kcrfo67v4Gfj7NV/eg4WN4vOR/2fDOFrQqmatBw/n5tB8zfkD7UqKjH8WwN5+fbchDPXQy/5MSTRAwOCKCoOICXtjyBYO0UUQrlIQ3jd/o6ry6Ss9ybpDhlkBscnNAcbmcLR/8lXP9QwhXe7jsCcFimcxk0Z0iCILQp+6ObLFyHedcKsIHdTxwz+2spZoQhmhuEx/JdZxzehioCUEr3byOB8flOtxBoYR/jbcQ3NfqqHZ5GKgJRdvR9h6Z6itXISiE8AFf4ym507r3lAeHo46rBBAeEoS61yeybzq3/QcSrrn55PiWXVUOZEhI90+821VLtXsg4Vqp9wdzemUcdVd950UrBosKgiDcCXdHwCEIgiAIwneaSN4mCIIgCEKfEwGHIAiCIAh9TgQcgiAIgiD0ORFwCIIgCILQ57oIOJzkpFkwTzRjjDGy9OCdqZS/KjYlY3wpr9fKK0u3YF5x6KZvbbz3lJGFH8kdbtMzV0lfmUPoC3mMfe1Lyhr7YBd9yJu/lKIpm3F+y+r9bVa29zBjl+wndH4Bm//xNQooKSFi/p8wLPmEhUdutF/WcIGFS/MwPJ9DxLaLvVJfQRCEZl0EHBqS0nPJ37+VOVH/qi8PBhM3bxkzOpzDuyt2MmcbWZjl7GQdBZaZP+Lorx4mRnnr0to0E6W7bO2+c22bTuG0HbRL+N6QR6XJROXBvgiMOqYYnkLUsz9E6qDefeX6rll8NmqU7xNjpOiJ+ZzaY8V756qAc1MyRWl5fbZPd9ZCChdl4+lgWUzyeI6uicbSk7ZJ3QPs2TCBLeP6t/8+MIIt6xPZMyGwB4ULgiB0THSpdElDtCWFhKhvuh6tgszxSGc+5UqbOMRbcog64giNvYMpT/Vx3Dcl5o7PY6EY/iyPlRzj+8X5PPaSgbo1qVRV3uFKCIIgCN3S44DDmrWU+VPNmGKNGOMtzF+VjbWhaaGcQ2rsdHacbF7bTuY8I/Mz7G2WJ7N001oWzp6OxWxm+qoc2j3PO8rIXDELS7wRo8mEZfZa8tquIFvJfGU65lgjRstCdpT5/4Qvn8lh5SwzplgT5lkrOVDdfnnRxulYLGZMxtt0qTTaKXonlVkWE8ZYE+Yp89lc4GvNOLQ6GYtlGpuPyxRtmobFYsEyZSV5nTV2+Gv4JO4Jr8RR3FqYq7AIr3ES2qZket4zOVifSaYo1khhfDLlbx9qP4X48dcpMaVy/qPXOTYtmRKLmSOLsrnuOzO49qzkC4uJQpOJoonJHNvVJgWcLZvyKRaOmI181lGXir2Isy8279vCF6uzfcn6fAuxzTZSunozJxbM4ugTZo7Mfh2Hn1O6N1OoAEnDAHMiIRobVyuaz0WbuhuNFE1N5WyhvXXDRhs16fMpiTdSGGuiZMHr1La9nuxFnF2UTJHJSKHJRMmstdQ0XRfuj5ZSYrFQ+Xsrnvw1lFgslDwxHWtx6+Y9O+89IPdDrlbQcMunHzdEl5cgCHeBHk9tKUvRpKx6mS2jdEiOIl5/fiGpO6PZuyjavwIarVQ0LCNj9zI0jjxSp67hveIklsUC2MhMe57tgYvZujeDaK2MvTiP8jY/oHLxp9S8vZX8NXBo9Sz+c1M2KTtncnMC0ltZef+XKykd9QYf7U5AOraD55/JRra0rhH30gfkvmTjvaeSKe6ghIp3FpC618Dyt/eTNFyDXHWIvIu+NLgJK/aSgJ3M2RYKkrPYMq2rtLodC5q2nCHam45GGU2oWUdNYRHeqYkosHK52I5mRpzvD+o8xKnn19Dw+Hpi3k5AfeUQ1ueXcmLwR4ya1qashgIulbzKIxm/IEACd5XNF4E6cjizrpTATft5zKQBhxXHmTYtJ/oUHvkoBW/+Uo5svLnGdqpXpXJJepnHClIY4CzC+h8LqdwWjfHF5mtC5lplAMN3ZhAk2bA9M40zGSloFxm6fX48ZQXUO/UMivadX2/ZW1Suq0D79n4ei1VzLWspx9LWELDnTcJ1cG13GqfyhzIs613CdDZqVs3jxCs6Ru+eywDA+f5KLjbO5bH8mQyQZK4fL6WxqQlHPWU9xim+LpVy22KM6YntI/aenvcmqtgZGPRDu/Wfs+EPEp9s6Oj54Z9E7LjGGFM3ChMEQegDPW7hiJ4yl6QYna8fXxdHSqIBW6UV/9sZ9CQkx6EB0I4mLsqJ9UzTE+mZHLKPGpibNpNoLYCELjapXfeGZHySp2N1oNSRMDEOjc3KaX+e6KoO8empEaTMSUCnBE3MHJ6O70Z3RGMZ2XusjFmwnKThvpudFJVAUmzXoU53BMQmETr81nppzAkoSoqoawRsh6irGo023rdvT0E2tZ7J3J+aQIAEivAEIqcacB686WlbNYLwZ5IIaCpeHaVvuslJKKjHbbVy3QloDWjH6v2rsLOI2uJgQmenMEACdHFETo/DnXegTUuIxIDEJIIkAD33xIQhn/F/HIbX+j7HzCaKTEaKnt6HatF6opoS0LjyD+E2ziQqVuPbz9SnCQ0soLbQCdio/aSSAdOfIywcUOoJm/ckA44f4HJLK4eE97KNhio7XiQCRsYR5Gdq4Z6fdx9FVALhJj/Pd5OAxBsY33J3+BnadXIeQRCEPtfjFg57wQ427NpH6dl6X5DRYIfRMm7Ar9u3MpjgtoMAVNAyWq6mhhplJJGdJVsLDKal7UCS6HCkXUecduyEENYSH0iEheuQ/O3y8NRQ49Cg13+9loueUsTEE8Lr1FVC0IliXCMSeagpk5vHXoP3ShGnphxqjSgbZRRR9bSLxdSRBHR0brVJGDbaqPrdGv7+thWvbjRhi17FYPHjJlhfg7tRR3Cbm7RKp0HhtLf70ygCb746/A9RFVEzeei3cwlSytyoyOHMqgWcCM9ixBM6PPYaFDpd64Wt1KHWwVVHPTTW43GA6p7g1sJ0OlQ4uXEF0IPm2fU80Lgd25IpnKiWGGCey9AVc9H48Wfu8XnvAYXGS7ChX4dBW38xBlQQhLuA/wGHyo3skWkXRjhyWJn2IZoVO9n7hB4JsG6bzvSW7n4JkLne8msrI7d7taILYWGENZZz/iLQvQe+rml06Kig3gkE+upW56hH9veMqMII0zqx2ZwwtvO7UZ+8NyLFERpbz7nDFQRVfs6ACcsIaK6aLgzFgz/kkaxn8Tf/680C4p/lofhnASeujKUcW7OZEPN6QruKIoPDUCvtuB1AU0uUx+7Eq9H3PLptplKj1ulQK0Ed/yz6+F1U5hbhfSIJ1T1heE/5ghsVQKMdtx1U2mBQgioYPFfqoTlMtdvxoKH/PU1la6K5L+1N7ksDb/UhrM//J6ezJjH66dYLUKGkwxt7b5z3r6thj+hSEQTh7uZfl4oykqFRaiqKS2nXAOCuR27UMTTaF2zgKCIzt6L1BqvSY9DXUFbm6yKRK3M4cKobt98Hk0iJsfJeeiYVDgAZ+9E8DlX5X8RtRSUwaUQ5+z62+v5tzyO7sBsjOpUxpEwxULRjDTknfdvJtiLyjrYZoIiGYC2cryjvg6BDIsQch5y/nerSSLTm1huiKj6FUOfvOLO7DHcj0CgmcgNsAAAfH0lEQVRz/Xge1cX22xfXlqOMmoMVuGUANQpJDepg30DNrmji0MbWU7s7m2sy4Cji/AdFqM0/JKgXX5/1eoBGGffJHGqKnaj0kSiAoMQE1CWZnC92AjLX9uyitj6OUJMG0BOaOIJr2duprQYa7dTs/JBrIyYxqOn0XSvIwVHl+3sq1CEolLe2xii1YWC1cu2mrrsen/ceCEi8gfFNdwefG6JLRRCEu4KfD50aEhct5sCSVMxGN+qRL5Cxey6G8BR+saiIlf+RzAFdGMHBemJGRSM1/74qo/npi09StHoaydlDiXwohqHDpPZvoXRKz8yN25DT00lNfh27R41u+GQWr0vs/pHewsDcNcux/jqV5BwJTbCByOG61vYbWzapz2ymVAbZLuNOt2B+E6T45exdlYgERC/YyhuqNbz1/OOsdIIm/BFS0t6ktXYSifNeIGf5UsxmkKQ4Xs5aT1Iv9cKoxiegWbEUh/5ZHmz72q4mgWHbXuar9BV8/rYNL2rUD8YRumC0fwU31uDM2Ix1uQ1voxpVVByD1zyHtilgcKQncyq3HtxOPPVQ/ng2CtVQ7nv7XSKH67hv1XrkVa/zRfxavEodQZZljFgU02vvYHtP7uAL4w4AFDoDQeZljFgQ4/t3zAuMSKvn5IrHKbS7UUTFMTj9VcKbus4GzE5nWM1Kvppm5ISsRh3zJMPW+QaMAnjPHODMmjVUOtwg6QiauIyh/6f9uJyAJ+Zw38G1HDP/DoU6mNA1ezGY6Pl57wFFRCODI/p8N4IgCF+bSE//jbrK9vWH2VzTn5DwIexaMoyH7+AkWsK3T9m+v7Kg4Cp1DYEsXj6e58K7WUDp54x8txYpsD/mn4znN8Y2k381XGDJ6i/Jl28gPzqa40/f26t1FwThX5sIOARBEARB6HO9No7v7iJTsed9DthuM52SKpJJs1OIFqP3BUEQBOGOEC0cgiAIgiD0OZFLRRAEQRCEPicCDkEQBEEQ+lwXAYeTnDQL5olmjDFGlh68M5XyV8WmZIwv5fVaeWXpFswrDt30rY33nrpN8rYeu0r6yhxCX8hj7GtfUiaSbHXpWsZCSiaaKYodxZF1ZV1v0EPOdAtFHVwT558yUt4n10TnyvYeZuyS/YTOL2DzP75GASUlRMz/E4Yln7DwyI32yxousHBpHobnc4jYdrFX6isIgtCsi4BDQ1J6Lvn7tzIn6k4nIb9bBBM3bxkzYr5O2nc7mbONLMzqbEIxBZaZP+Lorx4mpoNXYmvTTJTuumnmksZDnDCN4rNRTZ9YM0df2oGj7+eXaiXnUB47nbNn7uA+gQGztmA8mM9Dlt7NWdM9wWjnLSP8a10TXXNnLaRwUXaHs/THJI/n6JpoLD1pm9Q9wJ4NE9gyrn/77wMj2LI+kT0TxGhqQRB6n+hS6ZKGaEtKu4RxdwcJbXoJ3y87hunjTdxbv4sTq3PaJwkT+oiGIEsKoXfdNSEIgnD36vFrsdaspazNKKLc5sQt6Rg98TmWpaVgCATkHFLj3+ORjA94djiAncx5FvIm5vLuLF3T8u1Is+JwlpRyuqqGYPPLvLkqqTV1iqOMzN+k815+ZctMoy+vW0Zi8wqylcxXprP9oBWnNo7n0t/gWT+fPOUzOaxdvoEDJ2Wk4ZOYPJimvCo+RRuns3J/DfV2J2NWHWbLlJvKbbRTtHMNm7OKqHS0zjS6OF7DodXJrP1LPfV2GfeZaVjeAdRxvPy7V0nszXxvSlDoYtCZH+FcRgVyYxJqJXjKMjn12nYcZ5ygMaCdt5xhs2Ka/uAyrj1rOb3tAC67G0VUPIPTlnO/qbnVoM3yelAEhhH0s9WMejoGGsv4anYatXYZd4MT588t2FXAiOcYuSnFl8/FWcE/Nq7hwsFK3LIGKX4uw1e1TYDmpHqRGduDy7i3+kMuHbPTKEuErtuLIbaH58NxiK9WvUXtUStu2TdL6r0vLuf+pky6zk3JHDuWQIS2AsfJ88jyUPTr3iCy6Zrxnsnh1PIN1J6UUQ2fROhN10Tdxumc2l+Dx+5Es+owj7S9JuQcyuO3o5gVh6ekFLmqhn7ml3lkVVJTnhsnde+s4NTuAtzoCXkqDs/ucgbtySCyp7mC5H7IV/pxa6/cP+mv+yf9xYRygiB8w3rcwiFL0aSsyiK/sISSPa8SfWwtqTsr/C+g0UpFQyLrd39A7p7l6PM38F5x80IbmWnPs71+Mm/uLaGkMJ+MRaNRt/lVlYs/pWbqVvILc3nDdJrtm7Lxr2fByvu/XEnpiFf5qLCQj9Ii+bzA1i7nSdxLH5Cbm8FzwzouoeKdBaTukfjp2/spKS4k97/mMFTylZCwYi+5uVksHikR92IWubm55H7U/WAjaNpyhvygi+4D2YajsBxFdDQDlEDDIaxLNuP+8VbGFZcwbvMk3G+/iLXAVzdv2VtUrqtg4Or9mEoO89gsuJS2hurmE+fI4cy6UgJX7cdUWEhc1pvoY5rqoIzhgYxcjHtfJiTQwODf5mLMzcXYHGxgp3r5AqqqJzFsTwmmggz0ykwqX8u7pYtA/iiPxlnbGPtxLuM+2sp9hu6dmw65of/4F3hk72FMxfmMmgEX09ZQ3aZXy3vMinrRu4zek8uo5BrObcrGN2OLlXO/XIlzxKsYCwsZkxbJ1YL23VkhL32AMTcD/W2uCRqtuBoSGbH7A4x7lhOYv4HzTdezJ38DJ3Y7CX/nMKb8nYTbD+HsYBiIKnYGhllx3XoaaPiDRF5iAJ908DlW3PX2giAIfa3HAUf0lLkkxeiQlIAujpREA7ZKazeSlelJSI7z5e7UjiYuyon1TNOd70wO2UcNzE2bSbQWQEIXm9Sue0MyPsnTsTpQ6kiYGIfGZuW0P4Mvqw7x6akRpMxJQKcETcwcno7vRp98YxnZe6yMWbCcpOG+KEKKSiAptnfHFgTEJhE6vKN6yThWmymKN1E43sJXZydhSEvy3aRK8nC4E9D/NBoVoBo5B328jONgEQCu/EO4jTOJitUAEgOmPk1oYAG1LcnrJBTU47Zaue4EtAa0Y/18BK8+QPVfggl/cS4hOkDSEz4nCcVfDlB300WhMM9hSExTBBaoZ0BvnLrwBPRPJTBAK/mObcpkQrByrU3CP4UxkbCmaygoJhqVzYrcCFQdwnFqBOFzElArQRUzh/u6c00AoEeb3BQsaEejiXLS0HQ91x08gPcHc4gYIYFSR+isJxnQQVShiEog3NS9Jo+AxBsY33J3+BHJ2wRBuBv0uEvFXrCDDbv2UXq23hdkNNhhtIybdonsb08ZTHDb8agqaHkUrqmhRhlJ5OBOtg8MpqXRQJLocKRdR5x27IQQ1nKTkwgL1yH5mzDWU0ONQ4Ne35v9I90hEZKaxUMTJbxOG3X/swbr4h0E/O5Zgq7Y8WoMqFWt66rDg/FWOfECHnsNCp2u9Y+v1KHWwVVHU9p2bRKGjTaqfreGv79txasbTdiiVzFY/LgJ2m3c8NioXmKhtuVLGY9yNJ4G2l0U/fVhvT+IqKGCf2x6i+qC09yQZd++G4IJb3tdSMGt+1X6rhkvgNNOIyH0b3NNqMN10I0kwiiDUXZ4PTvxONyohrc5Zp0OdS91dSg0XoIN/XzHcZP+YgyoIAh3Af8DDpUb2SPT7o7hyGFl2odoVuxk7xO+FPXWbdOZ3vK2ogTIXG9pcZCRXd2oXVgYYY3lnL8I9LSP+2YaHToqqHfS1EcvU+eoR/b3jKjCCNM6sdmcMLbzoKOvXp5UaHSodRLodATMS6I6OZvak8+iuUeHwlmD2wMofTVw2+tRaDUoANU9YXhP2fHQdAE02nHbQaUNbik7IP5ZHop/FnDiyljKsTWbCTGvJ7SrKFKnp780msG730XfRYtFj4INJeC5dep659alfFUxmVEZW9BoATmPSvMG/8rU6FBSgafNNeFx1PdSAgANKq0aj70GL9G+Y79i96Wx7wUNeyQ+2dDRGf0nETuuMcbUO/sRBEH4uvz7zVdGMjRKTUVxafuHPXc9cqOOodG+YANHEZm5Fa03WJUeg76GsjJfk7JcmcOBU924/T6YREqMlffSM6lwAMjYj+ZxqKqrDf0QlcCkEeXs+9jq+7c9j+zCbjzKKmNImWKgaMcack76tpNtReQdbTuCREOwFs5XlPdZ0EEjvhaOjwu4poxE0gGjE9EqD2H7XQUewHM8E1u+hNYcB0BQYgLqkkzOFzsBmWt7dlFbH0eoqSlwcpRRc7ACtwygRiGpQR2Mou2NV6VDHVjDtRM3nbPwSYTHnuZiejYuh+8rj62Mmtwyvxuf/DHAoMdzrAjXTSfW01CPQm9ggBbfsf0xm7oGPwuNSkA3opzaj62+lgJ7HtXduSa6EDJxEor83/OPkzI02qn9n31c66WTEpB4A+Ob7g4+N0SXiiAIdwU/n900JC5azIElqZiNbtQjXyBj91wM4Sn8YlERK/8jmQO6MIKD9cSMikZqvucqo/npi09StHoaydlDiXwohqHDJGyd7qstPTM3bkNOTyc1+fWWt1QWr0vs/pHewsDcNcux/jqV5BwJTbCByOG61vYbWzapz2ymVAbZLuNOt2B+E6T45exdlYgERC/YyhuqNbz1/OOsdLa+pdJaO4nEeS+Qs3wpZjNIUhwvZ60nqVd6YWQcaUY+SwMkDephcYSnv8x9OoAEDJue49RrCzjythPuMaBdsAmD2Xd0ipgXGJFWz8kVj1Nod6OIimNw+quEN7dINNbgzNiMdbkNb6PvTY/Ba55D27b5XxnHfYvi+HLd4xStk1CMeo5H355JADrC123Fs/F1KpPX4pbVKHQGQqanoe2Nw24SMDWNiMI0vhj/PqjjeODjLdynBe285YSt2EzZ1F301wagjokmKPi0n6UaiFiznOu/TuXzHAllsIHA4W2aaWzZlD+zGZcMHrsM6RaOvAmK+OWMWZXYZfSuMr/MQ7NXcGreeKqUekJmxKGRyun3dU9CG4qIRgZH9EJBgiAIfUQkb/tGXWX7+sNsrulPSPgQdi0ZxsPi9cV/Hbb3KJ1azH0HtxDuZxBatu+vLCi4Sl1DIIuXj+e58G7us/RzRr5bixTYH/NPxvMbY5vJvxousGT1l+TLN5AfHc3xp+/tZuGCIAi3JwIOQbhjbNTl1zMgPhq10olz0zzKy1KI2Tmz6ZViQRCE765eGQ5395Gp2PM+B2y3DioEQBXJpNkpRIvR+8Kd1ChzNWsplStqAAnViMkYVotgQxCEfw2ihUMQBEEQhD4ncqkIgiAIgtDnRMAhCIIgCEKf6yLgcJKTZsE80YwxxsjSg3emUv6q2JSM8aW8XiuvLN2CecWhm7618d5TRhZ+1BczaVwlfWUOoS/kMfa1LynrpUmgvnkNvP/mJ4x84U+E/uIYRV/nuEpKiJj/JwxLPmHhkRvtlx0/xvgleUTMzyHl0z6b4UQQBEHoRV0EHBqS0nPJ37+VOVHqzlf9zgombt4yZviZgbY9O5mzjSzM6mzyKAWWmT/i6K8eJqaDV2Jr00yU7rpp5pKq9yiNGcVno0bxWayZktlLOVvg/+wmzXWzzTZyrNO6dc6dtZDCRdkdTOgVyJzUCRx/ZjAhX7t0QPcAezZMYMu4/u2/HzmKw78Zzy8fEA10giAI3xbiF7tLGqItKe0Sxt0VVNFEZpVgys1gWDLYX5rHqYLemxVTEARBEHpTjwMOa9ZS5k81Y4o1Yoy3MH9VNtbmqaTlHFJjp7PjZPPadjLnGZmfYW+zPJmlm9aycPZ0LGYz01fltJ+J1FFG5opZWOKNGE0mLLPXktd2BdlK5ivTMccaMVoWsqPM/yZ2+UwOK2eZMcWaMM9ayYHq9suLNk7HYjFjMt6mS6XRTtE7qcyymDDGmjBPmc/mppv+odXJWCzT2HxcpmjTNCwWC5YpK8nrzZhAKaHQ6gmZ9iqGJ2Rqdh/ADYCNmnULOWoxURhrpMgyi8rdrVOL165OpsQyjfPHZZybplFisVAyZSU1bep2PX8z5dPMFBqNFD0xH2tud1tQbkPuh1ytoOGWTz9ufGe6lARBEISb9XgeDlmKJmXVy2wZpUNyFPH68wtJ3RnN3kXR/hXQaKWiYRkZu5ehceSROnUN7xUnsSwWwEZm2vNsD1zM1r0ZRGtl7MV5lLe5McnFn1Lz9lby18Ch1bP4z03ZpOycSdeZzq28/8uVlI56g492JyAd28Hzz2QjW1rXiHvpA3JfsvHeU8kUd1BCxTsLSN1rYPnb+0karkGuOkTeRRnQkLBiLwnYyZxtoSA5iy3Tvt585kHTljNE29XRSASNegTvwVJcjSmolTLoExn6zno0URq8x3dQ/vMX+Wp4LsNMEqEr9hKKHdtsC47kLEbdVDfv8c2Uv5LHwFU7ibMY8B7dzLEXUzlr+ID7h7eup4qdgUE/tFsXUcMfRJIxQRCEf0U9Djiip8ylJbTQxZGSaCDzmBWZaP/S06MnITnOl2JeO5q4KCd5Z+wQq4MzOWQfNTB370yitQASutgkEtpsLRmf5OlY3w05YWIcmjVWTjeCrqspwqsO8empEaRsSPCtGzOHp+O3s8LfA28sI3uPlTGLdpI03HfDlqISSOrlrpeA2CS/JoZSBaqhoR6PB1AaCJttaFmmGJlC2KjtVJ+0g6nrtLt1H2Qjj3+ZxywGFIBi7NPcN/Z9/pFv5f7hbcqNSiC8m8cbkHgDY1RH2UP+SaBIMiYIgvCd1eOAw16wgw279lF6tt6XEbXBDqNl3OBfwKEMJrjteFQVtLT919RQo4wkcnAn2wcG0/J8Lkn4nZLUacdOCGEtjQcSYeE6JH+7PDw11Dg06PW9komtxzwNbgjUoVIBOKnL2MC5PUVcc/i6grxXZKRYf0py4rY78ZZsoOyJzS3fehs0KA09fyNEofESbOjny8Z6k/5i5ldBEITvLP8DDpUb2SPTLoxw5LAy7UM0K3ay9wlfinrrtulML2teQQJkrrd0gcjIrm7ULiyMsMZyzl8Eun4w7x6NDh0V1DuBQF/d6hz1yP6eEVUYYVonNpsTxnYedPT9i5syrmPlKEYsJkgJ3oINVL5jJ/KdLEYN1wB2bM9YqPGrJhrUOg3qJ9ZjXBHX6zVt2CO6VARBEP4V+TdoVBnJ0Cg1FcWltGsAcNcjN+oYGu0LNnAUkZlb0XpbU+kx6GsoK/MNEpUrczhwqhu33weTSImx8l56JhUOABn70TwOVflfxG1FJTBpRDn7Prb6/m3PI7uwGyM6lTGkTDFQtGMNOSd928m2IvKO2tuspCFYC+cryvsm6GiU8Tps1GWtxPqxROjsSagBr7Mer8bAwChfIOQ9nk3NLYNpNai1IFeU39LaEDJ1MsqDm/mq0OZbJttxFeTg6IXzHpB4A+Ob7g4+NxgqulQEQRC+s/x8nteQuGgxB5akYja6UY98gYzdczGEp/CLRUWs/I9kDujCCA7WEzMqGqn5nquM5qcvPknR6mkkZw8l8qEYhg6T8P99Bz0zN25DTk8nNfl17B41uuGTWbwusftHegsDc9csx/rrVJJzJDTBBiKH61rbb2zZpD6zmVIZZLuMO92C+U2Q4pezd1UiEhC9YCtvqNbw1vOPs9IJmvBHSEl7k9baSSTOe4Gc5Usxm0GS4ng5az1JvdEL46ng/DQj5wM1BIxIQJe+k/vjfQWrJi7mgcIVnJo6HeXgYFThcQwcIXG1XQESofNeoGb5Uo6YQSHF8UDWesI0oIj5BY+s2ox14yyKqpyg1CCNnoT+laQeV1sR0cjgiB4XIwiCIHzLiORt36irbF9/mM01/QkJH8KuJcN4uKvBrt8KDbz/1hE2nb3BlUA9e34d3eGkZp0q/ZyR79YiBfbH/JPx/MbYZvKvimP86L0aqhtuEDtzArvG9799OYIgCMJdQQQcgiAIgiD0uR6/pXJ3kqnY8z4HbNc7XqyKZNLsFKLFWxGCIAiCcEeIFg5BEARBEPqcyKUiCIIgCEKfEwGHIAiCIAh9TgQcgiAIgiD0uS4CDic5aRbME80YY4wsPXhnKuWvik3JGF/K67XyytItmFccuulbG+89dZtssT12lfSVOYS+kMfY176krNezpdo4/5SR8j6pe2caeP/NTxj5wp8I/cUxir7OcZWUEDH/TxiWfMLCIzfaLzt+jPFL8oiYn0PKp3f62ARBEISvo4uAQ0NSei75+7cyJ0rd+arfWcHEzVvGjBj/UtG1ZydztpGFWZ3NYKrAMvNHHP3Vwx3OVVGbZqJ0V9up0pxULzLy2ahRHX5KNla0q7t23jLCv1bdu+bOWkjhouwO0tcEMid1AsefGUxIT3age4A9GyawZdxN82yMHMXh34znlw+IBjpBEIRvi+/oa7G9SUO0JaU1I+43TkP4phLCPDK+4MPC+agtGNNGAxIKVft1gywpBH0zFRUEQRCEFj1+RLRmLWX+VDOmWCPGeAvzV2VjbWhaKOeQGjudHSeb17aTOc/I/Ax7m+XJLN20loWzp2Mxm5m+Kqf91OeOMjJXzMISb8RoMmGZvZa8tivIVjJfmY451ojRspAdt+QMuT35TA4rZ5kxxZowz1rJger2y4s2TsdiMWMy3qZLpdFO0TupzLKYMMaaME+Zz+YCX2vGodXJWCzT2HxcpmjTNCwWC5YpK8nrRrqW21KCQpJQSJIvZFQFNP3btwygbuN0Sixmiow3d6lYOfuUiaPPzOeIyUTp6s2ceMpEYfwsvjraut71/M2UTzNTaDRS9MR8rLn+T0jfKbkfcrWChls+/bjR611KgiAIwt2ixwGHLEWTsiqL/MISSva8SvSxtaTurOh6w2aNVioaElm/+wNy9yxHn7+B94qbF9rITHue7fWTeXNvCSWF+WQsGo26zY1JLv6UmqlbyS/M5Q3TabZvysbe0X5uYeX9X66kdMSrfFRYyEdpkXxeYGuXZC3upQ/Izc3guWEdl1DxzgJS90j89O39lBQXkvtfcxgq+UpIWLGX3NwsFo+UiHsxi9zcXHI/epXEbuZRCZq2nCE/0HVvIyDkpQ8w5mag77DublSJ6zFumsyNPxYg/b/5PPaUm5qcUgC8xzdT/koeqmd2EldSgnFNDPVrUjl7sn0pqtgZGGbFdauZrOEPEnmJAXzSwedYcdfbC4IgCN9OPe5SiZ4yt7W7QRdHSqKBzGNWZKLxb+SAnoTkODQA2tHERTnJO2OHWB2cySH7qIG5e2cSrQWQ0MUmkdBma8n4JE/H+m7ICRPj0KyxcroRdF3l7qg6xKenRpCyIcG3bswcno7fzgp/D7yxjOw9VsYs2knScF8UIUUlkBTlbwH+CYhNIqB3iwQ0BETpUOj1SOp6AqMkJH0YnpN2vEDdB9nI41/mMYsBBaAY+zT3jX2ff+RbuX+4oaUURVQC4d083oDEGxij+nWw5J8EimyxgiAI31k9DjjsBTvYsGsfpWfrfa0DDXYYLeMG/wIOZTDBbcejqqBlFGJNDTXKSCIHd7J9YDAtjQaSRAcjGDvmtGMnhLCWxgOJsHAdkr9dHp4aahwa9PreSP16p0kolIDK1yWjAN/Yj0bw4sRtd+It2UDZE5tbtvA2aFAaev5GiELjJdjQz5f2/ib9xVTzgiAI31n+BxwqN7JHpl0Y4chhZdqHaFbsZO8TeiTAum0608uaV5AAmestXSAysqsbtQsLI6yxnPMXAX03tvOHRoeOCuqdQKCvbnWOemR/z4gqjDCtE5vNCWM7Dzq+PS9uyoAGtU6D+on1GFfE9foeGvZIfLKho568fxKx4xpjTL2+S0EQBOEu4N8YDmUkQ6PUVBSX0q4BwF2P3KhjaLQv2MBRRGZuResNVqXHoK+hrMw3qkKuzOHAqW7cfh9MIiXGynvpmVQ4AGTsR/M4VOV/EbcVlcCkEeXs+9jq+7c9j+zCbozoVMaQMsVA0Y415Jz0bSfbisg72nYEieb/b+9+QpqM4ziOv9nUJ4RNgsXC2WXTYhqsGBQIwoqZB2WQRWBBSCAU/mmIFcHQQUI4stY8VIcwg26hEOwknYJieMhDuJtUtEO4KDClxxl0iDBopWFPNfm84Dk9PD9+z3N5Ps/v9/y+P5zb4U12roRCB1QdbcP+OMXLZ7mvIxFmnqUnad7/gee+LVwgmFwpchTwaUpFRGTL2uD3vINwTx/T/VFCwRUqGnp5cL8Tr7udgZ4Mg90Rpl07cDo9BPb6Mb69c+1+Tp4/RubKcSKTPmp2B/DVGmx8vYOHjtHbmIkE0cg18qsVuOra6Lsa/v07/YGXzuEY80NRImkDh9NLTZ1rbfwmN0m0K8WsCWbeZCXRQigJRlOMR/EwBuA/d4sbZcOMnT3C4CI43PW0X0yy1juD8Jle0rFLhEJgGAe58HCEVqtnYXKTzHWlWDJhNW9CooWZJNiaYuyPe9e93BYYoD6eYn70FJnXi2B3YOxrxnO5ddNds1V/Zmf1ppsREZESo91i/6mP3Bl5SmqhnCr3Lsb7a9mz3s+uJWGZibEZbr4q8KHSw9SQv2hRs1+afU7D3XcYleWETjRyPfhd8a/sCw7fW+DtcoEDHYcYbyz/eTsiIvJfUOAQERERy23RSqMm2akJpnOfip8uq6H5dDt+rYoQERH5KzTCISIiIpbT7lciIiJiOQUOERERsZwCh4iIiFhOgUNEREQsp8AhIiIilvsCMwUnvqUYix4AAAAASUVORK5CYII=;imageBorder=default;fillColor=#FFE45E;strokeColor=#FF6392;fontColor=#5AA9E6;rounded=1;" parent="1" vertex="1">
          <mxGeometry x="175" y="350" width="540" height="302" as="geometry" />
        </mxCell>
        <mxCell id="1IcF2C1W_d4IgtXrjlez-6" value="" style="shape=image;verticalLabelPosition=bottom;labelBackgroundColor=none;verticalAlign=top;aspect=fixed;imageAspect=0;image=data:image/png,iVBORw0KGgoAAAANSUhEUgAAAY8AAABICAYAAAAOAHlfAAAABHNCSVQICAgIfAhkiAAAABl0RVh0U29mdHdhcmUAZ25vbWUtc2NyZWVuc2hvdO8Dvz4AAAAtdEVYdENyZWF0aW9uIFRpbWUARnJpIDI0IE1hciAyMDIzIDA0OjAxOjM1IFBNIEVTVBsJuxoAACAASURBVHic7Z1/XFTXnfffgYFLMDOEMgSTscaMMYLaDHF2meJTcLZipw8oqUSTWPYlatYQrVU2MbC+/FFNNBbUVImvGPSpv56lNInBVsXtRGyIdiW4D4ZxVTAmIxqnkTAugQnIHRjy/DEDDAgy02AwzXm/XvePuT/O+d4z557POd9z7/ne1dzc/BUCgUAgEPhBwFAbIBAIBIJvH0I8BAKBQOA3QjwEAoFA4DdCPAQCgUDgN0I8BAKBQOA3QjwEAoFA4DdCPAQCgUDgN0I8BAKBQOA3QjwEAoFA4DdCPAQCgUDgN0I8BAKBQOA3QjwEAoFA4DdCPAQCgUDgN3+beJTlED89n2pXz92O0ztYlByPPk5P/OJi7INg4KDTj+2Cv50L/3GSSbs/p7Vzh+s466ebME6JR69/huKGobTuZqq3pqJ/oXTQ0rPkmTCuOt5rr409T+lZdEgetHw6aT1zhkmvfMwFUYcFQ8ggjjzsHN5eQOOMQipPVVK+LQ314CU+JDgOLGLChAlMmDABfYKJ9BfyKb3kb2Ngp2iOnkX7HX7nX701tSv/rk13hzXGjZ/y66OQMf0+Qjr3BSay4pCZsn2ZRAcOpXFDiQrD/BU8rZP8v1QuIStuFjsu9X045NGHyaCWX1cMvjAJBL6iGLSUXPXUXwtmxBjtoCV5JyBFzeb1I8sYZ6/h+L51rJpnRX5zCylR31D+E5dxcOfsbiFWSEh3UINce6KW90eOYsu3vacw6CiJMaURc1vSDuXphHtYe+xTaic9zKjbkodAcGt8E4+WaorWrKagzIqsjuWJBO/elJ3i7PkUWJpouubAucaESQJJt4RdeSkDjj46Gu6i1XlXH0e+IiTqqwGHRpY8E8+djWWqdJVPmhw4iGH22peYHS35YLuPKCSUGh0p2S/xycl/Zs8BKynPaQEbpRvWU1D2IdYGJ8Hh0SSmZ7Nyjg4lcPzlVNb/pYkmu4zz0kxMO4FgAy/+7iWSlCBb9pCzuZiqizYcLiUa/TSWLF9G0kjvzCUkSaJvqx0ULzZS9NAKUureofisnSZZYtqGgyyLu5VtVnY8lc5R1Tiazp5HnTyb0WeLKPmrloytu1gy0Z2brSyfjduKOXHJQXBULE8sfYllJo1X/i2YP/yS6Pj7CPOzSK37c1hfWMF5mwOnpCZ2SiYrstPQhuLueSfsYVzh2zw7BsBO0XwTpVPM/DZdDeWrMa5sYloyVJ+28okNYhdvYctMr45Lg4WiV/PYU1aDvT0Y9ZhpvLhhBUmd5stWipbPouCYFUe4gcy83/Csj6ME+VIJ61du5OhFGWnMVKYNB0K7j1dsnsXqd+tpsjt4bM1JXp/eK93+bBtuIX9ONiV2GXuLg4p/MfGOAqToTLZvTcO75MPG30fsvmuY7Q+TKYRbMAT44LaSsWzLYtPlBLYeq6R837Nw6jjdThg1aXkHMR/ZzuyRSpLWmDGbzRz0QTjgLmxr7+a9pJCbt5RgbD6Oyh0X7cSsKqTwzYNsn+Ugf3mBZ05jINv9JFDLuBiwVld70pBBk8TKne9SeaqSd1+djH37UvLL3YYnrjqI2byfJeMlDEv3YzabMR9yCwcALhWxGbnsP1ZJ5YlClqiPkrOmCJufZlkPleJMf4ODR8yUHdrObO3AtoETVVIuB7dOw/6HE4z4dRn//pST4pIq952dy2fh8lJUC3ZxsrKSd9fp+HBdFjsuemXc1oTlsyCi7/dfkGUphrQ1+ykrr6TywEvEnF1P1q5q3xOwV1E/YSW/LTyIOc9A9eZ8Srv+WBtF2c9R0DSNLQcrqSwvo3BxLMFecwTyqfepn7GdsnIzv4n/hIKtvs7RWdn7b6upin6JQ+XlHMoewYcnbHhXVcMLb2M2F5L5cF/X38K2QB1LCs2YD75IQqiWef/H8yz1Eg4Awu4hOvRLLJc7fCwwgWBwGVg8XDUcLbNjeHoeOiWgNjD3aUM/PWF/+Yr7FjjRv9bHtqWd+3zMRNKnMM3TW9ckp2CwlXL04u2wXUKpVIKjydNYaEmak4ZupFsNlOPTSJng4PxF35ohaWIac6fEoA4FJA1JMxJRW6v5xLuRs2xienw88Z7NuKb3xCwojRlk6DyKFKpBo/bFNiWakWokjQZ1sBbtSIkRmkgcdjsyUPV2MfWTMnnRpEUClBPn8fOJVo6WWbszbmvji7ZAwrx63b4SM30uKTq12wWnNpCWpMVWY8VnL74qkZQkd/dE0sUS47JhveY5dqmE4tNa5mbPJiYcQEIdl0Ki14hO0j/BvDg1BKpJnGJAabP2KPd+uXKc9z+OJi0jEXUgKHUZzPNnNOuDbb4RRFiIiy9kMWsuGBp8cFs10uQIRq1Wdu1Rq9UED5IBQVEd3KPs44DiK4J8TCNYqaYrCUmJSmrC3gCDb7uMwyGDUuURIAeWwo3kH6jgkwZ3syd/ITMizsfUrpRSsHU3pWdtNLUDLgd2OanHOdKETN541avnGXpzYUVqIvsQxIFs88ydKCRCFBAMBCsAFzhxYLc7cFRuZGZyfneSLUpUWq/mPSiIe4NcNLb4dr/e2E/sYOPuw1Rd9ghxix1iZZzgm7gHe7nyFBIg09rZjtbXUx84ghHDb3F9qMqrzkjQ7qPhDjt2wojsGlZLREapkXwdzvpim0+00dgayL130gSY4DuFD+IRiUrp5KpDpvOxdjQ5cA5K9ndhWxfCmWN9HJJcPPqfMt/3oSVx2m3Ywe0ma7Jjl1VEh/thuxxA07m7aFN8herRjv5Fy2XlfLUTbUoMSkA+sZGlO+1k7tzPb8coATtFC0wU99F/vnmPjaLlOZzQ/YZdrySiloBT6zEubep5WqASTZTa7zfX/LHtZkuVqNVK1Mm5mFcZ+j81SIXu/jb++JkM4/v4oxTufTd1jhtKWJ39DspVuziYrEECrG/MYpal84ReYoCM3DyA2d5ERhLpOs/Va3Czv+drolSjppomB555DpnGhiZkX189GSzbGr+kpuVuHn9QfKolGBoGrnmBMUw1aqgyl7h9wi4bhw9V+O5euCVfEbHAiX5LH9sm391W8uli9pxy4O5tF1ERlcjkMX7Y/mkgH86X+GBBENf78gK0yzhs1ZTkrabIkcDcGZ6JWUcTslLLOI9rSD5XzGFL79SVqMLhavX5nvm6mmhqCSZSO84tHC47pQeOYh8sL4RPtvVP7IxpqI7lk1/u8efLdqwnSjh+xfusUEyP3UPN2c9p7CuRezWMDv2EilO93HjOJmSXmtExbuGgoYIic3V3+Sg0aDX1WCzu6+SaEo5+7EeNeyiFNJ2VPXlFVDcAyNhPl/ay/W9kZCJTo89z+IjHfWcvpbjcj1k0X2xTqFGF1nP+o/7TbTz3OTUj7sckJssFQ4RP/SXd4lwy16xm/vQilCoVozXRKOsHx4DQ8e2Ejv96aSjjYuGNmcQvtiONTGLZxl+i84zmv67tcl0Rz+iLkMI1RMelsHJ3ZtdrutKUJbxYvorsGbNQD1cREmVgXLREVY8UJJLm/5KSlTkYjSBJBl7cn0uKMoZ52bPJyUsn9W01kcMiiRkfi2aQvBC+2XaL63XL2L4mn42b0zFeceAMVKKNncrc5Sk9zhuVMIrJf/6U39u/f/NbP1IimdmJZG0woV8Fmp/v4uALOohKY9niClb/IpWj6khUKg26CTFInRoTGMPPlz5BxcszSS0ezYhHdIx+WPLjRQINsze/gZyXR1bqpq43mpZsSBr40gHRMnfdSqy/yiK1REKp0jJijLrbhWYrJmtBPlUyyHYZZ54J4xaQElZycE0Ski+2BRqYu9hAzoafEL9BQjUhk13bZnsNVFr4/YkvmTz1MfGarmDIuKu5ufmroTbi62DJM/FcwwrKNyQOtSnfWS78x0nm1T/Mn+d4fSgouG20njnDjw+HsjvnYcaKKQ/BEDF4HwkKvrOM/d+TODnURnyHCHn0UU4+OtRWCL7rCPEQCDpxWSndeZjz/bx5FRJpYPZTBvp6OVAg+K7xrXdbCQQCgeCbR7znJxAIBAK/EeIhEAgEAr8R4iEQCAQCvxn6YFCdsQsuDnzqoNBvMKgW3tryHvM+6P0x2pcUvPIez1e1fUMGCgQCwZ3PIL5t1RkM6m0qF3z7Ynq0nrnAr+3D2f2PvT9rv4eMafcy6a2PsfwgpuvjQ4FAIPguM3huq291MCiZg6X1DP9fD/YpDiHjR/F4m42C/xbLXwsEAgH4Kh4t1RRlz8IYpyc++Rk29VjLx05xdiqm5IUUXXFQusaEyWQiNbvEjxjmMvXlm3gmOR69Pp5Za0p6LEVhK8sna6YRvd6Tv7n7qGzZQ9acVIzxevRxRlIXbqLUe52gW9reec7n/OEjCeP4ftYWDwzDGA3vV96RUdkFAoHgG2eIg0F5cFk5btGyYn85J3+ficq8kT2nPLkPFJTolgGVfAwGdbWRGkIZe3//xRT9/VCuXW2i1td7EggEgr9jhjgYVCcapqa7Q5BKY6aSMMaB9ZK7lz9QUKJbBlTy1faWNr4IUnDvLUojRAqAljYaRewdgUAgGPpgUAAEqlB1R+ZBUuAJzjNwUKJbB1Ty0fbQIO5tu8EXHUA/E+KtcgeEBhEmJswFAoHgGwwGZQ/g+pW7ILyDiId8XRFloKBEAwVU8tH2EWFEc50LnwH9hAOt+bSFsBEqvnYAOIFAIPg74BsLBiUfC+aDDIkP8hT488XELYMSDRRQyVfbQ+/jZ4/IlJ3rJ56qq4GyGvipXi2WHBcIBALugGBQA3HLoESBAwdU8s12idSkSH791mUsP7n5W47Wc7X8MUjD7h+ID/IFAoEAxKq6XrTw1pYK/uOHk9j9Q+8p9S8pyP0vLKYf8Xpsv9HNBQKB4DuFEA+BQCAQ+I3wwwgEAoHAb4R4CAQCgcBvhHgIBAKBwG+EeAgEAoHAb4Y+nsffCy3XWLT8JAV1Q23I3wGOEs7HzeLypaE2ZOjpKMuhYno+ju/QsjiWPBPGVce/XiKOYhbFpbPHNvCpQ0rH+zz/+jCGbXRvEbvzuDD4mWDZ/z4/frOB1kFMdRBHHp3xPAqpPFVJ+bY03xdGBKq3phKfXTp45nzDWI5c4INHHiYjqo+Dl3ZQZVzN9e9QAyD4O+Y212dN0hKWTB93exK/HXRYyPtttwB0bZvT2Ns8wLUB0Tw1eTe7/ykD3W3zAwWgM2l58GQ1ewexczt4waC+1fE8viat1yg40cHjWfeJL9AFgq+JemIKaUNtxN9CwChMMSZGdX5kHDCW6AE/DYvCMP5JDDfg9+/vvQ2jDg9KDU+Pr2b5nxvInB0+KEkOeTwP+6EcUk0mFv7eiqNsHSaTCVPyLDad6jxDxnpgNemmePR6PcYZWewo988hJl8sZv2CVIxxevQJJmZlF2Pt7DXZK8hf7I4HEh8fjyl9PSUedbYVpqOfs6dnbJF96ejnF/XY1/rRZ/wpMAJjP+ti9YvLRn3eM1QmxFMeH0/F9GeoPdFZtjauPqXn9AurOZueTtUME6eX7qDRq+ib9+dwZoaRijg95Qkmzqwpptl7hRWXnYadWVSZ4imP650+tJblc36mkXK9norkZ7B6xUlp3b+I/5q+nobO0y8VccaYivX0AAvTuCxYk418VH7zodZ96ZQvLvaseVnNZ2vSqUzQUx5n5PQLe3D0WCtf5kZxDqeNesrjTZzJK6XV556uTPOB1Zwxecp1Sipnd1t6nNFxsZiPF6R2lV1VdjHNXek7qFus5/TmYq5mp3M62cR/TUnFegrARv2GRZw2xVMep6fClE7NPov7ngAcxZzVp3J+VRZn0mdxenoqZ7ce77Ge2q3KnZZqbNmzqIhzH6vtK/7MAPfeesyTfpyeiimzOL/bQmcYs3bLHmqeMlIRF095gonTLxRzo9OuwnTK5+zp4dpo3ZdO+fyiQXV39Gu5eTWpJhPG+AnE93ZbySVkxaWSs3U9i+bMwmQ09or746DijUWkJujRJ6SyaFcVjb3S7z8ukJ3S5SZM2aVdbZb9SBZGUw6ldkC+C7kugJabtrto61EndTw95VVeNXm2qZkYggEu8NaRNCa9ruWBzRFE5I/nxwfzqbiBb3TUYX7v50za9gARmyN4YNtEko+a6RpEOC/wljmNidsiiNj8AOP/7yLyr/S++wAmPxrOtTPXsAzSiNGHkUdnTIwUdh17G51cwaYFz+Ag2nPcHc8jzVVN/s/mY3vBTK7RdwPU03M5ON3ttppvW4I5L6nnCZbXyNpQTeK2dymMC8a6P4f52evQHNhCii9+sYZSVi/YiP3pLezfZkCtsGM5UtWd/N7VFLnmsr9sNhpJxn6uinrPsruapGnEbjvM0StzmTsSwMZRs5XYGVPReGVx+cqXNEZpiO5vxV11At9/wcmwXsc7TuRjNasZtb+cqChov2Kh2eW95q/MjasjGLvvJYZJDq4vn8lHedHoX04kAOiQYoha8yIRE9QoGiqwPreIC7timLg4BoDmnQupOahFu+1dosYo6bhynOvXZEBJx7l8zi8v5Z41uzCYtHSczufs0iwua9/mwTEQMjMXrWUm1lcM/GCNhs/+rQAydjFq4gCL8QdGEzZB5rLFCvHeo1AZx1krd+tiUWCnbuVCrjjnEn2gkDCljbpV86l5ZQSPbUhyV0qXlcYrc3nUnItkL+Gj+av4+MFYJjzlw5/eUMKlDVWEbn2XR+OV0GCl4ZKX3Q2lfLRgI86nt6DbZiBEYcfhVSe6LD5UimvrG0zUKaHFxo0W932gSWL0zlyUI5V0nNvB+X9ZSu0YMw/He/Jot3IjeAW6QgOKFgvW9Of4WHuIcdPVA5S7TOO2LK5cTmHcsbcJkyuwLniG9q5nbWA6Tm3i3MoqwtcVEj1FQ4CjmvqTTjqAAGxcy3uN1oR/R/9mDArZTvPp+q6FpEOSpjFs22HsV+YywlPf7WYryhlTe46o+6nPXxfJ9BIHTe45j6V9aabLSnXLCgr3rUDZUErWjHXsOZXCijhwHFtHTqHM3F0nmau1U7JyPjmymqmeSzvjAsWu2cVJkxbn6XyeW5rFDu3bPDtGTdKqPKrmLGX1/hh+E3ecnDwb0179d5LU0LJP4r2NffWzv+KBHTd4rHPN1g4Le449zweeUyV1Br/6Bx0hHbV88NcvGDs2i8zIMBprC1h7YTkLlZM5/U+6Acul9eJaFv6/P3L36A1sj3kQHFWUNTR6RL+RP/4pjXkXGtCNzeGV+25gPp3P8gPXCJtbTEZYdzohD9zDKHsjVS24Q1R8Te6QeB79U112HJt+NplxSkBCO2Me00JPcNTHHpn9WBGlyidYtsDgXjwxUI1uehJaT8UPRsL5Pzaqr9iRkVCPNxDTOaqLmkpKrJUSszt2CJdKKLE+RsqUng1Yq6MdgoIIox+UMURM193s0gqUoMVOq9VKuwsUI3WEPeRdshLDfprCMAlASUSygY4TpV0xRZTT5xKlU6MIBNQGopK0yDVWdy/YZaHugJWwhSuJGuOuKQEjE4mMc9ve+HYx8qRMtCYtAYBi4jzun2ilwRMnBZRELM8j4uI6zs7J4vPhL/LIPK0PFUZCqR+HfLaKdux8tjieyq3V4KrBUa1CpddC3VHq/qIiaulcwtSApCEqI4WAvxylsWtgoyYiPY27JQjQpKBJjsRRdry7hz+ADQE04bRaaXUA4VrCJ3bLvfNYEQ3KJ3hogYEQT51QTk+6qTEMMGbw/c6nLFTD3WoALZFz0ggbqXSX2/g0Iic4+PKi12hYoSE81eAWwVAdkcZIGksraB+o3F01XC+zo3x6HmGeZ23E0wY/JiZlGvYfpj3pl4yaonFfp4wh0qTr0Ut01Vm5USeDpGZYfEx3iIKoqUTGWrF71ffPrY8R2au+91ufbzsaElMNKAHCYzGM7I7782HpceQfZTB7jASBGlLmp6D1uumB4gIRqmPZhrnI2xfyz78ogPm5LPN0lEKS2tC/5uxzG91D12t5/1wBBf/t3nbUXnAvwhowmVfm/JndU5aQMe4pnv1RBoYAuHytCp+mIDpu0ArcuPEZDQHDifvBr3jd9CSjAG78gTc/qYWwDDZMzeTpx7J49R8MhDjf580LvVKXggihjdZ+1n/1lzsjnsctqLfXE6xW05V7oBq1Gj5saAIGls8mez0MTyGyn15SzLO5rHAVsPv56eTUSWiNc1m5aq5HmdVMTTawcW8p1gXPIpcc5mpcJlN7uQxDlAq40kYj+PVABSQsIXpxAbZtC6m82IQieioPrFrB/WO6BUShVHVf8D0VCsdVnO1AILSe2EHt7sM0X25yuyVa7HTEelrf9npaG5QEa/oqIwdOu4OOyo1YvOKkdLQoCdR6uaVCdQyfMZrPNlwlMivJ53sL1umQdlTjaJBorB9BYNMJmq8p+fKLGO6PBi7ZaGu3Ufe8ietdV8m0B8bS3oK7VgZGEhTZnWaQWgn/00QbPlTa8BS0m21c+d06/nublQ51LJGLX0JrcgtIm6dOSAP0nIM0kX003A4aCzfy6YEKbjS4y6rjCxkpzuuUQBXBXn9bULgSGppoH7DcG2l3BBPs9awp1P68duKg1e4kKG5EP4Kj4YF1ubRvL+Liz1cjuzSEzVzGw4sTPc+zmshkA1f2ltK84FkoOUxbXCYRg+Mi//oEqlB5NzzecX8cTiLHRHZ3atUjGBFY4fkxcFwgAMY8QVpsATknDeRO7x41Byg7UGnv6nL9eRPkHbk64HF2L/4dT/buWTsqyDcvZ++nFmq9ej8h7a344rkKGfNvbPlBHWur83n+YD4ERGEY/xuKfvo4Uc11XOsAGvNJ3pbf47przdcArzd45DZaCSKkn2jb/nLnxPPo50GOvDcS58d2HHikwmXHbofIcFXfF/RCpY6Ea1bqXaDuKw9lDGnZW0jLBrnuOJue+1fy9k+lcJ67oVEap2HIy+fwOQOY60lcnHiTZD048h7C/vwlNS6I8msoryYsfQVh6SugxUbdmvlYXy0hYntalzg77fWdd05HfT3tShXBCqChBGv2OyhW7eKxZHcvs/mNWZzpdO0rIgkJd9Bqc8DE3hYrCVYrCU7ORd9nnBQPl/bw0c4mIuaMpuGV9TTse4lwXxqSMQbuYRONh2ScCcuIurQX+zElN8YYUIYCag1BUizD9/0WTV9towNw1dNWDzzk3tVmd8D3VPi6NGVIwrM8kvAs4KC5MIez6/IJM+YSIUGQp07ILgi+xf/VVwPccWIjNTvtjNi5nwljlIAd2wIT9d4L/bvqafW2/ZodwlUoBip3FyiUTlq9nrWOJn/mPJSEqINps12lg75HiQEPJTEqL4lRgPN0PuefW8/VhES0Hu+JwjiNsLx86j31PWxx4iC+VXO7UKIOD6apoal7l6OJepfX8VvGBXJjP7SKjdWJzJ1UxcZ1JRg2u0Nptxzw0W3VDxUnF7H2Ui2jRm/gdzodw51/4l+P5HPBu84EQkgAtLpu0Or2MXajGMuTPz3Ckz9ppPavZex9fyF559byxqOP86uwKO4FCM9kd9LjXlIRwr1hY3vY0frXL6n9XhixgyQed0w8j8jwSJxWa/dEtoeYpEQ0lUUUnHLgnjzfzeEmA4nxvjnt1MY0EhzvsGlnBXYZcDmoPnK8Kx/biRIqrrgfUCk4DCkQQkK9ug7KBNJ+1ETJ5nxKHImkJNycb8gj9/NT13XKrvhkUhcdNcept9hodwGShEKCgFDJ60+RuXFwD/V1QIuVvxYeJyAhCWUg4Gyi3aUmNMbjnmiooM5c3d07CtQROV1L44511F1031+HrYL60+5hftiMaQQey6e23Oa+RrbTfKKEhs57aLFQ++IemJ/LI9m5aGMr+HhNsW8Tp4HjCIu5St3eT7gnwUBEPHy+t4IgXax79BI1lai4T7iWV0xzg/uSdpuFerPXxDN2rhcWc0OGDlsJtiP1KKf42JA1WKg/Vo1TBggmQAqGYBUBnouDjWmEO97h0s4K9zkuB44jx70mzPunw9FEh1LLPSM9gn6umHpLr6ehvZft5iaURrcb65blHhhDhFGDw1ziLmeXjbpDFX32eBvyZlH51KZeYZElwmdMQ1H6GrVlnvQdVq4fq/aUq51G83GaPSMmRWgIAYESAd49ZWUCkT9q4vrmfK47Eonso74PRO0H1Ty/z4rFn8A9X5PHpiRCeQnHGwBkqg+WUO3Vy79lXCCAi3vI2WwjbcNLLHs5j2mXN5Kzz+3SCklqQ7/F2cfW1stt1Q8BACFEhRv44X3D+eKvFdT2/lMVYxmrAhreIvc/97L3zFuY7Z6n7dJafn5wLflnzFgcX7jFhRDuDgCG/ZSM0VHQ8AfeOFuBxV6D5dM/sad8LX9o9PYVdPD+mUaGxw6/KeTE38odE89DnZxBxrH1pBt/hxSsYuq6g6yIB3S/ZEt2E6tW/QS93YlypIG0vJdI83U0r04h9w2ZTZvXM32XDaekRhufSa7Jfbjp0lE2rVuHtcFJsKRm3JQVrPiZd+IShuRE5IXFMPN1DH2pdshwMhMuMK/sc3Ie8uN13aYa6jasxmpz0BGoJDh2Gg+vTPH6UySGxamo+5d4Pq6D4Lh5PPK8pwGNSuOhxRVc/EUqn6sjUag0qCbEEODlelcu3E60Yh2Xn/sJVgcERI0jKnsLkUCAbhnj1uRj3ZzuFs9AJVLsVDTLUwA711/Opl6zhB/McQ/fI5bn0Zj+HB/tjmXCgHMfSlT6EbSfHU14NASr45A2fEjIxE5XgJqoDdtp37yJmtT1OOVgAtRawmZl0zWwCdQSNrKCatN6ZFnNsJkv88gMH/90Vz2OwnysK210uIJRjDQwfF0m4Z0PjTqFh9+Qqd28ng932eiQ1Nwdn8kY08BJK6YsYVT5Kj6eMYvA4SoUUQbuiZb40vskKYawkce9bM/tsv3W5Q5hi3MZsWY156YXEahSEaqJJqCPZ63DbqX1SsxNc0AB8csYt+Y1PtmaTkW2gwClBuU/v+wpV5nWm3v1VQAAAhdJREFUvxRwdd2/4pQhQBntzq9HAygRnpzIxwuLCZj5OuF/Qy/18kc2Ck6EMflJLTpfh4quanYsyOJ3l2Vw2LGTg/GkhBQ+jbw3lzHQtLLSuJLci6vYlJ7Ka+FKIsdoiFF0F9wt4wI5LGzKLqA1o5AlOglwz3+kz89i04S3WTZRYvgDt8i8L3X3wvDDV8n+Yjl7q37MuDNjmTw6mlEB9HwtN0BHljEby7ECzB8s4o+EMHlyHCb1KBg2HKmxgIL387nWDtLdOp6ctIHM4QBRPJ58gNffW0vBJ1tYe0FGkh4kOsrEz7wnYR02fl8TSmbO4PkgxZLsg0XLNRa9bEWXNYnMvj4U9BsbV59K5Yuny5gwYxBejRB8MziKOTvlHe7dX+h5Y+m7Rgv5L7/Hngf/kZNzxHdPdwYdWPafYKHrUf78VPig/Sd3vjvz20LocF7fICKcC77jOOops0ew9BdCOO4cAtDNnMzJQU71WyweMtUH9nLU1o8XXjGCqXPSiBmkySFBJzKOA3u5fotyj5iT5p4Yvw04TxXx2al6+h4uhzAs5VkiH7o9eQt8QPkgxVsfHGorBN8Awm0lEAgEAr8RS7ILBAKBwG+EeAgEAoHAb4R4CAQCgcBvhHgIBAKBwG+EeAgEAoHAb4R4CAQCgcBvhHgIBAKBwG+EeAgEAoHAb4R4CAQCgcBvhHgIBAKBwG+EeAgEAoHAb/4/tP+WmexjM5IAAAAASUVORK5CYII=;imageBorder=default;fillColor=#FFE45E;strokeColor=#FF6392;fontColor=#5AA9E6;rounded=1;" parent="1" vertex="1">
          <mxGeometry x="235.5" y="770" width="399" height="72" as="geometry" />
        </mxCell>
        <mxCell id="1IcF2C1W_d4IgtXrjlez-15" style="edgeStyle=orthogonalEdgeStyle;rounded=1;orthogonalLoop=1;jettySize=auto;html=1;exitX=0.773;exitY=1;exitDx=0;exitDy=0;entryX=1;entryY=0.5;entryDx=0;entryDy=0;exitPerimeter=0;labelBackgroundColor=none;strokeColor=#FF6392;fontColor=default;" parent="1" source="1IcF2C1W_d4IgtXrjlez-8" target="1IcF2C1W_d4IgtXrjlez-6" edge="1">
          <mxGeometry relative="1" as="geometry" />
        </mxCell>
        <mxCell id="1IcF2C1W_d4IgtXrjlez-8" value="&lt;span style=&quot;font-family: Söhne, ui-sans-serif, system-ui, -apple-system, &amp;quot;Segoe UI&amp;quot;, Roboto, Ubuntu, Cantarell, &amp;quot;Noto Sans&amp;quot;, sans-serif, &amp;quot;Helvetica Neue&amp;quot;, Arial, &amp;quot;Apple Color Emoji&amp;quot;, &amp;quot;Segoe UI Emoji&amp;quot;, &amp;quot;Segoe UI Symbol&amp;quot;, &amp;quot;Noto Color Emoji&amp;quot;; font-size: 16px; font-style: normal; font-variant-ligatures: normal; font-variant-caps: normal; letter-spacing: normal; orphans: 2; text-align: left; text-indent: 0px; text-transform: none; widows: 2; word-spacing: 0px; -webkit-text-stroke-width: 0px; text-decoration-thickness: initial; text-decoration-style: initial; text-decoration-color: initial; float: none; display: inline !important;&quot;&gt;&lt;b&gt;5. Append data to keys from dictionary(refer to block 24 in Jupyter Notebook)&lt;/b&gt;&lt;/span&gt;" style="text;html=1;fontColor=#5AA9E6;labelBackgroundColor=none;labelBorderColor=default;whiteSpace=wrap;rounded=1;" parent="1" vertex="1">
          <mxGeometry x="170" y="680" width="636.75" height="40" as="geometry" />
        </mxCell>
      </root>
    </mxGraphModel>
  </diagram>
</mxfile>
